<svg xmlns="http://www.w3.org/2000/svg" xmlns:xlink="http://www.w3.org/1999/xlink" width="756" zoomAndPan="magnify" viewBox="0 0 567 368.250002" height="491" preserveAspectRatio="xMidYMid meet" version="1.0"><defs><clipPath id="ee1136b904"><path d="M 377 68.953125 L 565.933594 68.953125 L 565.933594 298.734375 L 377 298.734375 Z M 377 68.953125 " clip-rule="nonzero"/></clipPath><clipPath id="35ecfd63f7"><path d="M 189 68.953125 L 377.886719 68.953125 L 377.886719 298.734375 L 189 298.734375 Z M 189 68.953125 " clip-rule="nonzero"/></clipPath><clipPath id="75e9b4a4e6"><path d="M 0.933594 68.953125 L 189.410156 68.953125 L 189.410156 298.734375 L 0.933594 298.734375 Z M 0.933594 68.953125 " clip-rule="nonzero"/></clipPath></defs><g clip-path="url(#ee1136b904)"><path fill="#020047" d="M 407.949219 298.832031 C 398.121094 298.832031 388.480469 294.066406 382.644531 285.257812 C 373.394531 271.300781 377.214844 252.488281 391.175781 243.238281 L 480.734375 183.894531 L 391.175781 124.546875 C 377.214844 115.296875 373.394531 96.488281 382.644531 82.527344 C 388.480469 73.722656 398.121094 68.953125 407.945312 68.953125 C 413.695312 68.953125 419.511719 70.589844 424.664062 74.003906 L 552.359375 158.621094 C 560.835938 164.234375 565.929688 173.726562 565.929688 183.894531 C 565.929688 194.058594 560.835938 203.546875 552.359375 209.164062 L 424.664062 293.78125 C 419.511719 297.199219 413.695312 298.832031 407.949219 298.832031 " fill-opacity="1" fill-rule="nonzero"/></g><g clip-path="url(#35ecfd63f7)"><path fill="#001a4c" d="M 219.617188 298.832031 C 209.789062 298.832031 200.148438 294.066406 194.316406 285.257812 C 185.066406 271.300781 188.882812 252.488281 202.839844 243.238281 L 292.398438 183.894531 L 202.839844 124.546875 C 188.882812 115.296875 185.066406 96.488281 194.316406 82.527344 C 200.148438 73.722656 209.789062 68.953125 219.617188 68.953125 C 225.367188 68.953125 231.179688 70.589844 236.332031 74.003906 L 364.027344 158.621094 C 372.5 164.234375 377.601562 173.726562 377.601562 183.894531 C 377.601562 194.058594 372.5 203.546875 364.027344 209.164062 L 236.332031 293.78125 C 231.179688 297.199219 225.363281 298.832031 219.617188 298.832031 " fill-opacity="1" fill-rule="nonzero"/></g><g clip-path="url(#75e9b4a4e6)"><path fill="#001a4c" d="M 31.28125 298.832031 C 21.453125 298.832031 11.820312 294.066406 5.984375 285.257812 C -3.265625 271.300781 0.546875 252.488281 14.507812 243.238281 L 104.066406 183.890625 L 14.507812 124.546875 C 0.546875 115.296875 -3.265625 96.488281 5.984375 82.527344 C 15.226562 68.574219 34.039062 64.753906 48 74.003906 L 175.695312 158.621094 C 184.171875 164.234375 189.265625 173.726562 189.265625 183.890625 C 189.265625 194.058594 184.171875 203.546875 175.695312 209.164062 L 48 293.78125 C 42.851562 297.199219 37.027344 298.832031 31.28125 298.832031 " fill-opacity="1" fill-rule="nonzero"/></g></svg>