<svg xmlns="http://www.w3.org/2000/svg" xmlns:xlink="http://www.w3.org/1999/xlink" width="756" zoomAndPan="magnify" viewBox="0 0 567 368.250002" height="491" preserveAspectRatio="xMidYMid meet" version="1.0"><defs><clipPath id="b69a705be5"><path d="M 0.984375 69.011719 L 190 69.011719 L 190 298.792969 L 0.984375 298.792969 Z M 0.984375 69.011719 " clip-rule="nonzero"/></clipPath><clipPath id="8355c43d91"><path d="M 189.03125 69.011719 L 378 69.011719 L 378 298.792969 L 189.03125 298.792969 Z M 189.03125 69.011719 " clip-rule="nonzero"/></clipPath><clipPath id="3bf218c493"><path d="M 377.507812 69.011719 L 565.984375 69.011719 L 565.984375 298.792969 L 377.507812 298.792969 Z M 377.507812 69.011719 " clip-rule="nonzero"/></clipPath></defs><g clip-path="url(#b69a705be5)"><path fill="#020047" d="M 158.96875 68.914062 C 168.796875 68.914062 178.4375 73.683594 184.273438 82.488281 C 193.523438 96.449219 189.703125 115.257812 175.742188 124.507812 L 86.183594 183.851562 L 175.742188 243.203125 C 189.703125 252.449219 193.523438 271.261719 184.273438 285.222656 C 178.4375 294.027344 168.796875 298.792969 158.972656 298.792969 C 153.222656 298.792969 147.40625 297.160156 142.253906 293.746094 L 14.558594 209.125 C 6.082031 203.511719 0.988281 194.023438 0.988281 183.851562 C 0.988281 173.6875 6.082031 164.203125 14.558594 158.582031 L 142.253906 73.964844 C 147.40625 70.550781 153.222656 68.914062 158.96875 68.914062 " fill-opacity="1" fill-rule="nonzero"/></g><g clip-path="url(#8355c43d91)"><path fill="#001a4c" d="M 347.300781 68.914062 C 357.128906 68.914062 366.769531 73.683594 372.601562 82.488281 C 381.851562 96.449219 378.035156 115.257812 364.078125 124.507812 L 274.519531 183.851562 L 364.078125 243.203125 C 378.035156 252.449219 381.851562 271.261719 372.601562 285.222656 C 366.769531 294.027344 357.128906 298.792969 347.300781 298.792969 C 341.550781 298.792969 335.738281 297.160156 330.585938 293.746094 L 202.890625 209.125 C 194.417969 203.511719 189.316406 194.023438 189.316406 183.851562 C 189.316406 173.6875 194.417969 164.203125 202.890625 158.582031 L 330.585938 73.964844 C 335.738281 70.550781 341.554688 68.914062 347.300781 68.914062 " fill-opacity="1" fill-rule="nonzero"/></g><g clip-path="url(#3bf218c493)"><path fill="#001a4c" d="M 535.636719 68.914062 C 545.464844 68.914062 555.097656 73.683594 560.933594 82.488281 C 570.183594 96.449219 566.371094 115.257812 552.410156 124.507812 L 462.851562 183.859375 L 552.410156 243.203125 C 566.371094 252.449219 570.183594 271.261719 560.933594 285.222656 C 551.691406 299.175781 532.878906 302.996094 518.917969 293.746094 L 391.222656 209.125 C 382.746094 203.511719 377.652344 194.023438 377.652344 183.859375 C 377.652344 173.6875 382.746094 164.203125 391.222656 158.582031 L 518.917969 73.964844 C 524.070312 70.550781 529.890625 68.914062 535.636719 68.914062 " fill-opacity="1" fill-rule="nonzero"/></g></svg>