<svg xmlns="http://www.w3.org/2000/svg" xmlns:xlink="http://www.w3.org/1999/xlink" width="378" zoomAndPan="magnify" viewBox="0 0 282.96 283.499989" height="378" preserveAspectRatio="xMidYMid meet" version="1.0"><defs><clipPath id="cc1da9cd2a"><path d="M 0.230469 19.292969 L 282.691406 19.292969 L 282.691406 263 L 0.230469 263 Z M 0.230469 19.292969 " clip-rule="nonzero"/></clipPath></defs><g clip-path="url(#cc1da9cd2a)"><path fill="#ace5e9" d="M 64.945312 142.742188 C 64.9375 142.535156 64.929688 142.324219 64.921875 142.109375 C 62.691406 85.097656 111.433594 42.71875 161.511719 42.71875 C 211.59375 42.71875 259.382812 82.1875 259.382812 142.109375 C 259.382812 169.839844 246.507812 195.890625 229.53125 212.570312 C 209.820312 231.941406 184.3125 239.757812 162.816406 239.757812 C 122.800781 239.757812 95.078125 211.476562 95.078125 211.476562 L 77.265625 228.222656 C 77.265625 228.222656 95.257812 244.203125 110.054688 251.050781 C 124.847656 257.894531 129.179688 262.039062 161.511719 262.761719 C 189.28125 263.378906 215.199219 250.972656 232.054688 239.757812 C 279.5 208.179688 283.183594 163.085938 283.183594 142.425781 C 283.183594 121.761719 279.066406 81.203125 239.558594 47.683594 C 221.082031 32.011719 197.050781 19.578125 159.234375 19.578125 C 123.964844 19.578125 97.140625 35.820312 79.644531 51.066406 C 38.265625 87.132812 39.949219 142.425781 39.949219 142.425781 C 39.949219 142.425781 40.003906 142.535156 40.105469 142.742188 L 0.203125 142.742188 L 53.957031 198.222656 L 109.445312 142.742188 Z M 64.945312 142.742188 " fill-opacity="1" fill-rule="evenodd"/></g><path fill="#ace5e9" d="M 150.546875 91.082031 L 150.546875 155.894531 L 208.144531 190.878906 L 217.941406 177.246094 L 169.511719 147.902344 L 169.511719 91.082031 Z M 150.546875 91.082031 " fill-opacity="1" fill-rule="evenodd"/></svg>