<svg xmlns="http://www.w3.org/2000/svg" xmlns:xlink="http://www.w3.org/1999/xlink" width="756" zoomAndPan="magnify" viewBox="0 0 567 368.250002" height="491" preserveAspectRatio="xMidYMid meet" version="1.0"><defs><filter x="0%" y="0%" width="100%" height="100%" id="c0b778de71"><feColorMatrix values="0 0 0 0 1 0 0 0 0 1 0 0 0 0 1 0 0 0 1 0" color-interpolation-filters="sRGB"/></filter><clipPath id="67e17098d9"><path d="M 11 21.71875 L 555.816406 21.71875 L 555.816406 345.808594 L 11 345.808594 Z M 11 21.71875 " clip-rule="nonzero"/></clipPath><mask id="72fdd1fe31"><g filter="url(#c0b778de71)"><rect x="-56.7" width="680.4" fill="#000000" y="-36.825" height="441.900003" fill-opacity="0.7"/></g></mask><clipPath id="f6d18ad2cf"><path d="M 1.023438 0.15625 L 202.566406 0.15625 L 202.566406 201.699219 L 1.023438 201.699219 Z M 1.023438 0.15625 " clip-rule="nonzero"/></clipPath><clipPath id="2d26e9f895"><path d="M 101.792969 0.15625 C 46.140625 0.15625 1.023438 45.273438 1.023438 100.929688 C 1.023438 156.582031 46.140625 201.699219 101.792969 201.699219 C 157.449219 201.699219 202.566406 156.582031 202.566406 100.929688 C 202.566406 45.273438 157.449219 0.15625 101.792969 0.15625 Z M 101.792969 0.15625 " clip-rule="nonzero"/></clipPath><clipPath id="382744e37e"><path d="M 0.0234375 0.15625 L 201.566406 0.15625 L 201.566406 201.699219 L 0.0234375 201.699219 Z M 0.0234375 0.15625 " clip-rule="nonzero"/></clipPath><clipPath id="cefe5817a2"><path d="M 100.792969 0.15625 C 45.140625 0.15625 0.0234375 45.273438 0.0234375 100.929688 C 0.0234375 156.582031 45.140625 201.699219 100.792969 201.699219 C 156.449219 201.699219 201.566406 156.582031 201.566406 100.929688 C 201.566406 45.273438 156.449219 0.15625 100.792969 0.15625 Z M 100.792969 0.15625 " clip-rule="nonzero"/></clipPath><clipPath id="a67775300b"><rect x="0" width="202" y="0" height="202"/></clipPath><clipPath id="51f950c68d"><rect x="0" width="203" y="0" height="202"/></clipPath><clipPath id="30ad00a269"><path d="M 178.410156 78.824219 L 388.734375 78.824219 L 388.734375 289 L 178.410156 289 Z M 178.410156 78.824219 " clip-rule="nonzero"/></clipPath></defs><g clip-path="url(#67e17098d9)"><path fill="#ffffff" d="M 283.464844 21.71875 C 210.511719 21.71875 148.808594 69.902344 128.460938 136.1875 C 103.640625 217.035156 153.019531 260.253906 209.871094 279.609375 C 166.21875 246.839844 151.203125 188.519531 171.480469 138.484375 C 191.136719 89.976562 237.011719 61.976562 288.457031 63.304688 C 358.375 65.175781 428.355469 105.394531 500.671875 183.832031 C 482.945312 203.0625 465.359375 219.96875 447.875 234.597656 C 436.425781 271.730469 413.132812 302.820312 382.890625 324.226562 C 440.492188 299.144531 498.09375 252.355469 555.695312 183.832031 C 464.953125 75.882812 374.207031 21.773438 283.464844 21.71875 M 283.464844 87.816406 C 287.445312 87.816406 291.367188 88.0625 295.21875 88.53125 C 287.8125 99.089844 283.464844 111.949219 283.464844 125.824219 C 283.464844 161.726562 312.570312 190.832031 348.476562 190.832031 C 359.695312 190.832031 370.257812 187.992188 379.46875 182.984375 L 379.480469 183.832031 C 379.480469 236.863281 336.492188 279.851562 283.464844 279.851562 C 230.433594 279.851562 187.445312 236.863281 187.445312 183.832031 C 187.445312 130.804688 230.433594 87.816406 283.464844 87.816406 Z M 11.226562 183.832031 C 101.972656 292.039062 192.71875 346.023438 283.464844 345.949219 C 356.414062 345.949219 418.113281 297.761719 438.464844 231.480469 C 463.285156 150.628906 413.902344 107.414062 357.058594 88.058594 C 400.707031 120.828125 415.722656 179.148438 395.449219 229.183594 C 376.414062 276.152344 331.847656 304.769531 281.753906 304.425781 C 210.707031 303.855469 139.644531 263.683594 66.195312 183.835938 C 83.960938 164.519531 101.585938 147.550781 119.105469 132.882812 C 130.636719 95.644531 154.082031 64.496094 184.496094 43.117188 C 126.742188 68.101562 68.984375 114.964844 11.226562 183.832031 Z M 11.226562 183.832031 " fill-opacity="1" fill-rule="evenodd"/></g><g mask="url(#72fdd1fe31)"><g transform="matrix(1, 0, 0, 1, 182, 82)"><g clip-path="url(#51f950c68d)"><g clip-path="url(#f6d18ad2cf)"><g clip-path="url(#2d26e9f895)"><g transform="matrix(1, 0, 0, 1, 1, 0.000000000000071054)"><g clip-path="url(#a67775300b)"><g clip-path="url(#382744e37e)"><g clip-path="url(#cefe5817a2)"><path fill="#ace5e9" d="M 0.0234375 0.15625 L 201.566406 0.15625 L 201.566406 201.699219 L 0.0234375 201.699219 Z M 0.0234375 0.15625 " fill-opacity="1" fill-rule="nonzero"/></g></g></g></g></g></g></g></g></g><g clip-path="url(#30ad00a269)"><path fill="#020047" d="M 283.460938 78.824219 C 225.5 78.824219 178.410156 125.914062 178.410156 183.875 C 178.410156 241.835938 225.5 288.925781 283.460938 288.925781 C 341.421875 288.925781 388.511719 241.835938 388.511719 183.875 C 388.511719 125.914062 341.421875 78.824219 283.460938 78.824219 Z M 260.554688 91.136719 C 254.710938 96.558594 249.625 103.90625 245.410156 112.546875 C 242.398438 118.71875 239.792969 125.675781 237.652344 133.140625 C 225.191406 131.214844 216.375 128.363281 208.628906 124.484375 C 221.566406 108.195312 239.707031 96.261719 260.554688 91.136719 Z M 306.367188 91.136719 C 327.214844 96.261719 345.359375 108.195312 358.292969 124.484375 C 350.546875 128.363281 341.730469 131.214844 329.269531 133.140625 C 327.132812 125.675781 324.523438 118.71875 321.511719 112.546875 C 317.296875 103.90625 312.210938 96.558594 306.367188 91.136719 Z M 278.6875 91.433594 L 278.6875 135.976562 C 266.339844 135.746094 255.882812 135.304688 247.199219 134.410156 C 249.121094 127.933594 251.429688 121.972656 253.992188 116.726562 C 260.964844 102.425781 269.75 93.75 278.6875 91.433594 Z M 288.234375 91.433594 C 297.171875 93.75 305.957031 102.425781 312.933594 116.726562 C 315.492188 121.972656 317.800781 127.933594 319.722656 134.410156 C 311.039062 135.304688 300.585938 135.746094 288.234375 135.976562 Z M 203.03125 132.394531 C 211.804688 136.933594 221.742188 140.207031 235.339844 142.390625 C 232.820312 153.726562 231.308594 166.066406 231.011719 179.097656 L 188.035156 179.097656 C 188.878906 161.929688 194.308594 146.003906 203.03125 132.394531 Z M 363.890625 132.394531 C 372.613281 146.003906 378.042969 161.929688 378.886719 179.097656 L 335.910156 179.097656 C 335.613281 166.066406 334.101562 153.726562 331.585938 142.390625 C 345.179688 140.207031 355.117188 136.933594 363.890625 132.394531 Z M 244.8125 143.660156 C 254.25 144.710938 265.453125 145.355469 278.6875 145.601562 L 278.6875 179.097656 L 240.5625 179.097656 C 240.867188 166.4375 242.351562 154.488281 244.8125 143.660156 Z M 322.109375 143.660156 C 324.570312 154.492188 326.054688 166.4375 326.363281 179.097656 L 288.234375 179.097656 L 288.234375 145.601562 C 301.46875 145.355469 312.671875 144.710938 322.109375 143.660156 Z M 188.035156 188.648438 L 231.011719 188.648438 C 231.308594 201.664062 232.824219 214.050781 235.339844 225.355469 C 221.738281 227.523438 211.804688 230.820312 203.03125 235.355469 C 194.308594 221.746094 188.878906 205.820312 188.035156 188.648438 Z M 240.5625 188.648438 L 278.6875 188.648438 L 278.6875 222.148438 C 265.492188 222.390625 254.308594 223.054688 244.886719 224.089844 C 242.425781 213.273438 240.867188 201.3125 240.5625 188.648438 Z M 288.234375 188.648438 L 326.363281 188.648438 C 326.054688 201.3125 324.496094 213.273438 322.035156 224.089844 C 312.613281 223.054688 301.433594 222.390625 288.234375 222.148438 Z M 335.910156 188.648438 L 378.886719 188.648438 C 378.042969 205.820312 372.613281 221.746094 363.890625 235.355469 C 355.117188 230.820312 345.183594 227.523438 331.585938 225.355469 C 334.097656 214.050781 335.617188 201.664062 335.910156 188.648438 Z M 278.6875 231.773438 L 278.6875 276.390625 C 269.75 274.058594 260.964844 265.25 253.992188 250.949219 C 251.441406 245.726562 249.1875 239.847656 247.277344 233.414062 C 255.941406 232.53125 266.375 232 278.6875 231.773438 Z M 288.234375 231.773438 C 300.546875 231.996094 310.980469 232.53125 319.648438 233.414062 C 317.734375 239.84375 315.480469 245.722656 312.933594 250.949219 C 305.957031 265.25 297.171875 274.058594 288.234375 276.390625 Z M 237.652344 234.609375 C 239.792969 242.070312 242.398438 248.949219 245.410156 255.125 C 249.625 263.765625 254.710938 271.171875 260.554688 276.613281 C 239.707031 271.488281 221.566406 259.550781 208.628906 243.261719 C 216.375 239.390625 225.191406 236.515625 237.652344 234.609375 Z M 329.269531 234.609375 C 341.730469 236.515625 350.546875 239.390625 358.292969 243.261719 C 345.359375 259.550781 327.214844 271.488281 306.367188 276.613281 C 312.210938 271.171875 317.296875 263.765625 321.511719 255.125 C 324.523438 248.949219 327.128906 242.070312 329.269531 234.609375 Z M 329.269531 234.609375 " fill-opacity="1" fill-rule="nonzero"/></g></svg>