<svg xmlns="http://www.w3.org/2000/svg" xmlns:xlink="http://www.w3.org/1999/xlink" width="756" zoomAndPan="magnify" viewBox="0 0 567 368.250002" height="491" preserveAspectRatio="xMidYMid meet" version="1.0"><defs><filter x="0%" y="0%" width="100%" height="100%" id="a44632fd10"><feColorMatrix values="0 0 0 0 1 0 0 0 0 1 0 0 0 0 1 0 0 0 1 0" color-interpolation-filters="sRGB"/></filter><clipPath id="06f1aa94d0"><path d="M 0.675781 0.890625 L 548.203125 0.890625 L 548.203125 326.65625 L 0.675781 326.65625 Z M 0.675781 0.890625 " clip-rule="nonzero"/></clipPath><mask id="9126ef0155"><g filter="url(#a44632fd10)"><rect x="-133.74" width="816.48" fill="#000000" y="-101.015001" height="530.280004" fill-opacity="0.7"/></g></mask><clipPath id="40522c394a"><path d="M 0.507812 0.636719 L 203.082031 0.636719 L 203.082031 203.210938 L 0.507812 203.210938 Z M 0.507812 0.636719 " clip-rule="nonzero"/></clipPath><clipPath id="8b43a53f46"><path d="M 101.796875 0.636719 C 45.855469 0.636719 0.507812 45.984375 0.507812 101.921875 C 0.507812 157.863281 45.855469 203.210938 101.796875 203.210938 C 157.734375 203.210938 203.082031 157.863281 203.082031 101.921875 C 203.082031 45.984375 157.734375 0.636719 101.796875 0.636719 Z M 101.796875 0.636719 " clip-rule="nonzero"/></clipPath><clipPath id="2569128819"><path d="M 0.507812 0.636719 L 203.082031 0.636719 L 203.082031 203.210938 L 0.507812 203.210938 Z M 0.507812 0.636719 " clip-rule="nonzero"/></clipPath><clipPath id="0e37db0908"><path d="M 101.796875 0.636719 C 45.855469 0.636719 0.507812 45.984375 0.507812 101.921875 C 0.507812 157.863281 45.855469 203.210938 101.796875 203.210938 C 157.734375 203.210938 203.082031 157.863281 203.082031 101.921875 C 203.082031 45.984375 157.734375 0.636719 101.796875 0.636719 Z M 101.796875 0.636719 " clip-rule="nonzero"/></clipPath><clipPath id="7163e234c8"><rect x="0" width="204" y="0" height="204"/></clipPath><clipPath id="9f8e31fa42"><rect x="0" width="204" y="0" height="204"/></clipPath><clipPath id="bc242f58ad"><path d="M 168.875 58.285156 L 380.183594 58.285156 L 380.183594 269.597656 L 168.875 269.597656 Z M 168.875 58.285156 " clip-rule="nonzero"/></clipPath><clipPath id="4c5a9931fc"><rect x="0" width="549" y="0" height="328"/></clipPath></defs><g transform="matrix(1, 0, 0, 1, 9, 20)"><g clip-path="url(#4c5a9931fc)"><g clip-path="url(#06f1aa94d0)"><path fill="#020047" d="M 274.464844 0.890625 C 201.140625 0.890625 139.121094 49.320312 118.667969 115.941406 C 93.722656 197.203125 143.355469 240.640625 200.496094 260.09375 C 156.621094 227.160156 141.527344 168.539062 161.910156 118.25 C 181.664062 69.496094 227.773438 41.355469 279.480469 42.6875 C 349.757812 44.570312 420.09375 84.992188 492.78125 163.832031 C 474.964844 183.15625 457.289062 200.148438 439.714844 214.855469 C 428.207031 252.175781 404.792969 283.425781 374.398438 304.941406 C 432.292969 279.734375 490.191406 232.703125 548.085938 163.832031 C 456.878906 55.332031 365.667969 0.941406 274.464844 0.890625 M 274.464844 67.324219 C 278.464844 67.324219 282.410156 67.570312 286.28125 68.046875 C 278.835938 78.65625 274.464844 91.578125 274.464844 105.527344 C 274.464844 141.609375 303.71875 170.867188 339.808594 170.867188 C 351.085938 170.867188 361.699219 168.007812 370.960938 162.980469 L 370.972656 163.832031 C 370.972656 217.128906 327.761719 260.335938 274.464844 260.335938 C 221.164062 260.335938 177.957031 217.128906 177.957031 163.832031 C 177.957031 110.53125 221.164062 67.324219 274.464844 67.324219 Z M 0.835938 163.832031 C 92.046875 272.589844 183.257812 326.847656 274.464844 326.773438 C 347.789062 326.773438 409.800781 278.339844 430.253906 211.71875 C 455.203125 130.457031 405.570312 87.023438 348.433594 67.566406 C 392.304688 100.507812 407.398438 159.121094 387.019531 209.410156 C 367.890625 256.621094 323.09375 285.382812 272.746094 285.039062 C 201.335938 284.464844 129.910156 244.089844 56.085938 163.832031 C 73.941406 144.417969 91.65625 127.367188 109.265625 112.621094 C 120.855469 75.191406 144.421875 43.882812 174.992188 22.394531 C 116.941406 47.507812 58.890625 94.609375 0.835938 163.832031 Z M 0.835938 163.832031 " fill-opacity="1" fill-rule="evenodd"/></g><g mask="url(#9126ef0155)"><g transform="matrix(1, 0, 0, 1, 173, 61)"><g clip-path="url(#9f8e31fa42)"><g clip-path="url(#40522c394a)"><g clip-path="url(#8b43a53f46)"><g transform="matrix(1, 0, 0, 1, 0, 0.000000000000071054)"><g clip-path="url(#7163e234c8)"><g clip-path="url(#2569128819)"><g clip-path="url(#0e37db0908)"><path fill="#ace5e9" d="M 0.507812 0.636719 L 203.082031 0.636719 L 203.082031 203.210938 L 0.507812 203.210938 Z M 0.507812 0.636719 " fill-opacity="1" fill-rule="nonzero"/></g></g></g></g></g></g></g></g></g><g clip-path="url(#bc242f58ad)"><path fill="#ffffff" d="M 274.460938 58.289062 C 216.203125 58.289062 168.875 105.617188 168.875 163.875 C 168.875 222.128906 216.203125 269.460938 274.460938 269.460938 C 332.714844 269.460938 380.046875 222.128906 380.046875 163.875 C 380.046875 105.617188 332.714844 58.289062 274.460938 58.289062 Z M 251.4375 70.660156 C 245.5625 76.113281 240.453125 83.5 236.214844 92.183594 C 233.191406 98.386719 230.566406 105.378906 228.417969 112.878906 C 215.890625 110.945312 207.03125 108.078125 199.246094 104.179688 C 212.246094 87.808594 230.484375 75.8125 251.4375 70.660156 Z M 297.480469 70.660156 C 318.4375 75.8125 336.671875 87.808594 349.675781 104.179688 C 341.886719 108.078125 333.027344 110.945312 320.503906 112.878906 C 318.351562 105.378906 315.730469 98.386719 312.703125 92.183594 C 308.46875 83.5 303.355469 76.113281 297.480469 70.660156 Z M 269.660156 70.960938 L 269.660156 115.730469 C 257.25 115.5 246.742188 115.054688 238.015625 114.15625 C 239.945312 107.644531 242.265625 101.65625 244.839844 96.382812 C 251.851562 82.007812 260.679688 73.289062 269.660156 70.960938 Z M 279.257812 70.960938 C 288.242188 73.289062 297.070312 82.007812 304.082031 96.382812 C 306.652344 101.65625 308.976562 107.644531 310.90625 114.15625 C 302.179688 115.054688 291.671875 115.5 279.257812 115.730469 Z M 193.621094 112.128906 C 202.4375 116.691406 212.425781 119.984375 226.089844 122.179688 C 223.5625 133.570312 222.039062 145.976562 221.742188 159.074219 L 178.546875 159.074219 C 179.394531 141.816406 184.851562 125.808594 193.621094 112.128906 Z M 355.300781 112.128906 C 364.070312 125.808594 369.523438 141.816406 370.371094 159.074219 L 327.179688 159.074219 C 326.878906 145.976562 325.359375 133.570312 322.828125 122.179688 C 336.496094 119.984375 346.480469 116.691406 355.300781 112.128906 Z M 235.613281 123.453125 C 245.101562 124.507812 256.359375 125.160156 269.660156 125.402344 L 269.660156 159.074219 L 231.339844 159.074219 C 231.648438 146.347656 233.140625 134.339844 235.613281 123.453125 Z M 313.304688 123.453125 C 315.777344 134.339844 317.269531 146.347656 317.578125 159.074219 L 279.257812 159.074219 L 279.257812 125.402344 C 292.558594 125.160156 303.820312 124.507812 313.304688 123.453125 Z M 178.546875 168.671875 L 221.742188 168.671875 C 222.039062 181.753906 223.566406 194.203125 226.089844 205.566406 C 212.421875 207.746094 202.4375 211.058594 193.621094 215.617188 C 184.851562 201.9375 179.394531 185.933594 178.546875 168.671875 Z M 231.339844 168.671875 L 269.660156 168.671875 L 269.660156 202.34375 C 256.398438 202.585938 245.15625 203.253906 235.691406 204.292969 C 233.214844 193.421875 231.648438 181.398438 231.339844 168.671875 Z M 279.257812 168.671875 L 317.578125 168.671875 C 317.269531 181.398438 315.707031 193.421875 313.230469 204.292969 C 303.761719 203.253906 292.523438 202.585938 279.257812 202.34375 Z M 327.179688 168.671875 L 370.371094 168.671875 C 369.523438 185.933594 364.070312 201.9375 355.300781 215.617188 C 346.480469 211.058594 336.496094 207.746094 322.828125 205.566406 C 325.355469 194.203125 326.878906 181.753906 327.179688 168.671875 Z M 269.660156 212.015625 L 269.660156 256.859375 C 260.679688 254.519531 251.851562 245.664062 244.839844 231.289062 C 242.277344 226.039062 240.011719 220.128906 238.089844 213.667969 C 246.800781 212.78125 257.285156 212.242188 269.660156 212.015625 Z M 279.257812 212.015625 C 291.632812 212.242188 302.121094 212.78125 310.832031 213.667969 C 308.90625 220.128906 306.640625 226.039062 304.082031 231.289062 C 297.070312 245.664062 288.242188 254.519531 279.257812 256.859375 Z M 228.417969 214.867188 C 230.570312 222.367188 233.1875 229.28125 236.214844 235.488281 C 240.453125 244.171875 245.5625 251.617188 251.4375 257.085938 C 230.484375 251.933594 212.246094 239.9375 199.246094 223.566406 C 207.03125 219.675781 215.890625 216.785156 228.417969 214.867188 Z M 320.503906 214.867188 C 333.027344 216.785156 341.886719 219.675781 349.675781 223.566406 C 336.671875 239.9375 318.4375 251.933594 297.480469 257.085938 C 303.355469 251.617188 308.46875 244.171875 312.703125 235.488281 C 315.734375 229.28125 318.351562 222.367188 320.503906 214.867188 Z M 320.503906 214.867188 " fill-opacity="1" fill-rule="nonzero"/></g></g></g></svg>