<svg xmlns="http://www.w3.org/2000/svg" xmlns:xlink="http://www.w3.org/1999/xlink" width="756" zoomAndPan="magnify" viewBox="0 0 567 368.250002" height="491" preserveAspectRatio="xMidYMid meet" version="1.0"><defs><filter x="0%" y="0%" width="100%" height="100%" id="dcfe90f93f"><feColorMatrix values="0 0 0 0 1 0 0 0 0 1 0 0 0 0 1 0 0 0 1 0" color-interpolation-filters="sRGB"/></filter><g/><clipPath id="08aff7b12a"><path d="M 0.578125 0 L 566.421875 0 L 566.421875 357 L 0.578125 357 Z M 0.578125 0 " clip-rule="nonzero"/></clipPath><clipPath id="3046284994"><path d="M 74 107.148438 L 492.921875 107.148438 L 492.921875 356.398438 L 74 356.398438 Z M 74 107.148438 " clip-rule="nonzero"/></clipPath><mask id="1e2f4ce224"><g filter="url(#dcfe90f93f)"><rect x="-124.74" width="816.48" fill="#000000" y="-81.015001" height="530.280004" fill-opacity="0.7"/></g></mask><clipPath id="13a8600a78"><path d="M 0.222656 0.625 L 155.210938 0.625 L 155.210938 155.613281 L 0.222656 155.613281 Z M 0.222656 0.625 " clip-rule="nonzero"/></clipPath><clipPath id="88ec5185b2"><path d="M 77.71875 0.625 C 34.917969 0.625 0.222656 35.320312 0.222656 78.117188 C 0.222656 120.917969 34.917969 155.613281 77.71875 155.613281 C 120.515625 155.613281 155.210938 120.917969 155.210938 78.117188 C 155.210938 35.320312 120.515625 0.625 77.71875 0.625 Z M 77.71875 0.625 " clip-rule="nonzero"/></clipPath><clipPath id="cd4610707e"><path d="M 0.222656 0.625 L 155.210938 0.625 L 155.210938 155.613281 L 0.222656 155.613281 Z M 0.222656 0.625 " clip-rule="nonzero"/></clipPath><clipPath id="6d8b13562d"><path d="M 77.71875 0.625 C 34.917969 0.625 0.222656 35.320312 0.222656 78.117188 C 0.222656 120.917969 34.917969 155.613281 77.71875 155.613281 C 120.515625 155.613281 155.210938 120.917969 155.210938 78.117188 C 155.210938 35.320312 120.515625 0.625 77.71875 0.625 Z M 77.71875 0.625 " clip-rule="nonzero"/></clipPath><clipPath id="4b6a95264e"><rect x="0" width="156" y="0" height="156"/></clipPath><clipPath id="1d4489b884"><rect x="0" width="156" y="0" height="156"/></clipPath><clipPath id="f59e31d22f"><path d="M 202.679688 151.0625 L 364.105469 151.0625 L 364.105469 312.488281 L 202.679688 312.488281 Z M 202.679688 151.0625 " clip-rule="nonzero"/></clipPath><clipPath id="495f390ab9"><path d="M 0.578125 0 L 566.421875 0 L 566.421875 213 L 0.578125 213 Z M 0.578125 0 " clip-rule="nonzero"/></clipPath><clipPath id="f0a8dbfcaf"><rect x="0" width="567" y="0" height="213"/></clipPath><clipPath id="02420b633c"><rect x="0" width="567" y="0" height="357"/></clipPath></defs><g clip-path="url(#08aff7b12a)"><g transform="matrix(1, 0, 0, 1, 0, 0.000000000000071851)"><g clip-path="url(#02420b633c)"><g clip-path="url(#3046284994)"><path fill="#020047" d="M 283.464844 107.148438 C 227.363281 107.148438 179.917969 144.203125 164.269531 195.171875 C 145.183594 257.34375 183.152344 290.578125 226.871094 305.460938 C 193.304688 280.265625 181.757812 235.414062 197.347656 196.941406 C 212.464844 159.636719 247.742188 138.109375 287.300781 139.128906 C 341.070312 140.566406 394.882812 171.496094 450.496094 231.8125 C 436.863281 246.597656 423.339844 259.597656 409.894531 270.851562 C 401.089844 299.402344 383.175781 323.3125 359.921875 339.773438 C 404.21875 320.488281 448.511719 284.503906 492.808594 231.8125 C 423.027344 148.800781 353.242188 107.1875 283.464844 107.148438 M 283.464844 157.976562 C 286.523438 157.976562 289.542969 158.167969 292.503906 158.527344 C 286.808594 166.644531 283.464844 176.535156 283.464844 187.203125 C 283.464844 214.8125 305.847656 237.195312 333.457031 237.195312 C 342.085938 237.195312 350.207031 235.011719 357.292969 231.160156 L 357.300781 231.8125 C 357.300781 272.589844 324.242188 305.648438 283.464844 305.648438 C 242.683594 305.648438 209.628906 272.589844 209.628906 231.8125 C 209.628906 191.035156 242.683594 157.976562 283.464844 157.976562 Z M 74.117188 231.8125 C 143.898438 315.023438 213.683594 356.535156 283.464844 356.476562 C 339.5625 356.476562 387.007812 319.421875 402.65625 268.453125 C 421.742188 206.28125 383.769531 173.046875 340.058594 158.164062 C 373.621094 183.363281 385.167969 228.210938 369.578125 266.6875 C 354.941406 302.804688 320.667969 324.8125 282.148438 324.546875 C 227.515625 324.109375 172.867188 293.21875 116.386719 231.8125 C 130.046875 216.960938 143.601562 203.914062 157.074219 192.632812 C 165.941406 163.996094 183.972656 140.042969 207.359375 123.601562 C 162.945312 142.816406 118.53125 178.851562 74.117188 231.8125 Z M 74.117188 231.8125 " fill-opacity="1" fill-rule="evenodd"/></g><g mask="url(#1e2f4ce224)"><g transform="matrix(1, 0, 0, 1, 206, 153)"><g clip-path="url(#1d4489b884)"><g clip-path="url(#13a8600a78)"><g clip-path="url(#88ec5185b2)"><g transform="matrix(1, 0, 0, 1, 0, 0.000000000000085265)"><g clip-path="url(#4b6a95264e)"><g clip-path="url(#cd4610707e)"><g clip-path="url(#6d8b13562d)"><path fill="#ace5e9" d="M 0.222656 0.625 L 155.210938 0.625 L 155.210938 155.613281 L 0.222656 155.613281 Z M 0.222656 0.625 " fill-opacity="1" fill-rule="nonzero"/></g></g></g></g></g></g></g></g></g><g clip-path="url(#f59e31d22f)"><path fill="#ffffff" d="M 283.464844 151.0625 C 238.890625 151.0625 202.679688 187.277344 202.679688 231.847656 C 202.679688 276.421875 238.890625 312.632812 283.464844 312.632812 C 328.035156 312.632812 364.25 276.421875 364.25 231.847656 C 364.25 187.277344 328.035156 151.0625 283.464844 151.0625 Z M 265.847656 160.53125 C 261.355469 164.703125 257.441406 170.351562 254.203125 176.996094 C 251.886719 181.742188 249.878906 187.09375 248.234375 192.832031 C 238.652344 191.351562 231.875 189.160156 225.914062 186.175781 C 235.863281 173.652344 249.816406 164.472656 265.847656 160.53125 Z M 301.078125 160.53125 C 317.109375 164.472656 331.0625 173.652344 341.011719 186.175781 C 335.054688 189.160156 328.273438 191.351562 318.691406 192.832031 C 317.046875 187.09375 315.039062 181.742188 312.726562 176.996094 C 309.484375 170.351562 305.570312 164.703125 301.078125 160.53125 Z M 279.792969 160.761719 L 279.792969 195.011719 C 270.296875 194.839844 262.253906 194.496094 255.578125 193.808594 C 257.054688 188.828125 258.832031 184.246094 260.800781 180.210938 C 266.164062 169.210938 272.917969 162.539062 279.792969 160.761719 Z M 287.136719 160.761719 C 294.007812 162.539062 300.761719 169.210938 306.125 180.210938 C 308.09375 184.246094 309.871094 188.828125 311.347656 193.808594 C 304.671875 194.496094 296.632812 194.839844 287.136719 195.011719 Z M 221.613281 192.257812 C 228.359375 195.75 236 198.265625 246.457031 199.949219 C 244.519531 208.664062 243.355469 218.15625 243.128906 228.175781 L 210.078125 228.175781 C 210.726562 214.972656 214.902344 202.722656 221.613281 192.257812 Z M 345.3125 192.257812 C 352.023438 202.722656 356.199219 214.972656 356.847656 228.175781 L 323.796875 228.175781 C 323.570312 218.15625 322.40625 208.664062 320.472656 199.949219 C 330.925781 198.265625 338.570312 195.75 345.3125 192.257812 Z M 253.742188 200.921875 C 261 201.730469 269.617188 202.226562 279.792969 202.414062 L 279.792969 228.175781 L 250.472656 228.175781 C 250.707031 218.441406 251.851562 209.25 253.742188 200.921875 Z M 313.183594 200.921875 C 315.078125 209.25 316.21875 218.441406 316.453125 228.175781 L 287.136719 228.175781 L 287.136719 202.414062 C 297.3125 202.226562 305.925781 201.730469 313.183594 200.921875 Z M 210.078125 235.519531 L 243.128906 235.519531 C 243.355469 245.527344 244.523438 255.054688 246.457031 263.75 C 236 265.414062 228.359375 267.949219 221.613281 271.4375 C 214.902344 260.972656 210.726562 248.726562 210.078125 235.519531 Z M 250.472656 235.519531 L 279.792969 235.519531 L 279.792969 261.28125 C 269.644531 261.46875 261.042969 261.980469 253.800781 262.773438 C 251.90625 254.457031 250.707031 245.257812 250.472656 235.519531 Z M 287.136719 235.519531 L 316.453125 235.519531 C 316.21875 245.257812 315.019531 254.457031 313.125 262.773438 C 305.882812 261.980469 297.285156 261.46875 287.136719 261.28125 Z M 323.796875 235.519531 L 356.847656 235.519531 C 356.199219 248.726562 352.023438 260.972656 345.3125 271.4375 C 338.566406 267.949219 330.929688 265.414062 320.472656 263.75 C 322.402344 255.054688 323.570312 245.527344 323.796875 235.519531 Z M 279.792969 268.683594 L 279.792969 302.996094 C 272.917969 301.203125 266.164062 294.425781 260.800781 283.429688 C 258.839844 279.414062 257.109375 274.890625 255.636719 269.945312 C 262.300781 269.269531 270.324219 268.855469 279.792969 268.683594 Z M 287.136719 268.683594 C 296.605469 268.855469 304.625 269.269531 311.289062 269.945312 C 309.820312 274.890625 308.085938 279.414062 306.125 283.429688 C 300.761719 294.425781 294.007812 301.203125 287.136719 302.996094 Z M 248.234375 270.863281 C 249.882812 276.601562 251.882812 281.890625 254.203125 286.640625 C 257.441406 293.285156 261.355469 298.980469 265.847656 303.167969 C 249.816406 299.222656 235.863281 290.046875 225.914062 277.519531 C 231.875 274.542969 238.652344 272.332031 248.234375 270.863281 Z M 318.691406 270.863281 C 328.273438 272.332031 335.054688 274.542969 341.011719 277.519531 C 331.0625 290.046875 317.109375 299.222656 301.078125 303.167969 C 305.570312 298.980469 309.484375 293.285156 312.726562 286.640625 C 315.042969 281.890625 317.046875 276.601562 318.691406 270.863281 Z M 318.691406 270.863281 " fill-opacity="1" fill-rule="nonzero"/></g><g clip-path="url(#495f390ab9)"><g transform="matrix(1, 0, 0, 1, 0, 0.000000000000071851)"><g clip-path="url(#f0a8dbfcaf)"><g fill="#001a4c" fill-opacity="1"><g transform="translate(57.594044, 201.0224)"><g><path d="M 0.1875 -88.601562 L -6.132812 -80.535156 L 25.117188 -56.039062 C 27.683594 -54.023438 27.769531 -51.546875 25.472656 -48.621094 L 21.117188 -43.0625 C 18.777344 -40.074219 16.351562 -39.566406 13.78125 -41.578125 L -5.84375 -57.15625 C -12.609375 -62.554688 -21.964844 -60.339844 -27.210938 -53.648438 L -31.613281 -48.03125 C -36.90625 -41.277344 -36.742188 -31.886719 -29.871094 -26.503906 L 1.4375 -1.957031 L 7.808594 -10.085938 L -23.5 -34.628906 C -26.070312 -36.640625 -26.261719 -39.105469 -23.964844 -42.035156 L -19.5625 -47.652344 C -17.269531 -50.578125 -14.78125 -51.042969 -12.214844 -49.027344 L 7.503906 -33.570312 C 14.019531 -28.46875 23.3125 -29.863281 28.886719 -36.972656 L 33.242188 -42.53125 C 38.535156 -49.28125 38.191406 -58.8125 31.4375 -64.105469 Z M 0.1875 -88.601562 "/></g></g></g><g fill="#001a4c" fill-opacity="1"><g transform="translate(102.577063, 143.322579)"><g><path d="M 48.773438 -47.8125 L 10.042969 -19.613281 C 7.035156 -17.425781 4.5625 -17.597656 2.640625 -20.234375 L -1.738281 -26.25 L 41.53125 -57.753906 L 35.632812 -65.859375 L -7.636719 -34.351562 L -12.105469 -40.492188 C -13.671875 -42.636719 -12.679688 -46.179688 -10.46875 -47.785156 L 28.261719 -75.984375 L 22.539062 -83.839844 L -16.1875 -55.644531 C -22.695312 -50.90625 -25.234375 -40.980469 -20.453125 -34.414062 L -5.707031 -14.160156 C -0.613281 -7.160156 8.730469 -6.453125 15.851562 -11.636719 L 54.582031 -39.832031 Z M 48.773438 -47.8125 "/></g></g></g><g fill="#001a4c" fill-opacity="1"><g transform="translate(159.069849, 101.753694)"><g><path d="M 43.605469 -74.59375 L -15.675781 -52.34375 L -12.257812 -43.246094 L 12.476562 -52.53125 L 28.191406 -10.664062 L 37.714844 -14.238281 L 22 -56.105469 L 47.019531 -65.496094 Z M 43.605469 -74.59375 "/></g></g></g><g fill="#79a9bb" fill-opacity="1"><g transform="translate(224.302595, 77.021898)"><g><path d="M 50.859375 -59.507812 L 44.714844 -20.882812 C 43.996094 -16.316406 41.859375 -13.90625 38.382812 -13.578125 L 27.570312 -12.570312 C 24.171875 -12.25 21.695312 -14.230469 20.144531 -18.585938 L 6.867188 -55.390625 L -4.019531 -54.375 L 9.808594 -15.785156 C 13.214844 -6.269531 18.890625 -1.84375 26.980469 -2.601562 L 40.8125 -3.894531 C 48.902344 -4.652344 53.582031 -10.046875 55.238281 -20.039062 L 61.820312 -60.535156 Z M 50.859375 -59.507812 "/></g></g></g><g fill="#79a9bb" fill-opacity="1"><g transform="translate(293.881482, 72.636434)"><g><path d="M 18.410156 -53.195312 L 8.117188 -54.03125 L 3.714844 0.226562 L 14.003906 1.0625 Z M 18.410156 -53.195312 "/></g></g></g><g fill="#79a9bb" fill-opacity="1"><g transform="translate(314.014931, 71.831925)"><g><path d="M 79.847656 -35.125 L 33.046875 -47.605469 C 25.269531 -49.679688 15.957031 -45.402344 13.863281 -37.554688 L 13.160156 -34.914062 C 10.910156 -26.476562 16.300781 -18.988281 24.808594 -16.722656 L 56.042969 -8.3125 C 59.636719 -7.355469 61.058594 -5.324219 60.21875 -2.171875 L 59.492188 0.542969 C 58.789062 3.183594 55.414062 4.640625 52.773438 3.9375 L 5.972656 -8.542969 L 3.46875 0.847656 L 50.269531 13.328125 C 57.972656 15.382812 67.246094 11.253906 69.398438 3.183594 L 70.121094 0.46875 C 72.332031 -7.820312 66.980469 -15.453125 58.546875 -17.703125 L 27.3125 -26.109375 C 23.71875 -27.070312 22.296875 -29.097656 23.136719 -32.253906 L 23.839844 -34.894531 C 24.527344 -37.460938 27.902344 -38.917969 30.542969 -38.214844 L 77.34375 -25.734375 Z M 79.847656 -35.125 "/></g></g></g><g fill="#79a9bb" fill-opacity="1"><g transform="translate(383.536552, 92.753673)"><g><path d="M 35.9375 -43.328125 L 26.59375 -47.730469 L 3.398438 1.515625 L 12.738281 5.917969 Z M 35.9375 -43.328125 "/></g></g></g><g fill="#79a9bb" fill-opacity="1"><g transform="translate(402.667023, 98.880347)"><g><path d="M 79.972656 8.472656 C 84.722656 1.882812 82.066406 -8.074219 75.660156 -12.691406 L 47.8125 -32.746094 C 41.28125 -37.449219 31.058594 -36.761719 26.3125 -30.171875 L 11.671875 -9.839844 C 6.613281 -2.816406 8.855469 6.28125 16 11.429688 L 43.847656 31.484375 C 50.808594 36.496094 60.320312 35.765625 65.332031 28.804688 Z M 57.015625 22.816406 C 55.105469 25.464844 52.636719 25.648438 49.617188 23.472656 L 21.769531 3.421875 C 18.75 1.246094 18.140625 -1.15625 20.050781 -3.804688 L 34.691406 -24.136719 C 36.242188 -26.292969 39.914062 -26.457031 42.132812 -24.859375 L 69.980469 -4.804688 C 72.199219 -3.207031 73.210938 0.328125 71.65625 2.484375 Z M 57.015625 22.816406 "/></g></g></g><g fill="#79a9bb" fill-opacity="1"><g transform="translate(462.052249, 141.091309)"><g><path d="M 85.992188 21.34375 L 79.671875 13.277344 L 48.417969 37.773438 C 45.851562 39.785156 43.425781 39.277344 41.128906 36.347656 L 36.773438 30.792969 C 34.429688 27.804688 34.515625 25.328125 37.085938 23.3125 L 56.898438 7.976562 C 63.753906 2.695312 63.839844 -6.921875 58.59375 -13.613281 L 54.191406 -19.230469 C 48.898438 -25.980469 39.742188 -28.0625 32.867188 -22.679688 L 1.558594 1.867188 L 7.929688 9.992188 L 39.238281 -14.550781 C 41.808594 -16.566406 44.246094 -16.160156 46.542969 -13.234375 L 50.945312 -7.617188 C 53.238281 -4.691406 53.097656 -2.164062 50.527344 -0.152344 L 30.808594 15.304688 C 24.296875 20.410156 23.433594 29.769531 29.003906 36.878906 L 33.363281 42.4375 C 38.65625 49.1875 47.992188 51.132812 54.742188 45.839844 Z M 85.992188 21.34375 "/></g></g></g></g></g></g></g></g></g></svg>