<svg xmlns="http://www.w3.org/2000/svg" xmlns:xlink="http://www.w3.org/1999/xlink" width="756" zoomAndPan="magnify" viewBox="0 0 567 368.250002" height="491" preserveAspectRatio="xMidYMid meet" version="1.0"><defs><filter x="0%" y="0%" width="100%" height="100%" id="d38b40b970"><feColorMatrix values="0 0 0 0 1 0 0 0 0 1 0 0 0 0 1 0 0 0 1 0" color-interpolation-filters="sRGB"/></filter><g/><clipPath id="ef4ca1edfc"><path d="M 0.578125 3 L 566.421875 3 L 566.421875 363 L 0.578125 363 Z M 0.578125 3 " clip-rule="nonzero"/></clipPath><clipPath id="480f5539c2"><path d="M 74 109.75 L 492.917969 109.75 L 492.917969 358.996094 L 74 358.996094 Z M 74 109.75 " clip-rule="nonzero"/></clipPath><mask id="27b5389058"><g filter="url(#d38b40b970)"><rect x="-124.74" width="816.48" fill="#000000" y="-84.015001" height="530.280004" fill-opacity="0.7"/></g></mask><clipPath id="a71b21d886"><path d="M 0.226562 0.226562 L 155.210938 0.226562 L 155.210938 155.214844 L 0.226562 155.214844 Z M 0.226562 0.226562 " clip-rule="nonzero"/></clipPath><clipPath id="08b81ec5b0"><path d="M 77.71875 0.226562 C 34.917969 0.226562 0.226562 34.921875 0.226562 77.71875 C 0.226562 120.519531 34.917969 155.214844 77.71875 155.214844 C 120.515625 155.214844 155.210938 120.519531 155.210938 77.71875 C 155.210938 34.921875 120.515625 0.226562 77.71875 0.226562 Z M 77.71875 0.226562 " clip-rule="nonzero"/></clipPath><clipPath id="3e14cc025e"><path d="M 0.226562 0.226562 L 155.210938 0.226562 L 155.210938 155.214844 L 0.226562 155.214844 Z M 0.226562 0.226562 " clip-rule="nonzero"/></clipPath><clipPath id="b9a6dbfb14"><path d="M 77.71875 0.226562 C 34.917969 0.226562 0.226562 34.921875 0.226562 77.71875 C 0.226562 120.519531 34.917969 155.214844 77.71875 155.214844 C 120.515625 155.214844 155.210938 120.519531 155.210938 77.71875 C 155.210938 34.921875 120.515625 0.226562 77.71875 0.226562 Z M 77.71875 0.226562 " clip-rule="nonzero"/></clipPath><clipPath id="a196de41b3"><rect x="0" width="156" y="0" height="156"/></clipPath><clipPath id="8e8a365253"><rect x="0" width="156" y="0" height="156"/></clipPath><clipPath id="2a7aedc427"><path d="M 202.679688 153.664062 L 364.105469 153.664062 L 364.105469 315.089844 L 202.679688 315.089844 Z M 202.679688 153.664062 " clip-rule="nonzero"/></clipPath><clipPath id="8dd165d73f"><path d="M 0.578125 0.113281 L 566.421875 0.113281 L 566.421875 215 L 0.578125 215 Z M 0.578125 0.113281 " clip-rule="nonzero"/></clipPath><clipPath id="11fe8d75c8"><rect x="0" width="567" y="0" height="215"/></clipPath><clipPath id="68a18b30f2"><rect x="0" width="567" y="0" height="360"/></clipPath></defs><g clip-path="url(#ef4ca1edfc)"><g transform="matrix(1, 0, 0, 1, 0, 3)"><g clip-path="url(#68a18b30f2)"><g clip-path="url(#480f5539c2)"><path fill="#ffffff" d="M 283.464844 109.75 C 227.363281 109.75 179.917969 146.804688 164.269531 197.777344 C 145.183594 259.945312 183.15625 293.179688 226.871094 308.0625 C 193.304688 282.863281 181.757812 238.015625 197.351562 199.542969 C 212.464844 162.242188 247.742188 140.710938 287.300781 141.730469 C 341.066406 143.171875 394.882812 174.097656 450.492188 234.414062 C 436.859375 249.199219 423.335938 262.199219 409.894531 273.453125 C 401.089844 302.003906 383.175781 325.914062 359.921875 342.375 C 404.214844 323.085938 448.511719 287.105469 492.804688 234.414062 C 423.023438 151.402344 353.242188 109.792969 283.464844 109.75 M 283.464844 160.578125 C 286.523438 160.578125 289.542969 160.769531 292.503906 161.128906 C 286.808594 169.25 283.464844 179.136719 283.464844 189.804688 C 283.464844 217.414062 305.847656 239.796875 333.457031 239.796875 C 342.085938 239.796875 350.207031 237.609375 357.289062 233.761719 L 357.296875 234.414062 C 357.296875 275.191406 324.242188 308.25 283.464844 308.25 C 242.683594 308.25 209.628906 275.191406 209.628906 234.414062 C 209.628906 193.636719 242.683594 160.578125 283.464844 160.578125 Z M 74.117188 234.414062 C 143.898438 317.625 213.683594 359.132812 283.464844 359.078125 C 339.5625 359.078125 387.007812 322.023438 402.65625 271.054688 C 421.742188 208.882812 383.769531 175.648438 340.054688 160.765625 C 373.621094 185.964844 385.167969 230.8125 369.578125 269.285156 C 354.941406 305.40625 320.667969 327.410156 282.148438 327.148438 C 227.515625 326.707031 172.871094 295.816406 116.386719 234.414062 C 130.050781 219.5625 143.601562 206.515625 157.074219 195.234375 C 165.941406 166.597656 183.972656 142.644531 207.359375 126.207031 C 162.949219 145.417969 118.53125 181.453125 74.117188 234.414062 Z M 74.117188 234.414062 " fill-opacity="1" fill-rule="evenodd"/></g><g mask="url(#27b5389058)"><g transform="matrix(1, 0, 0, 1, 206, 156)"><g clip-path="url(#8e8a365253)"><g clip-path="url(#a71b21d886)"><g clip-path="url(#08b81ec5b0)"><g transform="matrix(1, 0, 0, 1, 0, 0.000000000000056843)"><g clip-path="url(#a196de41b3)"><g clip-path="url(#3e14cc025e)"><g clip-path="url(#b9a6dbfb14)"><path fill="#ace5e9" d="M 0.226562 0.226562 L 155.210938 0.226562 L 155.210938 155.214844 L 0.226562 155.214844 Z M 0.226562 0.226562 " fill-opacity="1" fill-rule="nonzero"/></g></g></g></g></g></g></g></g></g><g clip-path="url(#2a7aedc427)"><path fill="#020047" d="M 283.464844 153.664062 C 238.890625 153.664062 202.679688 189.878906 202.679688 234.449219 C 202.679688 279.023438 238.890625 315.234375 283.464844 315.234375 C 328.035156 315.234375 364.246094 279.023438 364.246094 234.449219 C 364.246094 189.878906 328.035156 153.664062 283.464844 153.664062 Z M 265.847656 163.132812 C 261.355469 167.304688 257.441406 172.957031 254.203125 179.597656 C 251.886719 184.34375 249.882812 189.695312 248.234375 195.433594 C 238.652344 193.953125 231.875 191.761719 225.917969 188.78125 C 235.863281 176.253906 249.816406 167.074219 265.847656 163.132812 Z M 301.078125 163.132812 C 317.109375 167.074219 331.0625 176.253906 341.011719 188.78125 C 335.050781 191.761719 328.273438 193.953125 318.691406 195.433594 C 317.046875 189.695312 315.039062 184.34375 312.722656 179.597656 C 309.484375 172.957031 305.570312 167.304688 301.078125 163.132812 Z M 279.792969 163.363281 L 279.792969 197.613281 C 270.296875 197.441406 262.253906 197.097656 255.578125 196.410156 C 257.054688 191.429688 258.832031 186.847656 260.800781 182.8125 C 266.164062 171.816406 272.917969 165.140625 279.792969 163.363281 Z M 287.136719 163.363281 C 294.007812 165.140625 300.761719 171.816406 306.125 182.8125 C 308.09375 186.847656 309.871094 191.429688 311.347656 196.410156 C 304.671875 197.097656 296.632812 197.441406 287.136719 197.613281 Z M 221.613281 194.859375 C 228.359375 198.351562 236 200.871094 246.457031 202.550781 C 244.519531 211.265625 243.355469 220.757812 243.128906 230.777344 L 210.082031 230.777344 C 210.730469 217.574219 214.902344 205.328125 221.613281 194.859375 Z M 345.3125 194.859375 C 352.023438 205.328125 356.199219 217.574219 356.847656 230.777344 L 323.796875 230.777344 C 323.570312 220.757812 322.40625 211.265625 320.46875 202.550781 C 330.925781 200.871094 338.566406 198.351562 345.3125 194.859375 Z M 253.742188 203.523438 C 261 204.332031 269.617188 204.828125 279.792969 205.015625 L 279.792969 230.777344 L 250.472656 230.777344 C 250.707031 221.042969 251.851562 211.851562 253.742188 203.523438 Z M 313.183594 203.523438 C 315.078125 211.851562 316.21875 221.042969 316.453125 230.777344 L 287.136719 230.777344 L 287.136719 205.015625 C 297.3125 204.828125 305.925781 204.332031 313.183594 203.523438 Z M 210.082031 238.121094 L 243.128906 238.121094 C 243.355469 248.128906 244.523438 257.65625 246.457031 266.351562 C 236 268.015625 228.359375 270.550781 221.613281 274.039062 C 214.902344 263.574219 210.730469 251.328125 210.082031 238.121094 Z M 250.472656 238.121094 L 279.792969 238.121094 L 279.792969 263.882812 C 269.644531 264.066406 261.042969 264.578125 253.800781 265.375 C 251.90625 257.058594 250.707031 247.859375 250.472656 238.121094 Z M 287.136719 238.121094 L 316.453125 238.121094 C 316.21875 247.859375 315.019531 257.058594 313.125 265.375 C 305.882812 264.578125 297.28125 264.066406 287.136719 263.882812 Z M 323.796875 238.121094 L 356.847656 238.121094 C 356.199219 251.328125 352.023438 263.574219 345.3125 274.039062 C 338.566406 270.550781 330.925781 268.015625 320.46875 266.351562 C 322.402344 257.65625 323.570312 248.128906 323.796875 238.121094 Z M 279.792969 271.285156 L 279.792969 305.59375 C 272.917969 303.800781 266.164062 297.027344 260.800781 286.03125 C 258.839844 282.011719 257.109375 277.492188 255.636719 272.546875 C 262.300781 271.867188 270.324219 271.457031 279.792969 271.285156 Z M 287.136719 271.285156 C 296.605469 271.457031 304.625 271.867188 311.289062 272.546875 C 309.820312 277.492188 308.085938 282.011719 306.125 286.03125 C 300.761719 297.027344 294.007812 303.800781 287.136719 305.59375 Z M 248.234375 273.464844 C 249.882812 279.203125 251.886719 284.492188 254.203125 289.242188 C 257.441406 295.886719 261.355469 301.582031 265.847656 305.765625 C 249.816406 301.824219 235.863281 292.648438 225.917969 280.121094 C 231.875 277.144531 238.652344 274.929688 248.234375 273.464844 Z M 318.691406 273.464844 C 328.273438 274.929688 335.050781 277.144531 341.011719 280.121094 C 331.0625 292.648438 317.109375 301.824219 301.078125 305.765625 C 305.570312 301.582031 309.484375 295.886719 312.722656 289.242188 C 315.042969 284.492188 317.042969 279.203125 318.691406 273.464844 Z M 318.691406 273.464844 " fill-opacity="1" fill-rule="nonzero"/></g><g clip-path="url(#8dd165d73f)"><g transform="matrix(1, 0, 0, 1, 0, 0.000000000000071942)"><g clip-path="url(#11fe8d75c8)"><g fill="#ffffff" fill-opacity="1"><g transform="translate(58.098538, 203.806035)"><g><path d="M 0.183594 -88.601562 L -6.140625 -80.535156 L 25.113281 -56.042969 C 27.679688 -54.027344 27.765625 -51.550781 25.472656 -48.621094 L 21.113281 -43.066406 C 18.773438 -40.078125 16.347656 -39.566406 13.777344 -41.582031 L -5.847656 -57.15625 C -12.613281 -62.554688 -21.96875 -60.339844 -27.214844 -53.644531 L -31.617188 -48.027344 C -36.910156 -41.277344 -36.746094 -31.886719 -29.875 -26.5 L 1.4375 -1.960938 L 7.808594 -10.085938 L -23.503906 -34.625 C -26.074219 -36.640625 -26.265625 -39.105469 -23.96875 -42.035156 L -19.566406 -47.652344 C -17.273438 -50.578125 -14.785156 -51.042969 -12.21875 -49.027344 L 7.503906 -33.574219 C 14.015625 -28.46875 23.308594 -29.867188 28.882812 -36.976562 L 33.238281 -42.535156 C 38.53125 -49.285156 38.1875 -58.816406 31.433594 -64.109375 Z M 0.183594 -88.601562 "/></g></g></g><g fill="#ffffff" fill-opacity="1"><g transform="translate(103.027649, 146.150486)"><g><path d="M 48.769531 -47.816406 L 10.042969 -19.617188 C 7.035156 -17.425781 4.5625 -17.597656 2.640625 -20.234375 L -1.738281 -26.25 L 41.53125 -57.757812 L 35.628906 -65.859375 L -7.640625 -34.351562 L -12.109375 -40.488281 C -13.671875 -42.636719 -12.679688 -46.175781 -10.472656 -47.785156 L 28.257812 -75.988281 L 22.535156 -83.84375 L -16.191406 -55.644531 C -22.699219 -50.90625 -25.238281 -40.980469 -20.457031 -34.410156 L -5.707031 -14.15625 C -0.613281 -7.160156 8.730469 -6.453125 15.851562 -11.636719 L 54.578125 -39.835938 Z M 48.769531 -47.816406 "/></g></g></g><g fill="#ffffff" fill-opacity="1"><g transform="translate(159.459219, 104.611695)"><g><path d="M 43.605469 -74.597656 L -15.675781 -52.34375 L -12.261719 -43.246094 L 12.476562 -52.53125 L 28.191406 -10.664062 L 37.714844 -14.238281 L 22 -56.105469 L 47.019531 -65.5 Z M 43.605469 -74.597656 "/></g></g></g><g fill="#ace5e9" fill-opacity="1"><g transform="translate(224.626544, 79.89141)"><g><path d="M 50.859375 -59.507812 L 44.714844 -20.882812 C 43.996094 -16.316406 41.859375 -13.90625 38.382812 -13.582031 L 27.570312 -12.570312 C 24.171875 -12.25 21.699219 -14.230469 20.144531 -18.585938 L 6.867188 -55.394531 L -4.019531 -54.375 L 9.808594 -15.789062 C 13.214844 -6.269531 18.890625 -1.84375 26.980469 -2.601562 L 40.8125 -3.894531 C 48.902344 -4.652344 53.582031 -10.046875 55.238281 -20.039062 L 61.820312 -60.535156 Z M 50.859375 -59.507812 "/></g></g></g><g fill="#ace5e9" fill-opacity="1"><g transform="translate(294.1637, 75.505729)"><g><path d="M 18.410156 -53.199219 L 8.117188 -54.03125 L 3.714844 0.226562 L 14.003906 1.0625 Z M 18.410156 -53.199219 "/></g></g></g><g fill="#ace5e9" fill-opacity="1"><g transform="translate(314.251049, 74.692692)"><g><path d="M 79.851562 -35.121094 L 33.046875 -47.605469 C 25.269531 -49.679688 15.960938 -45.402344 13.867188 -37.554688 L 13.160156 -34.914062 C 10.910156 -26.476562 16.300781 -18.988281 24.808594 -16.71875 L 56.042969 -8.3125 C 59.636719 -7.355469 61.058594 -5.324219 60.21875 -2.171875 L 59.496094 0.542969 C 58.789062 3.183594 55.414062 4.640625 52.773438 3.9375 L 5.972656 -8.542969 L 3.46875 0.847656 L 50.269531 13.328125 C 57.972656 15.382812 67.246094 11.253906 69.398438 3.183594 L 70.121094 0.472656 C 72.332031 -7.816406 66.980469 -15.453125 58.546875 -17.703125 L 27.316406 -26.109375 C 23.71875 -27.070312 22.296875 -29.097656 23.136719 -32.253906 L 23.84375 -34.894531 C 24.527344 -37.460938 27.902344 -38.917969 30.542969 -38.214844 L 77.347656 -25.734375 Z M 79.851562 -35.121094 "/></g></g></g><g fill="#ace5e9" fill-opacity="1"><g transform="translate(383.731702, 95.602173)"><g><path d="M 35.9375 -43.328125 L 26.597656 -47.730469 L 3.398438 1.515625 L 12.738281 5.917969 Z M 35.9375 -43.328125 "/></g></g></g><g fill="#ace5e9" fill-opacity="1"><g transform="translate(402.820894, 101.704024)"><g><path d="M 79.972656 8.476562 C 84.722656 1.886719 82.070312 -8.070312 75.660156 -12.6875 L 47.816406 -32.742188 C 41.285156 -37.445312 31.0625 -36.761719 26.3125 -30.167969 L 11.671875 -9.839844 C 6.613281 -2.816406 8.855469 6.285156 16 11.429688 L 43.847656 31.484375 C 50.808594 36.5 60.316406 35.769531 65.332031 28.808594 Z M 57.015625 22.816406 C 55.105469 25.46875 52.632812 25.652344 49.617188 23.476562 L 21.769531 3.421875 C 18.75 1.246094 18.140625 -1.15625 20.050781 -3.804688 L 34.691406 -24.136719 C 36.246094 -26.292969 39.917969 -26.453125 42.136719 -24.855469 L 69.980469 -4.800781 C 72.199219 -3.203125 73.210938 0.332031 71.65625 2.488281 Z M 57.015625 22.816406 "/></g></g></g><g fill="#ace5e9" fill-opacity="1"><g transform="translate(462.153164, 143.870414)"><g><path d="M 85.992188 21.347656 L 79.667969 13.28125 L 48.417969 37.777344 C 45.847656 39.789062 43.421875 39.28125 41.128906 36.351562 L 36.769531 30.792969 C 34.429688 27.804688 34.515625 25.328125 37.082031 23.316406 L 56.898438 7.980469 C 63.753906 2.699219 63.839844 -6.914062 58.59375 -13.609375 L 54.191406 -19.226562 C 48.898438 -25.976562 39.742188 -28.0625 32.871094 -22.675781 L 1.558594 1.867188 L 7.929688 9.992188 L 39.242188 -14.546875 C 41.808594 -16.5625 44.25 -16.160156 46.542969 -13.230469 L 50.945312 -7.613281 C 53.242188 -4.683594 53.097656 -2.160156 50.527344 -0.148438 L 30.808594 15.308594 C 24.292969 20.414062 23.429688 29.773438 29.003906 36.882812 L 33.359375 42.441406 C 38.652344 49.191406 47.988281 51.136719 54.738281 45.84375 Z M 85.992188 21.347656 "/></g></g></g></g></g></g></g></g></g></svg>