<svg xmlns="http://www.w3.org/2000/svg" xmlns:xlink="http://www.w3.org/1999/xlink" width="756" zoomAndPan="magnify" viewBox="0 0 567 283.499996" height="378" preserveAspectRatio="xMidYMid meet" version="1.0"><defs><clipPath id="c3ccdff838"><path d="M 0.5 0 L 566.5 0 L 566.5 225 L 0.5 225 Z M 0.5 0 " clip-rule="nonzero"/></clipPath><clipPath id="9bdbe0a76c"><path d="M 307 0 L 319 0 L 319 8 L 307 8 Z M 307 0 " clip-rule="nonzero"/></clipPath><clipPath id="aa9c363113"><path d="M 156 0 L 164 0 L 164 5 L 156 5 Z M 156 0 " clip-rule="nonzero"/></clipPath><clipPath id="195c380b26"><path d="M 559 42 L 566.382812 42 L 566.382812 49 L 559 49 Z M 559 42 " clip-rule="nonzero"/></clipPath><clipPath id="f04aab2fe7"><path d="M 429 217 L 436 217 L 436 223.617188 L 429 223.617188 Z M 429 217 " clip-rule="nonzero"/></clipPath><clipPath id="f6032f58c5"><path d="M 0.738281 89 L 8 89 L 8 96 L 0.738281 96 Z M 0.738281 89 " clip-rule="nonzero"/></clipPath><clipPath id="2c54a31226"><path d="M 0.738281 21 L 8 21 L 8 28 L 0.738281 28 Z M 0.738281 21 " clip-rule="nonzero"/></clipPath><clipPath id="a90b7683c1"><path d="M 75 0 L 511 0 L 511 182 L 75 182 Z M 75 0 " clip-rule="nonzero"/></clipPath><clipPath id="f3017db8af"><path d="M 227 0 L 336 0 L 336 21 L 227 21 Z M 227 0 " clip-rule="nonzero"/></clipPath><clipPath id="80ac9d3dd4"><path d="M 360 0 L 367 0 L 367 64 L 360 64 Z M 360 0 " clip-rule="nonzero"/></clipPath><clipPath id="abd6efb9ad"><path d="M 427 0 L 485 0 L 485 5 L 427 5 Z M 427 0 " clip-rule="nonzero"/></clipPath><clipPath id="a66af60fe7"><path d="M 41 0 L 78 0 L 78 22 L 41 22 Z M 41 0 " clip-rule="nonzero"/></clipPath><clipPath id="95c6783878"><path d="M 411 0 L 428 0 L 428 8 L 411 8 Z M 411 0 " clip-rule="nonzero"/></clipPath><clipPath id="712ca5ba84"><rect x="0" width="567" y="0" height="225"/></clipPath></defs><g clip-path="url(#c3ccdff838)"><g transform="matrix(1, 0, 0, 1, 0, 0)"><g clip-path="url(#712ca5ba84)"><path fill="#ffffff" d="M 233.828125 21.570312 C 233.828125 22.117188 233.777344 22.65625 233.671875 23.191406 C 233.5625 23.726562 233.40625 24.246094 233.199219 24.75 C 232.988281 25.253906 232.730469 25.734375 232.429688 26.1875 C 232.125 26.640625 231.78125 27.0625 231.394531 27.445312 C 231.007812 27.832031 230.589844 28.175781 230.136719 28.480469 C 229.683594 28.785156 229.203125 29.039062 228.699219 29.25 C 228.195312 29.457031 227.675781 29.617188 227.140625 29.722656 C 226.605469 29.828125 226.0625 29.882812 225.519531 29.882812 C 224.972656 29.882812 224.433594 29.828125 223.898438 29.722656 C 223.363281 29.617188 222.839844 29.457031 222.335938 29.25 C 221.832031 29.039062 221.355469 28.785156 220.898438 28.480469 C 220.445312 28.175781 220.027344 27.832031 219.640625 27.445312 C 219.253906 27.0625 218.910156 26.640625 218.605469 26.1875 C 218.304688 25.734375 218.046875 25.253906 217.839844 24.75 C 217.628906 24.246094 217.472656 23.726562 217.367188 23.191406 C 217.257812 22.65625 217.207031 22.117188 217.207031 21.570312 C 217.207031 21.023438 217.257812 20.484375 217.367188 19.949219 C 217.472656 19.414062 217.628906 18.894531 217.839844 18.390625 C 218.046875 17.882812 218.304688 17.40625 218.605469 16.953125 C 218.910156 16.5 219.253906 16.078125 219.640625 15.691406 C 220.027344 15.304688 220.445312 14.960938 220.898438 14.660156 C 221.355469 14.355469 221.832031 14.097656 222.335938 13.890625 C 222.839844 13.683594 223.363281 13.523438 223.898438 13.417969 C 224.433594 13.3125 224.972656 13.257812 225.519531 13.257812 C 226.0625 13.257812 226.605469 13.3125 227.140625 13.417969 C 227.675781 13.523438 228.195312 13.683594 228.699219 13.890625 C 229.203125 14.097656 229.683594 14.355469 230.136719 14.660156 C 230.589844 14.960938 231.007812 15.304688 231.394531 15.691406 C 231.78125 16.078125 232.125 16.5 232.429688 16.953125 C 232.730469 17.40625 232.988281 17.882812 233.199219 18.390625 C 233.40625 18.894531 233.5625 19.414062 233.671875 19.949219 C 233.777344 20.484375 233.828125 21.023438 233.828125 21.570312 Z M 233.828125 21.570312 " fill-opacity="1" fill-rule="nonzero"/><path fill="#ffffff" d="M 368.515625 62.914062 C 368.515625 63.457031 368.464844 64 368.355469 64.535156 C 368.25 65.070312 368.09375 65.589844 367.882812 66.09375 C 367.675781 66.597656 367.417969 67.078125 367.117188 67.53125 C 366.8125 67.984375 366.46875 68.40625 366.082031 68.789062 C 365.695312 69.175781 365.277344 69.519531 364.824219 69.824219 C 364.371094 70.128906 363.890625 70.382812 363.386719 70.59375 C 362.882812 70.800781 362.363281 70.957031 361.828125 71.066406 C 361.292969 71.171875 360.75 71.226562 360.207031 71.226562 C 359.660156 71.226562 359.117188 71.171875 358.582031 71.066406 C 358.046875 70.957031 357.527344 70.800781 357.023438 70.59375 C 356.519531 70.382812 356.042969 70.128906 355.585938 69.824219 C 355.132812 69.519531 354.714844 69.175781 354.328125 68.789062 C 353.941406 68.40625 353.597656 67.984375 353.292969 67.53125 C 352.992188 67.078125 352.734375 66.597656 352.527344 66.09375 C 352.316406 65.589844 352.160156 65.070312 352.054688 64.535156 C 351.945312 64 351.894531 63.457031 351.894531 62.914062 C 351.894531 62.367188 351.945312 61.828125 352.054688 61.292969 C 352.160156 60.757812 352.316406 60.238281 352.527344 59.730469 C 352.734375 59.226562 352.992188 58.75 353.292969 58.296875 C 353.597656 57.839844 353.941406 57.421875 354.328125 57.035156 C 354.714844 56.648438 355.132812 56.304688 355.585938 56.003906 C 356.042969 55.699219 356.519531 55.441406 357.023438 55.234375 C 357.527344 55.023438 358.046875 54.867188 358.582031 54.761719 C 359.117188 54.65625 359.660156 54.601562 360.207031 54.601562 C 360.75 54.601562 361.292969 54.65625 361.828125 54.761719 C 362.363281 54.867188 362.882812 55.023438 363.386719 55.234375 C 363.890625 55.441406 364.371094 55.699219 364.824219 56.003906 C 365.277344 56.304688 365.695312 56.648438 366.082031 57.035156 C 366.46875 57.421875 366.8125 57.839844 367.117188 58.296875 C 367.417969 58.75 367.675781 59.226562 367.882812 59.730469 C 368.09375 60.238281 368.25 60.757812 368.355469 61.292969 C 368.464844 61.828125 368.515625 62.367188 368.515625 62.914062 Z M 368.515625 62.914062 " fill-opacity="1" fill-rule="nonzero"/><path fill="#ffffff" d="M 516.84375 29.878906 C 516.84375 30.425781 516.789062 30.96875 516.683594 31.503906 C 516.578125 32.039062 516.417969 32.558594 516.210938 33.0625 C 516 33.566406 515.746094 34.042969 515.441406 34.5 C 515.140625 34.953125 514.792969 35.371094 514.410156 35.757812 C 514.023438 36.144531 513.601562 36.488281 513.148438 36.792969 C 512.695312 37.09375 512.214844 37.351562 511.710938 37.558594 C 511.207031 37.769531 510.6875 37.925781 510.152344 38.03125 C 509.617188 38.140625 509.078125 38.191406 508.53125 38.191406 C 507.984375 38.191406 507.445312 38.140625 506.910156 38.03125 C 506.375 37.925781 505.855469 37.769531 505.351562 37.558594 C 504.847656 37.351562 504.367188 37.09375 503.914062 36.792969 C 503.460938 36.488281 503.039062 36.144531 502.652344 35.757812 C 502.269531 35.371094 501.921875 34.953125 501.621094 34.5 C 501.316406 34.042969 501.0625 33.566406 500.851562 33.0625 C 500.644531 32.558594 500.484375 32.039062 500.378906 31.503906 C 500.273438 30.96875 500.21875 30.425781 500.21875 29.878906 C 500.21875 29.335938 500.273438 28.792969 500.378906 28.257812 C 500.484375 27.722656 500.644531 27.203125 500.851562 26.699219 C 501.0625 26.195312 501.316406 25.714844 501.621094 25.261719 C 501.921875 24.808594 502.269531 24.390625 502.652344 24.003906 C 503.039062 23.617188 503.460938 23.273438 503.914062 22.96875 C 504.367188 22.667969 504.847656 22.410156 505.351562 22.203125 C 505.855469 21.992188 506.375 21.835938 506.910156 21.726562 C 507.445312 21.621094 507.984375 21.570312 508.53125 21.570312 C 509.078125 21.570312 509.617188 21.621094 510.152344 21.726562 C 510.6875 21.835938 511.207031 21.992188 511.710938 22.203125 C 512.214844 22.410156 512.695312 22.667969 513.148438 22.96875 C 513.601562 23.273438 514.023438 23.617188 514.410156 24.003906 C 514.792969 24.390625 515.140625 24.808594 515.441406 25.261719 C 515.746094 25.714844 516 26.195312 516.210938 26.699219 C 516.417969 27.203125 516.578125 27.722656 516.683594 28.257812 C 516.789062 28.792969 516.84375 29.335938 516.84375 29.878906 Z M 516.84375 29.878906 " fill-opacity="1" fill-rule="nonzero"/><path fill="#ffffff" d="M 425.027344 178.632812 C 425.027344 179.179688 424.972656 179.71875 424.867188 180.253906 C 424.757812 180.789062 424.601562 181.308594 424.394531 181.8125 C 424.183594 182.316406 423.929688 182.796875 423.625 183.25 C 423.320312 183.703125 422.976562 184.125 422.589844 184.511719 C 422.207031 184.894531 421.785156 185.242188 421.332031 185.542969 C 420.878906 185.847656 420.398438 186.101562 419.894531 186.3125 C 419.390625 186.519531 418.871094 186.679688 418.335938 186.785156 C 417.800781 186.890625 417.257812 186.945312 416.714844 186.945312 C 416.167969 186.945312 415.628906 186.890625 415.09375 186.785156 C 414.558594 186.679688 414.039062 186.519531 413.53125 186.3125 C 413.027344 186.101562 412.550781 185.847656 412.097656 185.542969 C 411.640625 185.242188 411.222656 184.894531 410.835938 184.511719 C 410.449219 184.125 410.105469 183.703125 409.800781 183.25 C 409.5 182.796875 409.242188 182.316406 409.035156 181.8125 C 408.824219 181.308594 408.667969 180.789062 408.5625 180.253906 C 408.457031 179.71875 408.402344 179.179688 408.402344 178.632812 C 408.402344 178.085938 408.457031 177.546875 408.5625 177.011719 C 408.667969 176.476562 408.824219 175.957031 409.035156 175.453125 C 409.242188 174.949219 409.5 174.46875 409.800781 174.015625 C 410.105469 173.5625 410.449219 173.140625 410.835938 172.753906 C 411.222656 172.371094 411.640625 172.023438 412.097656 171.722656 C 412.550781 171.417969 413.027344 171.164062 413.53125 170.953125 C 414.039062 170.746094 414.558594 170.585938 415.09375 170.480469 C 415.628906 170.375 416.167969 170.320312 416.714844 170.320312 C 417.257812 170.320312 417.800781 170.375 418.335938 170.480469 C 418.871094 170.585938 419.390625 170.746094 419.894531 170.953125 C 420.398438 171.164062 420.878906 171.417969 421.332031 171.722656 C 421.785156 172.023438 422.207031 172.371094 422.589844 172.753906 C 422.976562 173.140625 423.320312 173.5625 423.625 174.015625 C 423.929688 174.46875 424.183594 174.949219 424.394531 175.453125 C 424.601562 175.957031 424.757812 176.476562 424.867188 177.011719 C 424.972656 177.546875 425.027344 178.085938 425.027344 178.632812 Z M 425.027344 178.632812 " fill-opacity="1" fill-rule="nonzero"/><path fill="#ffffff" d="M 309.519531 162.011719 C 309.519531 162.554688 309.464844 163.097656 309.359375 163.632812 C 309.253906 164.167969 309.09375 164.6875 308.886719 165.191406 C 308.675781 165.695312 308.421875 166.175781 308.117188 166.628906 C 307.816406 167.082031 307.46875 167.5 307.085938 167.886719 C 306.699219 168.273438 306.277344 168.617188 305.824219 168.921875 C 305.371094 169.222656 304.890625 169.480469 304.386719 169.6875 C 303.882812 169.898438 303.363281 170.054688 302.828125 170.164062 C 302.292969 170.269531 301.753906 170.320312 301.207031 170.320312 C 300.660156 170.320312 300.121094 170.269531 299.585938 170.164062 C 299.050781 170.054688 298.53125 169.898438 298.027344 169.6875 C 297.523438 169.480469 297.042969 169.222656 296.589844 168.921875 C 296.136719 168.617188 295.714844 168.273438 295.328125 167.886719 C 294.945312 167.5 294.597656 167.082031 294.296875 166.628906 C 293.992188 166.175781 293.738281 165.695312 293.527344 165.191406 C 293.320312 164.6875 293.160156 164.167969 293.054688 163.632812 C 292.949219 163.097656 292.894531 162.554688 292.894531 162.011719 C 292.894531 161.464844 292.949219 160.921875 293.054688 160.386719 C 293.160156 159.851562 293.320312 159.332031 293.527344 158.828125 C 293.738281 158.324219 293.992188 157.847656 294.296875 157.390625 C 294.597656 156.9375 294.945312 156.519531 295.328125 156.132812 C 295.714844 155.746094 296.136719 155.402344 296.589844 155.097656 C 297.042969 154.796875 297.523438 154.539062 298.027344 154.332031 C 298.53125 154.121094 299.050781 153.964844 299.585938 153.859375 C 300.121094 153.75 300.660156 153.699219 301.207031 153.699219 C 301.753906 153.699219 302.292969 153.75 302.828125 153.859375 C 303.363281 153.964844 303.882812 154.121094 304.386719 154.332031 C 304.890625 154.539062 305.371094 154.796875 305.824219 155.097656 C 306.277344 155.402344 306.699219 155.746094 307.085938 156.132812 C 307.46875 156.519531 307.816406 156.9375 308.117188 157.390625 C 308.421875 157.847656 308.675781 158.324219 308.886719 158.828125 C 309.09375 159.332031 309.253906 159.851562 309.359375 160.386719 C 309.464844 160.921875 309.519531 161.464844 309.519531 162.011719 Z M 309.519531 162.011719 " fill-opacity="1" fill-rule="nonzero"/><path fill="#ffffff" d="M 127.121094 136.4375 C 127.121094 136.980469 127.066406 137.523438 126.960938 138.058594 C 126.855469 138.59375 126.699219 139.113281 126.488281 139.617188 C 126.28125 140.121094 126.023438 140.601562 125.71875 141.054688 C 125.417969 141.507812 125.074219 141.929688 124.6875 142.3125 C 124.300781 142.699219 123.882812 143.042969 123.425781 143.347656 C 122.972656 143.652344 122.496094 143.90625 121.988281 144.117188 C 121.484375 144.324219 120.964844 144.480469 120.429688 144.589844 C 119.894531 144.695312 119.355469 144.75 118.808594 144.75 C 118.261719 144.75 117.722656 144.695312 117.1875 144.589844 C 116.652344 144.480469 116.132812 144.324219 115.628906 144.117188 C 115.125 143.90625 114.644531 143.652344 114.191406 143.347656 C 113.738281 143.042969 113.316406 142.699219 112.933594 142.3125 C 112.546875 141.929688 112.203125 141.507812 111.898438 141.054688 C 111.59375 140.601562 111.339844 140.121094 111.128906 139.617188 C 110.921875 139.113281 110.765625 138.59375 110.65625 138.058594 C 110.550781 137.523438 110.496094 136.980469 110.496094 136.4375 C 110.496094 135.890625 110.550781 135.351562 110.65625 134.816406 C 110.765625 134.28125 110.921875 133.761719 111.128906 133.253906 C 111.339844 132.75 111.59375 132.273438 111.898438 131.820312 C 112.203125 131.363281 112.546875 130.945312 112.933594 130.558594 C 113.316406 130.171875 113.738281 129.828125 114.191406 129.527344 C 114.644531 129.222656 115.125 128.964844 115.628906 128.757812 C 116.132812 128.546875 116.652344 128.390625 117.1875 128.285156 C 117.722656 128.179688 118.261719 128.125 118.808594 128.125 C 119.355469 128.125 119.894531 128.179688 120.429688 128.285156 C 120.964844 128.390625 121.484375 128.546875 121.988281 128.757812 C 122.496094 128.964844 122.972656 129.222656 123.425781 129.527344 C 123.882812 129.828125 124.300781 130.171875 124.6875 130.558594 C 125.074219 130.945312 125.417969 131.363281 125.71875 131.820312 C 126.023438 132.273438 126.28125 132.75 126.488281 133.253906 C 126.699219 133.761719 126.855469 134.28125 126.960938 134.816406 C 127.066406 135.351562 127.121094 135.890625 127.121094 136.4375 Z M 127.121094 136.4375 " fill-opacity="1" fill-rule="nonzero"/><path fill="#ffffff" d="M 256.417969 124.289062 C 256.417969 124.835938 256.367188 125.375 256.261719 125.910156 C 256.152344 126.445312 255.996094 126.964844 255.785156 127.46875 C 255.578125 127.976562 255.320312 128.453125 255.019531 128.90625 C 254.714844 129.363281 254.371094 129.78125 253.984375 130.167969 C 253.597656 130.554688 253.179688 130.898438 252.726562 131.199219 C 252.273438 131.503906 251.792969 131.761719 251.289062 131.96875 C 250.785156 132.179688 250.265625 132.335938 249.730469 132.441406 C 249.195312 132.546875 248.652344 132.601562 248.109375 132.601562 C 247.5625 132.601562 247.023438 132.546875 246.484375 132.441406 C 245.949219 132.335938 245.429688 132.179688 244.925781 131.96875 C 244.421875 131.761719 243.945312 131.503906 243.488281 131.199219 C 243.035156 130.898438 242.617188 130.554688 242.230469 130.167969 C 241.84375 129.78125 241.5 129.363281 241.195312 128.90625 C 240.894531 128.453125 240.636719 127.976562 240.429688 127.46875 C 240.21875 126.964844 240.0625 126.445312 239.957031 125.910156 C 239.847656 125.375 239.796875 124.835938 239.796875 124.289062 C 239.796875 123.742188 239.847656 123.203125 239.957031 122.667969 C 240.0625 122.132812 240.21875 121.613281 240.429688 121.109375 C 240.636719 120.605469 240.894531 120.125 241.195312 119.671875 C 241.5 119.21875 241.84375 118.796875 242.230469 118.414062 C 242.617188 118.027344 243.035156 117.683594 243.488281 117.378906 C 243.945312 117.074219 244.421875 116.820312 244.925781 116.609375 C 245.429688 116.402344 245.949219 116.242188 246.484375 116.136719 C 247.023438 116.03125 247.5625 115.976562 248.109375 115.976562 C 248.652344 115.976562 249.195312 116.03125 249.730469 116.136719 C 250.265625 116.242188 250.785156 116.402344 251.289062 116.609375 C 251.792969 116.820312 252.273438 117.074219 252.726562 117.378906 C 253.179688 117.683594 253.597656 118.027344 253.984375 118.414062 C 254.371094 118.796875 254.714844 119.21875 255.019531 119.671875 C 255.320312 120.125 255.578125 120.605469 255.785156 121.109375 C 255.996094 121.613281 256.152344 122.132812 256.261719 122.667969 C 256.367188 123.203125 256.417969 123.742188 256.417969 124.289062 Z M 256.417969 124.289062 " fill-opacity="1" fill-rule="nonzero"/><path fill="#ffffff" d="M 162.125 48.824219 C 162.125 49.179688 162.089844 49.53125 162.023438 49.878906 C 161.953125 50.226562 161.851562 50.5625 161.714844 50.890625 C 161.578125 51.21875 161.414062 51.527344 161.214844 51.824219 C 161.019531 52.117188 160.796875 52.390625 160.542969 52.640625 C 160.292969 52.890625 160.019531 53.117188 159.726562 53.3125 C 159.433594 53.507812 159.121094 53.675781 158.792969 53.8125 C 158.464844 53.945312 158.128906 54.050781 157.78125 54.117188 C 157.433594 54.1875 157.082031 54.222656 156.726562 54.222656 C 156.371094 54.222656 156.023438 54.1875 155.675781 54.117188 C 155.328125 54.050781 154.988281 53.945312 154.660156 53.8125 C 154.332031 53.675781 154.023438 53.507812 153.726562 53.3125 C 153.433594 53.117188 153.160156 52.890625 152.910156 52.640625 C 152.660156 52.390625 152.433594 52.117188 152.238281 51.824219 C 152.042969 51.527344 151.875 51.21875 151.738281 50.890625 C 151.605469 50.5625 151.5 50.226562 151.433594 49.878906 C 151.363281 49.53125 151.328125 49.179688 151.328125 48.824219 C 151.328125 48.46875 151.363281 48.117188 151.433594 47.769531 C 151.5 47.421875 151.605469 47.085938 151.738281 46.757812 C 151.875 46.429688 152.042969 46.117188 152.238281 45.824219 C 152.433594 45.53125 152.660156 45.257812 152.910156 45.007812 C 153.160156 44.753906 153.433594 44.53125 153.726562 44.335938 C 154.023438 44.136719 154.332031 43.972656 154.660156 43.835938 C 154.988281 43.699219 155.328125 43.597656 155.675781 43.527344 C 156.023438 43.460938 156.371094 43.425781 156.726562 43.425781 C 157.082031 43.425781 157.433594 43.460938 157.78125 43.527344 C 158.128906 43.597656 158.464844 43.699219 158.792969 43.835938 C 159.121094 43.972656 159.433594 44.136719 159.726562 44.335938 C 160.019531 44.53125 160.292969 44.753906 160.542969 45.007812 C 160.796875 45.257812 161.019531 45.53125 161.214844 45.824219 C 161.414062 46.117188 161.578125 46.429688 161.714844 46.757812 C 161.851562 47.085938 161.953125 47.421875 162.023438 47.769531 C 162.089844 48.117188 162.125 48.46875 162.125 48.824219 Z M 162.125 48.824219 " fill-opacity="1" fill-rule="nonzero"/><path fill="#ffffff" d="M 180.410156 150.148438 C 180.410156 150.5 180.375 150.851562 180.304688 151.199219 C 180.234375 151.546875 180.132812 151.886719 179.996094 152.214844 C 179.863281 152.539062 179.695312 152.851562 179.5 153.144531 C 179.300781 153.441406 179.078125 153.714844 178.828125 153.964844 C 178.578125 154.214844 178.304688 154.4375 178.007812 154.636719 C 177.714844 154.832031 177.402344 155 177.074219 155.136719 C 176.75 155.269531 176.410156 155.371094 176.0625 155.441406 C 175.714844 155.511719 175.363281 155.546875 175.011719 155.546875 C 174.65625 155.546875 174.304688 155.511719 173.957031 155.441406 C 173.609375 155.371094 173.273438 155.269531 172.945312 155.136719 C 172.617188 155 172.304688 154.832031 172.011719 154.636719 C 171.714844 154.4375 171.441406 154.214844 171.191406 153.964844 C 170.941406 153.714844 170.71875 153.441406 170.519531 153.144531 C 170.324219 152.851562 170.15625 152.539062 170.023438 152.214844 C 169.886719 151.886719 169.785156 151.546875 169.714844 151.199219 C 169.644531 150.851562 169.609375 150.5 169.609375 150.148438 C 169.609375 149.792969 169.644531 149.441406 169.714844 149.09375 C 169.785156 148.746094 169.886719 148.410156 170.023438 148.082031 C 170.15625 147.753906 170.324219 147.441406 170.519531 147.148438 C 170.71875 146.851562 170.941406 146.582031 171.191406 146.328125 C 171.441406 146.078125 171.714844 145.855469 172.011719 145.65625 C 172.304688 145.460938 172.617188 145.292969 172.945312 145.160156 C 173.273438 145.023438 173.609375 144.921875 173.957031 144.851562 C 174.304688 144.78125 174.65625 144.75 175.011719 144.75 C 175.363281 144.75 175.714844 144.78125 176.0625 144.851562 C 176.410156 144.921875 176.75 145.023438 177.074219 145.160156 C 177.402344 145.292969 177.714844 145.460938 178.007812 145.65625 C 178.304688 145.855469 178.578125 146.078125 178.828125 146.328125 C 179.078125 146.582031 179.300781 146.851562 179.5 147.148438 C 179.695312 147.441406 179.863281 147.753906 179.996094 148.082031 C 180.132812 148.410156 180.234375 148.746094 180.304688 149.09375 C 180.375 149.441406 180.410156 149.792969 180.410156 150.148438 Z M 180.410156 150.148438 " fill-opacity="1" fill-rule="nonzero"/><path fill="#ffffff" d="M 224.355469 80.886719 C 224.355469 81.242188 224.320312 81.589844 224.25 81.9375 C 224.183594 82.285156 224.078125 82.625 223.945312 82.953125 C 223.808594 83.28125 223.640625 83.589844 223.445312 83.886719 C 223.25 84.179688 223.023438 84.453125 222.773438 84.703125 C 222.523438 84.953125 222.25 85.179688 221.957031 85.375 C 221.660156 85.570312 221.351562 85.738281 221.023438 85.875 C 220.695312 86.007812 220.359375 86.113281 220.011719 86.179688 C 219.664062 86.25 219.3125 86.285156 218.957031 86.285156 C 218.601562 86.285156 218.25 86.25 217.902344 86.179688 C 217.554688 86.113281 217.21875 86.007812 216.890625 85.875 C 216.5625 85.738281 216.25 85.570312 215.957031 85.375 C 215.664062 85.179688 215.390625 84.953125 215.140625 84.703125 C 214.886719 84.453125 214.664062 84.179688 214.46875 83.886719 C 214.269531 83.589844 214.105469 83.28125 213.96875 82.953125 C 213.832031 82.625 213.730469 82.285156 213.660156 81.9375 C 213.59375 81.589844 213.558594 81.242188 213.558594 80.886719 C 213.558594 80.53125 213.59375 80.179688 213.660156 79.832031 C 213.730469 79.484375 213.832031 79.148438 213.96875 78.820312 C 214.105469 78.492188 214.269531 78.179688 214.46875 77.886719 C 214.664062 77.59375 214.886719 77.320312 215.140625 77.070312 C 215.390625 76.816406 215.664062 76.59375 215.957031 76.398438 C 216.25 76.199219 216.5625 76.035156 216.890625 75.898438 C 217.21875 75.761719 217.554688 75.660156 217.902344 75.589844 C 218.25 75.523438 218.601562 75.488281 218.957031 75.488281 C 219.3125 75.488281 219.664062 75.523438 220.011719 75.589844 C 220.359375 75.660156 220.695312 75.761719 221.023438 75.898438 C 221.351562 76.035156 221.660156 76.199219 221.957031 76.398438 C 222.25 76.59375 222.523438 76.816406 222.773438 77.070312 C 223.023438 77.320312 223.25 77.59375 223.445312 77.886719 C 223.640625 78.179688 223.808594 78.492188 223.945312 78.820312 C 224.078125 79.148438 224.183594 79.484375 224.25 79.832031 C 224.320312 80.179688 224.355469 80.53125 224.355469 80.886719 Z M 224.355469 80.886719 " fill-opacity="1" fill-rule="nonzero"/><g clip-path="url(#9bdbe0a76c)"><path fill="#ffffff" d="M 318.550781 1.609375 C 318.550781 1.960938 318.515625 2.3125 318.445312 2.660156 C 318.378906 3.007812 318.277344 3.347656 318.140625 3.671875 C 318.003906 4 317.835938 4.3125 317.640625 4.605469 C 317.445312 4.902344 317.21875 5.175781 316.96875 5.425781 C 316.71875 5.675781 316.445312 5.898438 316.152344 6.097656 C 315.855469 6.292969 315.546875 6.460938 315.21875 6.59375 C 314.890625 6.730469 314.554688 6.832031 314.207031 6.902344 C 313.859375 6.972656 313.507812 7.007812 313.152344 7.007812 C 312.796875 7.007812 312.445312 6.972656 312.097656 6.902344 C 311.75 6.832031 311.414062 6.730469 311.085938 6.59375 C 310.757812 6.460938 310.449219 6.292969 310.152344 6.097656 C 309.859375 5.898438 309.585938 5.675781 309.335938 5.425781 C 309.082031 5.175781 308.859375 4.902344 308.664062 4.605469 C 308.464844 4.3125 308.300781 4 308.164062 3.671875 C 308.027344 3.347656 307.925781 3.007812 307.855469 2.660156 C 307.789062 2.3125 307.753906 1.960938 307.753906 1.609375 C 307.753906 1.253906 307.789062 0.902344 307.855469 0.554688 C 307.925781 0.207031 308.027344 -0.132812 308.164062 -0.457031 C 308.300781 -0.785156 308.464844 -1.097656 308.664062 -1.390625 C 308.859375 -1.6875 309.082031 -1.960938 309.335938 -2.210938 C 309.585938 -2.460938 309.859375 -2.683594 310.152344 -2.882812 C 310.449219 -3.078125 310.757812 -3.246094 311.085938 -3.378906 C 311.414062 -3.515625 311.75 -3.617188 312.097656 -3.6875 C 312.445312 -3.757812 312.796875 -3.792969 313.152344 -3.792969 C 313.507812 -3.792969 313.859375 -3.757812 314.207031 -3.6875 C 314.554688 -3.617188 314.890625 -3.515625 315.21875 -3.378906 C 315.546875 -3.246094 315.855469 -3.078125 316.152344 -2.882812 C 316.445312 -2.683594 316.71875 -2.460938 316.96875 -2.210938 C 317.21875 -1.960938 317.445312 -1.6875 317.640625 -1.390625 C 317.835938 -1.097656 318.003906 -0.785156 318.140625 -0.457031 C 318.277344 -0.132812 318.378906 0.207031 318.445312 0.554688 C 318.515625 0.902344 318.550781 1.253906 318.550781 1.609375 Z M 318.550781 1.609375 " fill-opacity="1" fill-rule="nonzero"/></g><path fill="#ffffff" d="M 344.550781 112.851562 C 344.550781 113.207031 344.515625 113.558594 344.445312 113.90625 C 344.378906 114.253906 344.277344 114.589844 344.140625 114.917969 C 344.003906 115.246094 343.839844 115.558594 343.640625 115.851562 C 343.445312 116.144531 343.21875 116.417969 342.96875 116.667969 C 342.71875 116.921875 342.445312 117.144531 342.152344 117.339844 C 341.855469 117.539062 341.546875 117.703125 341.21875 117.839844 C 340.890625 117.976562 340.554688 118.078125 340.207031 118.148438 C 339.859375 118.214844 339.507812 118.25 339.152344 118.25 C 338.796875 118.25 338.445312 118.214844 338.097656 118.148438 C 337.75 118.078125 337.414062 117.976562 337.085938 117.839844 C 336.757812 117.703125 336.449219 117.539062 336.152344 117.339844 C 335.859375 117.144531 335.585938 116.921875 335.335938 116.667969 C 335.085938 116.417969 334.859375 116.144531 334.664062 115.851562 C 334.464844 115.558594 334.300781 115.246094 334.164062 114.917969 C 334.027344 114.589844 333.925781 114.253906 333.855469 113.90625 C 333.789062 113.558594 333.753906 113.207031 333.753906 112.851562 C 333.753906 112.496094 333.789062 112.148438 333.855469 111.800781 C 333.925781 111.453125 334.027344 111.113281 334.164062 110.785156 C 334.300781 110.457031 334.464844 110.148438 334.664062 109.851562 C 334.859375 109.558594 335.085938 109.285156 335.335938 109.035156 C 335.585938 108.785156 335.859375 108.558594 336.152344 108.363281 C 336.449219 108.167969 336.757812 108 337.085938 107.863281 C 337.414062 107.730469 337.75 107.625 338.097656 107.558594 C 338.445312 107.488281 338.796875 107.453125 339.152344 107.453125 C 339.507812 107.453125 339.859375 107.488281 340.207031 107.558594 C 340.554688 107.625 340.890625 107.730469 341.21875 107.863281 C 341.546875 108 341.855469 108.167969 342.152344 108.363281 C 342.445312 108.558594 342.71875 108.785156 342.96875 109.035156 C 343.21875 109.285156 343.445312 109.558594 343.640625 109.851562 C 343.839844 110.148438 344.003906 110.457031 344.140625 110.785156 C 344.277344 111.113281 344.378906 111.453125 344.445312 111.800781 C 344.515625 112.148438 344.550781 112.496094 344.550781 112.851562 Z M 344.550781 112.851562 " fill-opacity="1" fill-rule="nonzero"/><path fill="#ffffff" d="M 432.628906 7.007812 C 432.628906 7.359375 432.59375 7.710938 432.527344 8.058594 C 432.457031 8.40625 432.355469 8.746094 432.21875 9.074219 C 432.082031 9.398438 431.917969 9.710938 431.71875 10.003906 C 431.523438 10.300781 431.300781 10.574219 431.046875 10.824219 C 430.796875 11.074219 430.523438 11.296875 430.230469 11.496094 C 429.933594 11.691406 429.625 11.859375 429.296875 11.992188 C 428.96875 12.128906 428.632812 12.230469 428.285156 12.300781 C 427.9375 12.371094 427.585938 12.40625 427.230469 12.40625 C 426.875 12.40625 426.523438 12.371094 426.175781 12.300781 C 425.828125 12.230469 425.492188 12.128906 425.164062 11.992188 C 424.835938 11.859375 424.527344 11.691406 424.230469 11.496094 C 423.9375 11.296875 423.664062 11.074219 423.414062 10.824219 C 423.164062 10.574219 422.9375 10.300781 422.742188 10.003906 C 422.542969 9.710938 422.378906 9.398438 422.242188 9.074219 C 422.105469 8.746094 422.003906 8.40625 421.9375 8.058594 C 421.867188 7.710938 421.832031 7.359375 421.832031 7.007812 C 421.832031 6.652344 421.867188 6.300781 421.9375 5.953125 C 422.003906 5.605469 422.105469 5.269531 422.242188 4.941406 C 422.378906 4.613281 422.542969 4.300781 422.742188 4.007812 C 422.9375 3.710938 423.164062 3.441406 423.414062 3.1875 C 423.664062 2.9375 423.9375 2.714844 424.230469 2.515625 C 424.527344 2.320312 424.835938 2.152344 425.164062 2.019531 C 425.492188 1.882812 425.828125 1.78125 426.175781 1.710938 C 426.523438 1.640625 426.875 1.609375 427.230469 1.609375 C 427.585938 1.609375 427.9375 1.640625 428.285156 1.710938 C 428.632812 1.78125 428.96875 1.882812 429.296875 2.019531 C 429.625 2.152344 429.933594 2.320312 430.230469 2.515625 C 430.523438 2.714844 430.796875 2.9375 431.046875 3.1875 C 431.300781 3.441406 431.523438 3.710938 431.71875 4.007812 C 431.917969 4.300781 432.082031 4.613281 432.21875 4.941406 C 432.355469 5.269531 432.457031 5.605469 432.527344 5.953125 C 432.59375 6.300781 432.628906 6.652344 432.628906 7.007812 Z M 432.628906 7.007812 " fill-opacity="1" fill-rule="nonzero"/><path fill="#ffffff" d="M 488.464844 118.25 C 488.464844 118.605469 488.429688 118.957031 488.359375 119.304688 C 488.292969 119.652344 488.1875 119.988281 488.054688 120.316406 C 487.917969 120.644531 487.75 120.957031 487.554688 121.25 C 487.359375 121.546875 487.132812 121.816406 486.882812 122.070312 C 486.632812 122.320312 486.359375 122.542969 486.066406 122.738281 C 485.769531 122.9375 485.460938 123.101562 485.132812 123.238281 C 484.804688 123.375 484.464844 123.476562 484.117188 123.546875 C 483.769531 123.613281 483.421875 123.648438 483.066406 123.648438 C 482.710938 123.648438 482.359375 123.613281 482.011719 123.546875 C 481.664062 123.476562 481.328125 123.375 481 123.238281 C 480.671875 123.101562 480.359375 122.9375 480.066406 122.738281 C 479.773438 122.542969 479.5 122.320312 479.25 122.070312 C 478.996094 121.816406 478.773438 121.546875 478.578125 121.25 C 478.378906 120.957031 478.214844 120.644531 478.078125 120.316406 C 477.941406 119.988281 477.839844 119.652344 477.769531 119.304688 C 477.703125 118.957031 477.667969 118.605469 477.667969 118.25 C 477.667969 117.894531 477.703125 117.546875 477.769531 117.199219 C 477.839844 116.851562 477.941406 116.511719 478.078125 116.183594 C 478.214844 115.855469 478.378906 115.546875 478.578125 115.25 C 478.773438 114.957031 478.996094 114.683594 479.25 114.433594 C 479.5 114.183594 479.773438 113.957031 480.066406 113.761719 C 480.359375 113.566406 480.671875 113.398438 481 113.261719 C 481.328125 113.128906 481.664062 113.023438 482.011719 112.957031 C 482.359375 112.886719 482.710938 112.851562 483.066406 112.851562 C 483.421875 112.851562 483.769531 112.886719 484.117188 112.957031 C 484.464844 113.023438 484.804688 113.128906 485.132812 113.261719 C 485.460938 113.398438 485.769531 113.566406 486.066406 113.761719 C 486.359375 113.957031 486.632812 114.183594 486.882812 114.433594 C 487.132812 114.683594 487.359375 114.957031 487.554688 115.25 C 487.75 115.546875 487.917969 115.855469 488.054688 116.183594 C 488.1875 116.511719 488.292969 116.851562 488.359375 117.199219 C 488.429688 117.546875 488.464844 117.894531 488.464844 118.25 Z M 488.464844 118.25 " fill-opacity="1" fill-rule="nonzero"/><path fill="#ffffff" d="M 286.105469 67.175781 C 286.105469 67.722656 286.050781 68.261719 285.945312 68.796875 C 285.835938 69.332031 285.679688 69.851562 285.472656 70.355469 C 285.261719 70.859375 285.007812 71.339844 284.703125 71.792969 C 284.398438 72.246094 284.054688 72.667969 283.667969 73.054688 C 283.285156 73.4375 282.863281 73.785156 282.410156 74.085938 C 281.957031 74.390625 281.476562 74.644531 280.972656 74.855469 C 280.46875 75.0625 279.949219 75.222656 279.414062 75.328125 C 278.878906 75.433594 278.335938 75.488281 277.792969 75.488281 C 277.246094 75.488281 276.707031 75.433594 276.171875 75.328125 C 275.636719 75.222656 275.113281 75.0625 274.609375 74.855469 C 274.105469 74.644531 273.628906 74.390625 273.175781 74.085938 C 272.71875 73.785156 272.300781 73.4375 271.914062 73.054688 C 271.527344 72.667969 271.183594 72.246094 270.878906 71.792969 C 270.578125 71.339844 270.320312 70.859375 270.113281 70.355469 C 269.902344 69.851562 269.746094 69.332031 269.640625 68.796875 C 269.53125 68.261719 269.480469 67.722656 269.480469 67.175781 C 269.480469 66.628906 269.53125 66.089844 269.640625 65.554688 C 269.746094 65.019531 269.902344 64.5 270.113281 63.996094 C 270.320312 63.492188 270.578125 63.011719 270.878906 62.558594 C 271.183594 62.105469 271.527344 61.683594 271.914062 61.296875 C 272.300781 60.914062 272.71875 60.566406 273.175781 60.265625 C 273.628906 59.960938 274.105469 59.707031 274.609375 59.496094 C 275.113281 59.289062 275.636719 59.128906 276.171875 59.023438 C 276.707031 58.917969 277.246094 58.863281 277.792969 58.863281 C 278.335938 58.863281 278.878906 58.917969 279.414062 59.023438 C 279.949219 59.128906 280.46875 59.289062 280.972656 59.496094 C 281.476562 59.707031 281.957031 59.960938 282.410156 60.265625 C 282.863281 60.566406 283.285156 60.914062 283.667969 61.296875 C 284.054688 61.683594 284.398438 62.105469 284.703125 62.558594 C 285.007812 63.011719 285.261719 63.492188 285.472656 63.996094 C 285.679688 64.5 285.835938 65.019531 285.945312 65.554688 C 286.050781 66.089844 286.105469 66.628906 286.105469 67.175781 Z M 286.105469 67.175781 " fill-opacity="1" fill-rule="nonzero"/><path fill="#ffffff" d="M 453.394531 62.019531 C 453.394531 62.4375 453.316406 62.839844 453.15625 63.226562 C 452.996094 63.613281 452.765625 63.957031 452.472656 64.25 C 452.175781 64.546875 451.835938 64.777344 451.449219 64.9375 C 451.0625 65.097656 450.660156 65.175781 450.238281 65.175781 C 449.820312 65.175781 449.417969 65.097656 449.03125 64.9375 C 448.644531 64.777344 448.304688 64.546875 448.007812 64.25 C 447.710938 63.957031 447.484375 63.613281 447.324219 63.226562 C 447.164062 62.839844 447.082031 62.4375 447.082031 62.019531 C 447.082031 61.601562 447.164062 61.199219 447.324219 60.8125 C 447.484375 60.425781 447.710938 60.085938 448.007812 59.789062 C 448.304688 59.492188 448.644531 59.265625 449.03125 59.105469 C 449.417969 58.945312 449.820312 58.863281 450.238281 58.863281 C 450.660156 58.863281 451.0625 58.945312 451.449219 59.105469 C 451.835938 59.265625 452.175781 59.492188 452.472656 59.789062 C 452.765625 60.085938 452.996094 60.425781 453.15625 60.8125 C 453.316406 61.199219 453.394531 61.601562 453.394531 62.019531 Z M 453.394531 62.019531 " fill-opacity="1" fill-rule="nonzero"/><path fill="#ffffff" d="M 423.027344 112.851562 C 423.027344 113.269531 422.945312 113.671875 422.785156 114.058594 C 422.625 114.445312 422.398438 114.789062 422.101562 115.082031 C 421.804688 115.378906 421.464844 115.609375 421.078125 115.769531 C 420.691406 115.929688 420.289062 116.007812 419.871094 116.007812 C 419.453125 116.007812 419.046875 115.929688 418.660156 115.769531 C 418.277344 115.609375 417.933594 115.378906 417.636719 115.082031 C 417.34375 114.789062 417.113281 114.445312 416.953125 114.058594 C 416.792969 113.671875 416.714844 113.269531 416.714844 112.851562 C 416.714844 112.433594 416.792969 112.03125 416.953125 111.644531 C 417.113281 111.257812 417.34375 110.917969 417.636719 110.621094 C 417.933594 110.324219 418.277344 110.097656 418.660156 109.9375 C 419.046875 109.777344 419.453125 109.695312 419.871094 109.695312 C 420.289062 109.695312 420.691406 109.777344 421.078125 109.9375 C 421.464844 110.097656 421.804688 110.324219 422.101562 110.621094 C 422.398438 110.917969 422.625 111.257812 422.785156 111.644531 C 422.945312 112.03125 423.027344 112.433594 423.027344 112.851562 Z M 423.027344 112.851562 " fill-opacity="1" fill-rule="nonzero"/><path fill="#ffffff" d="M 494.777344 170.320312 C 494.777344 170.742188 494.695312 171.144531 494.535156 171.53125 C 494.375 171.917969 494.148438 172.257812 493.851562 172.554688 C 493.554688 172.851562 493.214844 173.078125 492.828125 173.238281 C 492.441406 173.398438 492.039062 173.476562 491.621094 173.476562 C 491.203125 173.476562 490.800781 173.398438 490.414062 173.238281 C 490.027344 173.078125 489.683594 172.851562 489.390625 172.554688 C 489.09375 172.257812 488.863281 171.917969 488.703125 171.53125 C 488.542969 171.144531 488.464844 170.742188 488.464844 170.320312 C 488.464844 169.902344 488.542969 169.5 488.703125 169.113281 C 488.863281 168.726562 489.09375 168.386719 489.390625 168.089844 C 489.683594 167.792969 490.027344 167.566406 490.414062 167.40625 C 490.800781 167.246094 491.203125 167.164062 491.621094 167.164062 C 492.039062 167.164062 492.441406 167.246094 492.828125 167.40625 C 493.214844 167.566406 493.554688 167.792969 493.851562 168.089844 C 494.148438 168.386719 494.375 168.726562 494.535156 169.113281 C 494.695312 169.5 494.777344 169.902344 494.777344 170.320312 Z M 494.777344 170.320312 " fill-opacity="1" fill-rule="nonzero"/><path fill="#ffffff" d="M 545.957031 86.285156 C 545.957031 86.703125 545.875 87.105469 545.714844 87.492188 C 545.554688 87.878906 545.328125 88.21875 545.03125 88.515625 C 544.734375 88.8125 544.394531 89.039062 544.007812 89.199219 C 543.621094 89.359375 543.21875 89.441406 542.800781 89.441406 C 542.378906 89.441406 541.976562 89.359375 541.589844 89.199219 C 541.203125 89.039062 540.863281 88.8125 540.566406 88.515625 C 540.273438 88.21875 540.042969 87.878906 539.882812 87.492188 C 539.722656 87.105469 539.644531 86.703125 539.644531 86.285156 C 539.644531 85.867188 539.722656 85.464844 539.882812 85.078125 C 540.042969 84.691406 540.273438 84.347656 540.566406 84.054688 C 540.863281 83.757812 541.203125 83.527344 541.589844 83.367188 C 541.976562 83.207031 542.378906 83.128906 542.800781 83.128906 C 543.21875 83.128906 543.621094 83.207031 544.007812 83.367188 C 544.394531 83.527344 544.734375 83.757812 545.03125 84.054688 C 545.328125 84.347656 545.554688 84.691406 545.714844 85.078125 C 545.875 85.464844 545.957031 85.867188 545.957031 86.285156 Z M 545.957031 86.285156 " fill-opacity="1" fill-rule="nonzero"/><g clip-path="url(#aa9c363113)"><path fill="#ffffff" d="M 163.039062 1.609375 C 163.039062 2.027344 162.960938 2.429688 162.800781 2.816406 C 162.640625 3.203125 162.410156 3.542969 162.113281 3.839844 C 161.820312 4.136719 161.476562 4.363281 161.089844 4.523438 C 160.703125 4.683594 160.300781 4.765625 159.882812 4.765625 C 159.464844 4.765625 159.0625 4.683594 158.675781 4.523438 C 158.289062 4.363281 157.949219 4.136719 157.652344 3.839844 C 157.355469 3.542969 157.128906 3.203125 156.96875 2.816406 C 156.808594 2.429688 156.726562 2.027344 156.726562 1.609375 C 156.726562 1.1875 156.808594 0.785156 156.96875 0.398438 C 157.128906 0.0117188 157.355469 -0.328125 157.652344 -0.625 C 157.949219 -0.921875 158.289062 -1.148438 158.675781 -1.308594 C 159.0625 -1.46875 159.464844 -1.546875 159.882812 -1.546875 C 160.300781 -1.546875 160.703125 -1.46875 161.089844 -1.308594 C 161.476562 -1.148438 161.820312 -0.921875 162.113281 -0.625 C 162.410156 -0.328125 162.640625 0.0117188 162.800781 0.398438 C 162.960938 0.785156 163.039062 1.1875 163.039062 1.609375 Z M 163.039062 1.609375 " fill-opacity="1" fill-rule="nonzero"/></g><path fill="#ffffff" d="M 318.886719 35.613281 C 318.886719 35.992188 318.847656 36.363281 318.777344 36.734375 C 318.703125 37.101562 318.59375 37.460938 318.449219 37.808594 C 318.304688 38.15625 318.128906 38.488281 317.917969 38.800781 C 317.710938 39.113281 317.472656 39.402344 317.207031 39.667969 C 316.941406 39.933594 316.652344 40.171875 316.335938 40.382812 C 316.023438 40.589844 315.695312 40.769531 315.347656 40.914062 C 315 41.054688 314.640625 41.164062 314.269531 41.238281 C 313.902344 41.3125 313.527344 41.347656 313.152344 41.347656 C 312.777344 41.347656 312.402344 41.3125 312.035156 41.238281 C 311.664062 41.164062 311.304688 41.054688 310.957031 40.914062 C 310.609375 40.769531 310.28125 40.589844 309.964844 40.382812 C 309.652344 40.171875 309.363281 39.933594 309.097656 39.667969 C 308.832031 39.402344 308.59375 39.113281 308.382812 38.800781 C 308.175781 38.488281 308 38.15625 307.855469 37.808594 C 307.710938 37.460938 307.601562 37.101562 307.527344 36.734375 C 307.453125 36.363281 307.417969 35.992188 307.417969 35.613281 C 307.417969 35.238281 307.453125 34.863281 307.527344 34.496094 C 307.601562 34.125 307.710938 33.769531 307.855469 33.421875 C 308 33.074219 308.175781 32.742188 308.382812 32.429688 C 308.59375 32.117188 308.832031 31.828125 309.097656 31.558594 C 309.363281 31.292969 309.652344 31.054688 309.964844 30.847656 C 310.28125 30.636719 310.609375 30.460938 310.957031 30.316406 C 311.304688 30.171875 311.664062 30.0625 312.035156 29.992188 C 312.402344 29.917969 312.777344 29.878906 313.152344 29.878906 C 313.527344 29.878906 313.902344 29.917969 314.269531 29.992188 C 314.640625 30.0625 315 30.171875 315.347656 30.316406 C 315.695312 30.460938 316.023438 30.636719 316.335938 30.847656 C 316.652344 31.054688 316.941406 31.292969 317.207031 31.558594 C 317.472656 31.828125 317.710938 32.117188 317.917969 32.429688 C 318.128906 32.742188 318.304688 33.074219 318.449219 33.421875 C 318.59375 33.769531 318.703125 34.125 318.777344 34.496094 C 318.847656 34.863281 318.886719 35.238281 318.886719 35.613281 Z M 318.886719 35.613281 " fill-opacity="1" fill-rule="nonzero"/><path fill="#ffffff" d="M 444.097656 38.191406 C 444.097656 38.570312 444.0625 38.941406 443.988281 39.3125 C 443.914062 39.679688 443.804688 40.039062 443.660156 40.386719 C 443.515625 40.734375 443.339844 41.066406 443.132812 41.378906 C 442.921875 41.691406 442.683594 41.980469 442.417969 42.246094 C 442.152344 42.511719 441.863281 42.75 441.550781 42.960938 C 441.234375 43.167969 440.90625 43.347656 440.558594 43.488281 C 440.210938 43.632812 439.851562 43.742188 439.480469 43.816406 C 439.113281 43.890625 438.738281 43.925781 438.363281 43.925781 C 437.988281 43.925781 437.613281 43.890625 437.246094 43.816406 C 436.875 43.742188 436.515625 43.632812 436.167969 43.488281 C 435.820312 43.347656 435.492188 43.167969 435.179688 42.960938 C 434.863281 42.75 434.574219 42.511719 434.308594 42.246094 C 434.042969 41.980469 433.804688 41.691406 433.597656 41.378906 C 433.386719 41.066406 433.210938 40.734375 433.066406 40.386719 C 432.921875 40.039062 432.8125 39.679688 432.738281 39.3125 C 432.667969 38.941406 432.628906 38.570312 432.628906 38.191406 C 432.628906 37.816406 432.667969 37.441406 432.738281 37.074219 C 432.8125 36.703125 432.921875 36.347656 433.066406 36 C 433.210938 35.648438 433.386719 35.320312 433.597656 35.007812 C 433.804688 34.695312 434.042969 34.402344 434.308594 34.136719 C 434.574219 33.871094 434.863281 33.632812 435.179688 33.425781 C 435.492188 33.214844 435.820312 33.039062 436.167969 32.894531 C 436.515625 32.75 436.875 32.640625 437.246094 32.570312 C 437.613281 32.496094 437.988281 32.457031 438.363281 32.457031 C 438.738281 32.457031 439.113281 32.496094 439.480469 32.570312 C 439.851562 32.640625 440.210938 32.75 440.558594 32.894531 C 440.90625 33.039062 441.234375 33.214844 441.550781 33.425781 C 441.863281 33.632812 442.152344 33.871094 442.417969 34.136719 C 442.683594 34.402344 442.921875 34.695312 443.132812 35.007812 C 443.339844 35.320312 443.515625 35.648438 443.660156 36 C 443.804688 36.347656 443.914062 36.703125 443.988281 37.074219 C 444.0625 37.441406 444.097656 37.816406 444.097656 38.191406 Z M 444.097656 38.191406 " fill-opacity="1" fill-rule="nonzero"/><path fill="#ffffff" d="M 290.976562 202.902344 C 290.976562 203.222656 290.945312 203.539062 290.882812 203.851562 C 290.820312 204.164062 290.730469 204.46875 290.605469 204.765625 C 290.484375 205.0625 290.332031 205.34375 290.15625 205.609375 C 289.976562 205.875 289.777344 206.121094 289.550781 206.347656 C 289.324219 206.574219 289.078125 206.777344 288.8125 206.953125 C 288.546875 207.132812 288.265625 207.28125 287.96875 207.40625 C 287.671875 207.527344 287.367188 207.621094 287.054688 207.683594 C 286.738281 207.746094 286.421875 207.777344 286.101562 207.777344 C 285.78125 207.777344 285.464844 207.746094 285.152344 207.683594 C 284.835938 207.621094 284.53125 207.527344 284.238281 207.40625 C 283.941406 207.28125 283.660156 207.132812 283.394531 206.953125 C 283.128906 206.777344 282.882812 206.574219 282.65625 206.347656 C 282.429688 206.121094 282.226562 205.875 282.050781 205.609375 C 281.871094 205.34375 281.722656 205.0625 281.597656 204.765625 C 281.476562 204.46875 281.382812 204.164062 281.320312 203.851562 C 281.257812 203.539062 281.226562 203.222656 281.226562 202.902344 C 281.226562 202.582031 281.257812 202.265625 281.320312 201.949219 C 281.382812 201.636719 281.476562 201.332031 281.597656 201.035156 C 281.722656 200.738281 281.871094 200.457031 282.050781 200.191406 C 282.226562 199.925781 282.429688 199.679688 282.65625 199.453125 C 282.882812 199.226562 283.128906 199.023438 283.394531 198.847656 C 283.660156 198.667969 283.941406 198.519531 284.238281 198.398438 C 284.53125 198.273438 284.835938 198.183594 285.152344 198.121094 C 285.464844 198.058594 285.78125 198.027344 286.101562 198.027344 C 286.421875 198.027344 286.738281 198.058594 287.054688 198.121094 C 287.367188 198.183594 287.671875 198.273438 287.96875 198.398438 C 288.265625 198.519531 288.546875 198.667969 288.8125 198.847656 C 289.078125 199.023438 289.324219 199.226562 289.550781 199.453125 C 289.777344 199.679688 289.976562 199.925781 290.15625 200.191406 C 290.332031 200.457031 290.484375 200.738281 290.605469 201.035156 C 290.730469 201.332031 290.820312 201.636719 290.882812 201.949219 C 290.945312 202.265625 290.976562 202.582031 290.976562 202.902344 Z M 290.976562 202.902344 " fill-opacity="1" fill-rule="nonzero"/><path fill="#ffffff" d="M 408.402344 81.046875 C 408.402344 81.367188 408.371094 81.683594 408.308594 82 C 408.246094 82.3125 408.15625 82.617188 408.03125 82.914062 C 407.910156 83.210938 407.757812 83.492188 407.582031 83.757812 C 407.402344 84.023438 407.203125 84.269531 406.976562 84.496094 C 406.75 84.722656 406.503906 84.921875 406.234375 85.101562 C 405.96875 85.28125 405.6875 85.429688 405.394531 85.550781 C 405.097656 85.675781 404.792969 85.765625 404.480469 85.828125 C 404.164062 85.890625 403.847656 85.921875 403.527344 85.921875 C 403.207031 85.921875 402.890625 85.890625 402.578125 85.828125 C 402.261719 85.765625 401.957031 85.675781 401.664062 85.550781 C 401.367188 85.429688 401.085938 85.28125 400.820312 85.101562 C 400.554688 84.921875 400.308594 84.722656 400.082031 84.496094 C 399.855469 84.269531 399.652344 84.023438 399.472656 83.757812 C 399.296875 83.492188 399.144531 83.210938 399.023438 82.914062 C 398.902344 82.617188 398.808594 82.3125 398.746094 82 C 398.683594 81.683594 398.652344 81.367188 398.652344 81.046875 C 398.652344 80.726562 398.683594 80.410156 398.746094 80.097656 C 398.808594 79.78125 398.902344 79.476562 399.023438 79.183594 C 399.144531 78.886719 399.296875 78.605469 399.472656 78.339844 C 399.652344 78.074219 399.855469 77.828125 400.082031 77.601562 C 400.308594 77.375 400.554688 77.171875 400.820312 76.996094 C 401.085938 76.816406 401.367188 76.667969 401.664062 76.542969 C 401.957031 76.421875 402.261719 76.328125 402.578125 76.265625 C 402.890625 76.203125 403.207031 76.171875 403.527344 76.171875 C 403.847656 76.171875 404.164062 76.203125 404.480469 76.265625 C 404.792969 76.328125 405.097656 76.421875 405.394531 76.542969 C 405.6875 76.667969 405.96875 76.816406 406.234375 76.996094 C 406.503906 77.171875 406.75 77.375 406.976562 77.601562 C 407.203125 77.828125 407.402344 78.074219 407.582031 78.339844 C 407.757812 78.605469 407.910156 78.886719 408.03125 79.183594 C 408.15625 79.476562 408.246094 79.78125 408.308594 80.097656 C 408.371094 80.410156 408.402344 80.726562 408.402344 81.046875 Z M 408.402344 81.046875 " fill-opacity="1" fill-rule="nonzero"/><path fill="#ffffff" d="M 79.714844 109.695312 C 79.714844 109.960938 79.6875 110.21875 79.636719 110.480469 C 79.585938 110.738281 79.511719 110.988281 79.410156 111.234375 C 79.308594 111.476562 79.183594 111.707031 79.039062 111.925781 C 78.890625 112.144531 78.726562 112.347656 78.539062 112.535156 C 78.351562 112.722656 78.148438 112.886719 77.929688 113.035156 C 77.710938 113.179688 77.480469 113.304688 77.234375 113.40625 C 76.992188 113.507812 76.742188 113.582031 76.484375 113.632812 C 76.222656 113.683594 75.964844 113.710938 75.699219 113.710938 C 75.4375 113.710938 75.175781 113.683594 74.917969 113.632812 C 74.65625 113.582031 74.40625 113.507812 74.164062 113.40625 C 73.917969 113.304688 73.6875 113.179688 73.46875 113.035156 C 73.25 112.886719 73.046875 112.722656 72.859375 112.535156 C 72.675781 112.347656 72.507812 112.144531 72.359375 111.925781 C 72.214844 111.707031 72.089844 111.476562 71.988281 111.234375 C 71.890625 110.988281 71.8125 110.738281 71.761719 110.480469 C 71.710938 110.21875 71.683594 109.960938 71.683594 109.695312 C 71.683594 109.433594 71.710938 109.171875 71.761719 108.914062 C 71.8125 108.652344 71.890625 108.402344 71.988281 108.160156 C 72.089844 107.914062 72.214844 107.683594 72.359375 107.464844 C 72.507812 107.246094 72.675781 107.042969 72.859375 106.855469 C 73.046875 106.671875 73.25 106.503906 73.46875 106.359375 C 73.6875 106.210938 73.917969 106.085938 74.164062 105.988281 C 74.40625 105.886719 74.65625 105.808594 74.917969 105.757812 C 75.175781 105.707031 75.4375 105.679688 75.699219 105.679688 C 75.964844 105.679688 76.222656 105.707031 76.484375 105.757812 C 76.742188 105.808594 76.992188 105.886719 77.234375 105.988281 C 77.480469 106.085938 77.710938 106.210938 77.929688 106.359375 C 78.148438 106.503906 78.351562 106.671875 78.539062 106.855469 C 78.726562 107.042969 78.890625 107.246094 79.039062 107.464844 C 79.183594 107.683594 79.308594 107.914062 79.410156 108.160156 C 79.511719 108.402344 79.585938 108.652344 79.636719 108.914062 C 79.6875 109.171875 79.714844 109.433594 79.714844 109.695312 Z M 79.714844 109.695312 " fill-opacity="1" fill-rule="nonzero"/><path fill="#ffffff" d="M 252.121094 86.285156 C 252.121094 86.546875 252.097656 86.808594 252.046875 87.066406 C 251.996094 87.328125 251.917969 87.578125 251.816406 87.820312 C 251.714844 88.066406 251.59375 88.296875 251.445312 88.515625 C 251.300781 88.734375 251.132812 88.9375 250.945312 89.125 C 250.761719 89.308594 250.558594 89.476562 250.339844 89.625 C 250.121094 89.769531 249.886719 89.894531 249.644531 89.996094 C 249.402344 90.09375 249.148438 90.171875 248.890625 90.222656 C 248.632812 90.273438 248.371094 90.300781 248.109375 90.300781 C 247.84375 90.300781 247.582031 90.273438 247.324219 90.222656 C 247.066406 90.171875 246.816406 90.09375 246.570312 89.996094 C 246.328125 89.894531 246.097656 89.769531 245.878906 89.625 C 245.65625 89.476562 245.457031 89.308594 245.269531 89.125 C 245.082031 88.9375 244.914062 88.734375 244.769531 88.515625 C 244.621094 88.296875 244.5 88.066406 244.398438 87.820312 C 244.296875 87.578125 244.222656 87.328125 244.167969 87.066406 C 244.117188 86.808594 244.09375 86.546875 244.09375 86.285156 C 244.09375 86.019531 244.117188 85.761719 244.167969 85.5 C 244.222656 85.242188 244.296875 84.992188 244.398438 84.75 C 244.5 84.503906 244.621094 84.273438 244.769531 84.054688 C 244.914062 83.835938 245.082031 83.632812 245.269531 83.445312 C 245.457031 83.257812 245.65625 83.09375 245.878906 82.945312 C 246.097656 82.800781 246.328125 82.675781 246.570312 82.574219 C 246.816406 82.472656 247.066406 82.398438 247.324219 82.347656 C 247.582031 82.296875 247.84375 82.269531 248.109375 82.269531 C 248.371094 82.269531 248.632812 82.296875 248.890625 82.347656 C 249.148438 82.398438 249.402344 82.472656 249.644531 82.574219 C 249.886719 82.675781 250.121094 82.800781 250.339844 82.945312 C 250.558594 83.09375 250.761719 83.257812 250.945312 83.445312 C 251.132812 83.632812 251.300781 83.835938 251.445312 84.054688 C 251.59375 84.273438 251.714844 84.503906 251.816406 84.75 C 251.917969 84.992188 251.996094 85.242188 252.046875 85.5 C 252.097656 85.761719 252.121094 86.019531 252.121094 86.285156 Z M 252.121094 86.285156 " fill-opacity="1" fill-rule="nonzero"/><g clip-path="url(#195c380b26)"><path fill="#ffffff" d="M 566.144531 45.667969 C 566.140625 46.085938 566.0625 46.488281 565.902344 46.875 C 565.742188 47.261719 565.515625 47.601562 565.21875 47.898438 C 564.921875 48.195312 564.582031 48.421875 564.195312 48.582031 C 563.808594 48.742188 563.40625 48.824219 562.988281 48.824219 C 562.566406 48.824219 562.164062 48.742188 561.777344 48.582031 C 561.390625 48.421875 561.050781 48.195312 560.753906 47.898438 C 560.457031 47.601562 560.230469 47.261719 560.070312 46.875 C 559.910156 46.488281 559.832031 46.085938 559.832031 45.667969 C 559.832031 45.25 559.910156 44.847656 560.070312 44.460938 C 560.230469 44.074219 560.457031 43.730469 560.753906 43.4375 C 561.050781 43.140625 561.390625 42.910156 561.777344 42.75 C 562.164062 42.589844 562.566406 42.511719 562.988281 42.511719 C 563.40625 42.511719 563.808594 42.589844 564.195312 42.75 C 564.582031 42.910156 564.921875 43.140625 565.21875 43.4375 C 565.515625 43.730469 565.742188 44.074219 565.902344 44.460938 C 566.0625 44.847656 566.140625 45.25 566.144531 45.667969 Z M 566.144531 45.667969 " fill-opacity="1" fill-rule="nonzero"/></g><path fill="#ffffff" d="M 499.675781 73.019531 C 499.675781 73.4375 499.597656 73.839844 499.4375 74.226562 C 499.277344 74.613281 499.046875 74.953125 498.75 75.25 C 498.457031 75.546875 498.113281 75.773438 497.726562 75.933594 C 497.339844 76.09375 496.9375 76.175781 496.519531 76.175781 C 496.101562 76.175781 495.699219 76.09375 495.3125 75.933594 C 494.925781 75.773438 494.585938 75.546875 494.289062 75.25 C 493.992188 74.953125 493.765625 74.613281 493.605469 74.226562 C 493.445312 73.839844 493.363281 73.4375 493.363281 73.019531 C 493.363281 72.597656 493.445312 72.195312 493.605469 71.808594 C 493.765625 71.421875 493.992188 71.082031 494.289062 70.785156 C 494.585938 70.488281 494.925781 70.261719 495.3125 70.101562 C 495.699219 69.941406 496.101562 69.863281 496.519531 69.863281 C 496.9375 69.863281 497.339844 69.941406 497.726562 70.101562 C 498.113281 70.261719 498.457031 70.488281 498.75 70.785156 C 499.046875 71.082031 499.277344 71.421875 499.4375 71.808594 C 499.597656 72.195312 499.675781 72.597656 499.675781 73.019531 Z M 499.675781 73.019531 " fill-opacity="1" fill-rule="nonzero"/><path fill="#ffffff" d="M 531.976562 132.601562 C 531.976562 133.019531 531.898438 133.421875 531.738281 133.808594 C 531.578125 134.195312 531.347656 134.535156 531.054688 134.832031 C 530.757812 135.128906 530.414062 135.355469 530.027344 135.515625 C 529.640625 135.675781 529.238281 135.757812 528.820312 135.757812 C 528.402344 135.757812 528 135.675781 527.613281 135.515625 C 527.226562 135.355469 526.886719 135.128906 526.589844 134.832031 C 526.292969 134.535156 526.066406 134.195312 525.90625 133.808594 C 525.746094 133.421875 525.664062 133.019531 525.664062 132.601562 C 525.664062 132.183594 525.746094 131.78125 525.90625 131.394531 C 526.066406 131.007812 526.292969 130.664062 526.589844 130.367188 C 526.886719 130.074219 527.226562 129.84375 527.613281 129.683594 C 528 129.523438 528.402344 129.445312 528.820312 129.445312 C 529.238281 129.445312 529.640625 129.523438 530.027344 129.683594 C 530.414062 129.84375 530.757812 130.074219 531.054688 130.367188 C 531.347656 130.664062 531.578125 131.007812 531.738281 131.394531 C 531.898438 131.78125 531.976562 132.183594 531.976562 132.601562 Z M 531.976562 132.601562 " fill-opacity="1" fill-rule="nonzero"/><path fill="#ffffff" d="M 540.488281 4.765625 C 540.488281 5.183594 540.40625 5.585938 540.246094 5.972656 C 540.085938 6.359375 539.859375 6.699219 539.5625 6.996094 C 539.265625 7.292969 538.925781 7.519531 538.539062 7.679688 C 538.152344 7.839844 537.75 7.921875 537.332031 7.921875 C 536.914062 7.921875 536.511719 7.839844 536.125 7.679688 C 535.738281 7.519531 535.394531 7.292969 535.101562 6.996094 C 534.804688 6.699219 534.574219 6.359375 534.414062 5.972656 C 534.253906 5.585938 534.175781 5.183594 534.175781 4.765625 C 534.175781 4.34375 534.253906 3.941406 534.414062 3.554688 C 534.574219 3.167969 534.804688 2.828125 535.101562 2.53125 C 535.394531 2.234375 535.738281 2.007812 536.125 1.847656 C 536.511719 1.6875 536.914062 1.609375 537.332031 1.609375 C 537.75 1.609375 538.152344 1.6875 538.539062 1.847656 C 538.925781 2.007812 539.265625 2.234375 539.5625 2.53125 C 539.859375 2.828125 540.085938 3.167969 540.246094 3.554688 C 540.40625 3.941406 540.488281 4.34375 540.488281 4.765625 Z M 540.488281 4.765625 " fill-opacity="1" fill-rule="nonzero"/><g clip-path="url(#f04aab2fe7)"><path fill="#ffffff" d="M 435.785156 220.707031 C 435.785156 221.128906 435.707031 221.53125 435.546875 221.917969 C 435.386719 222.304688 435.15625 222.644531 434.859375 222.941406 C 434.566406 223.234375 434.222656 223.464844 433.835938 223.625 C 433.449219 223.785156 433.046875 223.863281 432.628906 223.863281 C 432.210938 223.863281 431.808594 223.785156 431.421875 223.625 C 431.035156 223.464844 430.695312 223.234375 430.398438 222.941406 C 430.101562 222.644531 429.875 222.304688 429.714844 221.917969 C 429.554688 221.53125 429.472656 221.128906 429.472656 220.707031 C 429.472656 220.289062 429.554688 219.886719 429.714844 219.5 C 429.875 219.113281 430.101562 218.773438 430.398438 218.476562 C 430.695312 218.179688 431.035156 217.953125 431.421875 217.792969 C 431.808594 217.632812 432.210938 217.550781 432.628906 217.550781 C 433.046875 217.550781 433.449219 217.632812 433.835938 217.792969 C 434.222656 217.953125 434.566406 218.179688 434.859375 218.476562 C 435.15625 218.773438 435.386719 219.113281 435.546875 219.5 C 435.707031 219.886719 435.785156 220.289062 435.785156 220.707031 Z M 435.785156 220.707031 " fill-opacity="1" fill-rule="nonzero"/></g><path fill="#ffffff" d="M 360.648438 198.027344 C 360.648438 198.445312 360.566406 198.847656 360.40625 199.234375 C 360.246094 199.621094 360.019531 199.960938 359.722656 200.257812 C 359.425781 200.554688 359.085938 200.78125 358.699219 200.941406 C 358.3125 201.101562 357.910156 201.183594 357.492188 201.183594 C 357.070312 201.183594 356.667969 201.101562 356.28125 200.941406 C 355.894531 200.78125 355.554688 200.554688 355.257812 200.257812 C 354.964844 199.960938 354.734375 199.621094 354.574219 199.234375 C 354.414062 198.847656 354.335938 198.445312 354.335938 198.027344 C 354.335938 197.609375 354.414062 197.207031 354.574219 196.820312 C 354.734375 196.433594 354.964844 196.089844 355.257812 195.796875 C 355.554688 195.5 355.894531 195.269531 356.28125 195.109375 C 356.667969 194.949219 357.070312 194.871094 357.492188 194.871094 C 357.910156 194.871094 358.3125 194.949219 358.699219 195.109375 C 359.085938 195.269531 359.425781 195.5 359.722656 195.796875 C 360.019531 196.089844 360.246094 196.433594 360.40625 196.820312 C 360.566406 197.207031 360.648438 197.609375 360.648438 198.027344 Z M 360.648438 198.027344 " fill-opacity="1" fill-rule="nonzero"/><path fill="#ffffff" d="M 246.664062 217.550781 C 246.664062 217.972656 246.582031 218.375 246.421875 218.761719 C 246.261719 219.148438 246.035156 219.488281 245.738281 219.785156 C 245.441406 220.078125 245.101562 220.308594 244.714844 220.46875 C 244.328125 220.628906 243.925781 220.707031 243.507812 220.707031 C 243.085938 220.707031 242.683594 220.628906 242.296875 220.46875 C 241.910156 220.308594 241.570312 220.078125 241.273438 219.785156 C 240.976562 219.488281 240.75 219.148438 240.589844 218.761719 C 240.429688 218.375 240.351562 217.972656 240.351562 217.550781 C 240.351562 217.132812 240.429688 216.730469 240.589844 216.34375 C 240.75 215.957031 240.976562 215.617188 241.273438 215.320312 C 241.570312 215.023438 241.910156 214.796875 242.296875 214.636719 C 242.683594 214.476562 243.085938 214.394531 243.507812 214.394531 C 243.925781 214.394531 244.328125 214.476562 244.714844 214.636719 C 245.101562 214.796875 245.441406 215.023438 245.738281 215.320312 C 246.035156 215.617188 246.261719 215.957031 246.421875 216.34375 C 246.582031 216.730469 246.664062 217.132812 246.664062 217.550781 Z M 246.664062 217.550781 " fill-opacity="1" fill-rule="nonzero"/><path fill="#ffffff" d="M 242.953125 170.320312 C 242.953125 170.742188 242.871094 171.144531 242.710938 171.53125 C 242.550781 171.917969 242.324219 172.257812 242.027344 172.554688 C 241.730469 172.851562 241.390625 173.078125 241.003906 173.238281 C 240.617188 173.398438 240.214844 173.476562 239.796875 173.476562 C 239.378906 173.476562 238.976562 173.398438 238.589844 173.238281 C 238.203125 173.078125 237.859375 172.851562 237.5625 172.554688 C 237.269531 172.257812 237.039062 171.917969 236.878906 171.53125 C 236.71875 171.144531 236.640625 170.742188 236.640625 170.320312 C 236.640625 169.902344 236.71875 169.5 236.878906 169.113281 C 237.039062 168.726562 237.269531 168.386719 237.5625 168.089844 C 237.859375 167.792969 238.203125 167.566406 238.589844 167.40625 C 238.976562 167.246094 239.378906 167.164062 239.796875 167.164062 C 240.214844 167.164062 240.617188 167.246094 241.003906 167.40625 C 241.390625 167.566406 241.730469 167.792969 242.027344 168.089844 C 242.324219 168.386719 242.550781 168.726562 242.710938 169.113281 C 242.871094 169.5 242.953125 169.902344 242.953125 170.320312 Z M 242.953125 170.320312 " fill-opacity="1" fill-rule="nonzero"/><path fill="#ffffff" d="M 189.675781 184.132812 C 189.675781 184.550781 189.59375 184.953125 189.433594 185.339844 C 189.273438 185.726562 189.046875 186.070312 188.75 186.367188 C 188.453125 186.660156 188.113281 186.890625 187.726562 187.050781 C 187.339844 187.210938 186.9375 187.289062 186.519531 187.289062 C 186.101562 187.289062 185.699219 187.210938 185.3125 187.050781 C 184.925781 186.890625 184.582031 186.660156 184.285156 186.367188 C 183.992188 186.070312 183.761719 185.726562 183.601562 185.339844 C 183.441406 184.953125 183.363281 184.550781 183.363281 184.132812 C 183.363281 183.714844 183.441406 183.3125 183.601562 182.925781 C 183.761719 182.539062 183.992188 182.199219 184.285156 181.902344 C 184.582031 181.605469 184.925781 181.378906 185.3125 181.21875 C 185.699219 181.058594 186.101562 180.976562 186.519531 180.976562 C 186.9375 180.976562 187.339844 181.058594 187.726562 181.21875 C 188.113281 181.378906 188.453125 181.605469 188.75 181.902344 C 189.046875 182.199219 189.273438 182.539062 189.433594 182.925781 C 189.59375 183.3125 189.675781 183.714844 189.675781 184.132812 Z M 189.675781 184.132812 " fill-opacity="1" fill-rule="nonzero"/><path fill="#ffffff" d="M 108.898438 175.796875 C 108.898438 176.21875 108.816406 176.621094 108.65625 177.007812 C 108.496094 177.394531 108.269531 177.734375 107.972656 178.03125 C 107.675781 178.328125 107.335938 178.554688 106.949219 178.714844 C 106.5625 178.875 106.160156 178.953125 105.742188 178.953125 C 105.324219 178.953125 104.921875 178.875 104.535156 178.714844 C 104.148438 178.554688 103.804688 178.328125 103.511719 178.03125 C 103.214844 177.734375 102.984375 177.394531 102.824219 177.007812 C 102.664062 176.621094 102.585938 176.21875 102.585938 175.796875 C 102.585938 175.378906 102.664062 174.976562 102.824219 174.589844 C 102.984375 174.203125 103.214844 173.863281 103.511719 173.566406 C 103.804688 173.269531 104.148438 173.042969 104.535156 172.882812 C 104.921875 172.722656 105.324219 172.640625 105.742188 172.640625 C 106.160156 172.640625 106.5625 172.722656 106.949219 172.882812 C 107.335938 173.042969 107.675781 173.269531 107.972656 173.566406 C 108.269531 173.863281 108.496094 174.203125 108.65625 174.589844 C 108.816406 174.976562 108.898438 175.378906 108.898438 175.796875 Z M 108.898438 175.796875 " fill-opacity="1" fill-rule="nonzero"/><path fill="#ffffff" d="M 19.183594 141.59375 C 19.183594 142.011719 19.105469 142.414062 18.945312 142.800781 C 18.785156 143.1875 18.554688 143.527344 18.261719 143.824219 C 17.964844 144.121094 17.625 144.347656 17.238281 144.507812 C 16.851562 144.667969 16.445312 144.75 16.027344 144.75 C 15.609375 144.75 15.207031 144.667969 14.820312 144.507812 C 14.433594 144.347656 14.09375 144.121094 13.796875 143.824219 C 13.5 143.527344 13.273438 143.1875 13.113281 142.800781 C 12.953125 142.414062 12.871094 142.011719 12.871094 141.59375 C 12.871094 141.171875 12.953125 140.769531 13.113281 140.382812 C 13.273438 139.996094 13.5 139.65625 13.796875 139.359375 C 14.09375 139.0625 14.433594 138.835938 14.820312 138.675781 C 15.207031 138.515625 15.609375 138.4375 16.027344 138.4375 C 16.445312 138.4375 16.851562 138.515625 17.238281 138.675781 C 17.625 138.835938 17.964844 139.0625 18.261719 139.359375 C 18.554688 139.65625 18.785156 139.996094 18.945312 140.382812 C 19.105469 140.769531 19.183594 141.171875 19.183594 141.59375 Z M 19.183594 141.59375 " fill-opacity="1" fill-rule="nonzero"/><g clip-path="url(#f6032f58c5)"><path fill="#ffffff" d="M 7.160156 92.597656 C 7.160156 93.015625 7.078125 93.417969 6.917969 93.804688 C 6.757812 94.191406 6.53125 94.53125 6.234375 94.828125 C 5.9375 95.125 5.597656 95.351562 5.210938 95.511719 C 4.824219 95.671875 4.421875 95.753906 4.003906 95.753906 C 3.582031 95.753906 3.179688 95.671875 2.792969 95.511719 C 2.40625 95.351562 2.066406 95.125 1.769531 94.828125 C 1.476562 94.53125 1.246094 94.191406 1.085938 93.804688 C 0.925781 93.417969 0.847656 93.015625 0.847656 92.597656 C 0.847656 92.179688 0.925781 91.777344 1.085938 91.390625 C 1.246094 91.003906 1.476562 90.660156 1.769531 90.367188 C 2.066406 90.070312 2.40625 89.839844 2.792969 89.679688 C 3.179688 89.519531 3.582031 89.441406 4.003906 89.441406 C 4.421875 89.441406 4.824219 89.519531 5.210938 89.679688 C 5.597656 89.839844 5.9375 90.070312 6.234375 90.367188 C 6.53125 90.660156 6.757812 91.003906 6.917969 91.390625 C 7.078125 91.777344 7.160156 92.179688 7.160156 92.597656 Z M 7.160156 92.597656 " fill-opacity="1" fill-rule="nonzero"/></g><g clip-path="url(#2c54a31226)"><path fill="#ffffff" d="M 7.160156 24.726562 C 7.160156 25.144531 7.078125 25.546875 6.917969 25.933594 C 6.757812 26.320312 6.53125 26.660156 6.234375 26.957031 C 5.9375 27.253906 5.597656 27.480469 5.210938 27.640625 C 4.824219 27.800781 4.421875 27.882812 4.003906 27.882812 C 3.582031 27.882812 3.179688 27.800781 2.792969 27.640625 C 2.40625 27.480469 2.066406 27.253906 1.769531 26.957031 C 1.476562 26.660156 1.246094 26.320312 1.085938 25.933594 C 0.925781 25.546875 0.847656 25.144531 0.847656 24.726562 C 0.847656 24.308594 0.925781 23.90625 1.085938 23.519531 C 1.246094 23.132812 1.476562 22.789062 1.769531 22.496094 C 2.066406 22.199219 2.40625 21.96875 2.792969 21.808594 C 3.179688 21.648438 3.582031 21.570312 4.003906 21.570312 C 4.421875 21.570312 4.824219 21.648438 5.210938 21.808594 C 5.597656 21.96875 5.9375 22.199219 6.234375 22.496094 C 6.53125 22.789062 6.757812 23.132812 6.917969 23.519531 C 7.078125 23.90625 7.160156 24.308594 7.160156 24.726562 Z M 7.160156 24.726562 " fill-opacity="1" fill-rule="nonzero"/></g><path fill="#ffffff" d="M 44.585938 21.570312 C 44.585938 21.988281 44.503906 22.390625 44.34375 22.777344 C 44.183594 23.164062 43.957031 23.503906 43.660156 23.800781 C 43.363281 24.097656 43.023438 24.324219 42.636719 24.484375 C 42.25 24.644531 41.847656 24.726562 41.429688 24.726562 C 41.011719 24.726562 40.609375 24.644531 40.222656 24.484375 C 39.835938 24.324219 39.492188 24.097656 39.195312 23.800781 C 38.902344 23.503906 38.671875 23.164062 38.511719 22.777344 C 38.351562 22.390625 38.273438 21.988281 38.273438 21.570312 C 38.273438 21.152344 38.351562 20.75 38.511719 20.363281 C 38.671875 19.976562 38.902344 19.632812 39.195312 19.339844 C 39.492188 19.042969 39.835938 18.8125 40.222656 18.652344 C 40.609375 18.492188 41.011719 18.414062 41.429688 18.414062 C 41.847656 18.414062 42.25 18.492188 42.636719 18.652344 C 43.023438 18.8125 43.363281 19.042969 43.660156 19.339844 C 43.957031 19.632812 44.183594 19.976562 44.34375 20.363281 C 44.503906 20.75 44.585938 21.152344 44.585938 21.570312 Z M 44.585938 21.570312 " fill-opacity="1" fill-rule="nonzero"/><path fill="#ffffff" d="M 363.804688 147.90625 C 363.804688 148.324219 363.722656 148.726562 363.5625 149.113281 C 363.402344 149.5 363.175781 149.839844 362.878906 150.136719 C 362.582031 150.433594 362.242188 150.660156 361.855469 150.820312 C 361.46875 150.980469 361.066406 151.0625 360.648438 151.0625 C 360.226562 151.0625 359.824219 150.980469 359.4375 150.820312 C 359.050781 150.660156 358.710938 150.433594 358.414062 150.136719 C 358.121094 149.839844 357.890625 149.5 357.730469 149.113281 C 357.570312 148.726562 357.492188 148.324219 357.492188 147.90625 C 357.492188 147.484375 357.570312 147.082031 357.730469 146.695312 C 357.890625 146.308594 358.121094 145.96875 358.414062 145.671875 C 358.710938 145.375 359.050781 145.148438 359.4375 144.988281 C 359.824219 144.828125 360.226562 144.75 360.648438 144.75 C 361.066406 144.75 361.46875 144.828125 361.855469 144.988281 C 362.242188 145.148438 362.582031 145.375 362.878906 145.671875 C 363.175781 145.96875 363.402344 146.308594 363.5625 146.695312 C 363.722656 147.082031 363.804688 147.484375 363.804688 147.90625 Z M 363.804688 147.90625 " fill-opacity="1" fill-rule="nonzero"/><path fill="#ffffff" d="M 220.363281 118.25 C 220.363281 118.667969 220.28125 119.070312 220.121094 119.457031 C 219.960938 119.84375 219.734375 120.1875 219.4375 120.484375 C 219.140625 120.777344 218.800781 121.007812 218.414062 121.167969 C 218.027344 121.328125 217.625 121.40625 217.207031 121.40625 C 216.789062 121.40625 216.386719 121.328125 216 121.167969 C 215.613281 121.007812 215.269531 120.777344 214.972656 120.484375 C 214.679688 120.1875 214.449219 119.84375 214.289062 119.457031 C 214.128906 119.070312 214.050781 118.667969 214.050781 118.25 C 214.050781 117.832031 214.128906 117.429688 214.289062 117.042969 C 214.449219 116.65625 214.679688 116.316406 214.972656 116.019531 C 215.269531 115.722656 215.613281 115.496094 216 115.335938 C 216.386719 115.175781 216.789062 115.09375 217.207031 115.09375 C 217.625 115.09375 218.027344 115.175781 218.414062 115.335938 C 218.800781 115.496094 219.140625 115.722656 219.4375 116.019531 C 219.734375 116.316406 219.960938 116.65625 220.121094 117.042969 C 220.28125 117.429688 220.363281 117.832031 220.363281 118.25 Z M 220.363281 118.25 " fill-opacity="1" fill-rule="nonzero"/><path fill="#ffffff" d="M 178.167969 75.484375 C 178.167969 75.90625 178.085938 76.308594 177.925781 76.695312 C 177.765625 77.082031 177.539062 77.421875 177.242188 77.71875 C 176.945312 78.015625 176.605469 78.242188 176.21875 78.402344 C 175.832031 78.5625 175.429688 78.640625 175.011719 78.640625 C 174.589844 78.640625 174.1875 78.5625 173.800781 78.402344 C 173.414062 78.242188 173.074219 78.015625 172.777344 77.71875 C 172.480469 77.421875 172.253906 77.082031 172.09375 76.695312 C 171.933594 76.308594 171.855469 75.90625 171.855469 75.484375 C 171.855469 75.066406 171.933594 74.664062 172.09375 74.277344 C 172.253906 73.890625 172.480469 73.550781 172.777344 73.253906 C 173.074219 72.957031 173.414062 72.730469 173.800781 72.570312 C 174.1875 72.410156 174.589844 72.332031 175.011719 72.332031 C 175.429688 72.332031 175.832031 72.410156 176.21875 72.570312 C 176.605469 72.730469 176.945312 72.957031 177.242188 73.253906 C 177.539062 73.550781 177.765625 73.890625 177.925781 74.277344 C 178.085938 74.664062 178.167969 75.066406 178.167969 75.484375 Z M 178.167969 75.484375 " fill-opacity="1" fill-rule="nonzero"/><path fill="#ffffff" d="M 213.558594 48.824219 C 213.558594 49.242188 213.476562 49.644531 213.316406 50.03125 C 213.15625 50.417969 212.929688 50.757812 212.632812 51.054688 C 212.335938 51.351562 211.996094 51.578125 211.609375 51.738281 C 211.222656 51.898438 210.820312 51.980469 210.402344 51.980469 C 209.984375 51.980469 209.582031 51.898438 209.195312 51.738281 C 208.808594 51.578125 208.464844 51.351562 208.167969 51.054688 C 207.875 50.757812 207.644531 50.417969 207.484375 50.03125 C 207.324219 49.644531 207.246094 49.242188 207.246094 48.824219 C 207.246094 48.40625 207.324219 48.003906 207.484375 47.617188 C 207.644531 47.230469 207.875 46.886719 208.167969 46.59375 C 208.464844 46.296875 208.808594 46.066406 209.195312 45.90625 C 209.582031 45.746094 209.984375 45.667969 210.402344 45.667969 C 210.820312 45.667969 211.222656 45.746094 211.609375 45.90625 C 211.996094 46.066406 212.335938 46.296875 212.632812 46.59375 C 212.929688 46.886719 213.15625 47.230469 213.316406 47.617188 C 213.476562 48.003906 213.558594 48.40625 213.558594 48.824219 Z M 213.558594 48.824219 " fill-opacity="1" fill-rule="nonzero"/><path fill="#ffffff" d="M 280.949219 35.613281 C 280.949219 36.03125 280.867188 36.4375 280.707031 36.824219 C 280.546875 37.210938 280.320312 37.550781 280.023438 37.847656 C 279.726562 38.140625 279.386719 38.371094 279 38.53125 C 278.613281 38.691406 278.210938 38.769531 277.792969 38.769531 C 277.375 38.769531 276.96875 38.691406 276.582031 38.53125 C 276.199219 38.371094 275.855469 38.140625 275.558594 37.847656 C 275.265625 37.550781 275.035156 37.210938 274.875 36.824219 C 274.714844 36.4375 274.636719 36.03125 274.636719 35.613281 C 274.636719 35.195312 274.714844 34.792969 274.875 34.40625 C 275.035156 34.019531 275.265625 33.679688 275.558594 33.382812 C 275.855469 33.085938 276.199219 32.859375 276.582031 32.699219 C 276.96875 32.539062 277.375 32.457031 277.792969 32.457031 C 278.210938 32.457031 278.613281 32.539062 279 32.699219 C 279.386719 32.859375 279.726562 33.085938 280.023438 33.382812 C 280.320312 33.679688 280.546875 34.019531 280.707031 34.40625 C 280.867188 34.792969 280.949219 35.195312 280.949219 35.613281 Z M 280.949219 35.613281 " fill-opacity="1" fill-rule="nonzero"/><path fill="#ffffff" d="M 321.707031 89.441406 C 321.707031 89.859375 321.625 90.261719 321.464844 90.648438 C 321.304688 91.035156 321.078125 91.375 320.78125 91.671875 C 320.488281 91.96875 320.144531 92.195312 319.757812 92.355469 C 319.371094 92.515625 318.96875 92.597656 318.550781 92.597656 C 318.132812 92.597656 317.730469 92.515625 317.34375 92.355469 C 316.957031 92.195312 316.613281 91.96875 316.320312 91.671875 C 316.023438 91.375 315.796875 91.035156 315.636719 90.648438 C 315.476562 90.261719 315.394531 89.859375 315.394531 89.441406 C 315.394531 89.023438 315.476562 88.621094 315.636719 88.234375 C 315.796875 87.847656 316.023438 87.503906 316.320312 87.210938 C 316.613281 86.914062 316.957031 86.683594 317.34375 86.523438 C 317.730469 86.363281 318.132812 86.285156 318.550781 86.285156 C 318.96875 86.285156 319.371094 86.363281 319.757812 86.523438 C 320.144531 86.683594 320.488281 86.914062 320.78125 87.210938 C 321.078125 87.503906 321.304688 87.847656 321.464844 88.234375 C 321.625 88.621094 321.707031 89.023438 321.707031 89.441406 Z M 321.707031 89.441406 " fill-opacity="1" fill-rule="nonzero"/><path fill="#ffffff" d="M 47.742188 77.890625 C 47.742188 78.308594 47.660156 78.714844 47.5 79.101562 C 47.339844 79.488281 47.113281 79.828125 46.816406 80.125 C 46.519531 80.417969 46.179688 80.648438 45.792969 80.808594 C 45.40625 80.96875 45.003906 81.046875 44.585938 81.046875 C 44.167969 81.046875 43.765625 80.96875 43.378906 80.808594 C 42.992188 80.648438 42.648438 80.417969 42.351562 80.125 C 42.058594 79.828125 41.828125 79.488281 41.667969 79.101562 C 41.507812 78.714844 41.429688 78.308594 41.429688 77.890625 C 41.429688 77.472656 41.507812 77.070312 41.667969 76.683594 C 41.828125 76.296875 42.058594 75.957031 42.351562 75.660156 C 42.648438 75.363281 42.992188 75.136719 43.378906 74.976562 C 43.765625 74.816406 44.167969 74.734375 44.585938 74.734375 C 45.003906 74.734375 45.40625 74.816406 45.792969 74.976562 C 46.179688 75.136719 46.519531 75.363281 46.816406 75.660156 C 47.113281 75.957031 47.339844 76.296875 47.5 76.683594 C 47.660156 77.070312 47.742188 77.472656 47.742188 77.890625 Z M 47.742188 77.890625 " fill-opacity="1" fill-rule="nonzero"/><path fill="#ffffff" d="M 85.714844 48.824219 C 85.714844 49.242188 85.636719 49.644531 85.476562 50.03125 C 85.316406 50.417969 85.085938 50.757812 84.792969 51.054688 C 84.496094 51.351562 84.152344 51.578125 83.765625 51.738281 C 83.382812 51.898438 82.976562 51.980469 82.558594 51.980469 C 82.140625 51.980469 81.738281 51.898438 81.351562 51.738281 C 80.964844 51.578125 80.625 51.351562 80.328125 51.054688 C 80.03125 50.757812 79.804688 50.417969 79.644531 50.03125 C 79.484375 49.644531 79.402344 49.242188 79.402344 48.824219 C 79.402344 48.40625 79.484375 48.003906 79.644531 47.617188 C 79.804688 47.230469 80.03125 46.886719 80.328125 46.59375 C 80.625 46.296875 80.964844 46.066406 81.351562 45.90625 C 81.738281 45.746094 82.140625 45.667969 82.558594 45.667969 C 82.976562 45.667969 83.382812 45.746094 83.765625 45.90625 C 84.152344 46.066406 84.496094 46.296875 84.792969 46.59375 C 85.085938 46.886719 85.316406 47.230469 85.476562 47.617188 C 85.636719 48.003906 85.714844 48.40625 85.714844 48.824219 Z M 85.714844 48.824219 " fill-opacity="1" fill-rule="nonzero"/><path fill="#ffffff" d="M 154.484375 98.675781 C 154.484375 99.09375 154.40625 99.496094 154.246094 99.882812 C 154.085938 100.269531 153.855469 100.613281 153.558594 100.90625 C 153.265625 101.203125 152.921875 101.429688 152.535156 101.589844 C 152.148438 101.75 151.746094 101.832031 151.328125 101.832031 C 150.910156 101.832031 150.507812 101.75 150.121094 101.589844 C 149.734375 101.429688 149.394531 101.203125 149.097656 100.90625 C 148.800781 100.613281 148.574219 100.269531 148.414062 99.882812 C 148.253906 99.496094 148.171875 99.09375 148.171875 98.675781 C 148.171875 98.257812 148.253906 97.855469 148.414062 97.46875 C 148.574219 97.082031 148.800781 96.738281 149.097656 96.445312 C 149.394531 96.148438 149.734375 95.917969 150.121094 95.757812 C 150.507812 95.597656 150.910156 95.519531 151.328125 95.519531 C 151.746094 95.519531 152.148438 95.597656 152.535156 95.757812 C 152.921875 95.917969 153.265625 96.148438 153.558594 96.445312 C 153.855469 96.738281 154.085938 97.082031 154.246094 97.46875 C 154.40625 97.855469 154.484375 98.257812 154.484375 98.675781 Z M 154.484375 98.675781 " fill-opacity="1" fill-rule="nonzero"/><path fill="#ffffff" d="M 61.929688 153.699219 C 61.929688 154.117188 61.851562 154.519531 61.691406 154.90625 C 61.53125 155.292969 61.300781 155.636719 61.003906 155.929688 C 60.710938 156.226562 60.367188 156.453125 59.980469 156.613281 C 59.59375 156.773438 59.191406 156.855469 58.773438 156.855469 C 58.355469 156.855469 57.953125 156.773438 57.566406 156.613281 C 57.179688 156.453125 56.839844 156.226562 56.542969 155.929688 C 56.246094 155.636719 56.019531 155.292969 55.859375 154.90625 C 55.699219 154.519531 55.617188 154.117188 55.617188 153.699219 C 55.617188 153.28125 55.699219 152.878906 55.859375 152.492188 C 56.019531 152.105469 56.246094 151.761719 56.542969 151.46875 C 56.839844 151.171875 57.179688 150.945312 57.566406 150.785156 C 57.953125 150.625 58.355469 150.542969 58.773438 150.542969 C 59.191406 150.542969 59.59375 150.625 59.980469 150.785156 C 60.367188 150.945312 60.710938 151.171875 61.003906 151.46875 C 61.300781 151.761719 61.53125 152.105469 61.691406 152.492188 C 61.851562 152.878906 61.929688 153.28125 61.929688 153.699219 Z M 61.929688 153.699219 " fill-opacity="1" fill-rule="nonzero"/><g clip-path="url(#a90b7683c1)"><path fill="#ffffff" d="M 417.003906 181.339844 L 416.664062 181.285156 L 300.949219 162.28125 L 300.902344 162.078125 L 291.535156 119.148438 L 247.957031 124.621094 L 247.09375 123.339844 L 244.269531 128.386719 L 244.152344 128.421875 L 175.027344 150.46875 L 174.945312 150.453125 L 118.582031 138.839844 L 82.25 45.703125 L 75.308594 -15.121094 L 156.894531 45.410156 L 218.464844 80.253906 L 210.070312 48.785156 L 225.433594 21.085938 L 277.898438 66.863281 L 278.015625 66.855469 L 279.988281 63.332031 L 280.726562 66.714844 L 360.394531 62.59375 L 360.628906 63.082031 L 360.984375 62.273438 L 357.226562 62.332031 L 357.214844 61.710938 L 361.257812 61.648438 L 361.441406 61.234375 L 361.492188 61.1875 L 427.15625 4.417969 L 427.320312 4.46875 L 510.835938 29.675781 L 510.746094 29.972656 L 483.335938 118.425781 L 483.273438 118.480469 L 417.160156 178.644531 Z M 301.464844 161.738281 L 416.425781 180.617188 L 416.523438 178.949219 L 416.4375 178.769531 L 360.660156 64.554688 L 339.363281 113.140625 L 339.191406 113.160156 L 292.152344 119.070312 Z M 421.035156 112.945312 L 417.214844 177.757812 L 482.796875 118.078125 L 510.0625 30.085938 L 427.304688 5.109375 L 361.953125 61.609375 L 361.941406 61.636719 L 451.964844 60.25 Z M 360.988281 63.8125 L 416.597656 177.6875 L 420.425781 112.761719 L 420.460938 112.695312 L 450.871094 60.886719 L 361.667969 62.261719 Z M 119.039062 138.296875 L 174.992188 149.828125 L 243.847656 127.867188 L 246.707031 122.761719 L 218.738281 81.117188 L 156.558594 45.925781 L 156.542969 45.914062 L 76.089844 -13.773438 L 82.863281 45.59375 Z M 247.433594 122.730469 L 248.257812 123.957031 L 291.402344 118.539062 L 280.234375 67.359375 L 278.386719 67.453125 Z M 219.242188 80.753906 L 247.046875 122.15625 L 277.667969 67.476562 L 277.585938 67.410156 L 225.601562 22.054688 L 210.730469 48.867188 Z M 280.863281 67.328125 L 292.019531 118.460938 L 338.9375 112.566406 L 360.304688 63.824219 L 360.015625 63.230469 Z M 279.734375 65.054688 L 278.746094 66.816406 L 280.101562 66.746094 Z M 279.734375 65.054688 " fill-opacity="1" fill-rule="nonzero"/></g><path fill="#ffffff" d="M 82.378906 49.066406 L 82.742188 48.5625 L 152.609375 98.746094 L 152.246094 99.25 Z M 82.378906 49.066406 " fill-opacity="1" fill-rule="nonzero"/><path fill="#ffffff" d="M 159.800781 1.910156 L 159.96875 1.3125 L 225.605469 19.785156 L 225.4375 20.378906 Z M 159.800781 1.910156 " fill-opacity="1" fill-rule="nonzero"/><g clip-path="url(#f3017db8af)"><path fill="#ffffff" d="M 227.671875 20.277344 L 227.199219 19.875 L 259.394531 -17.867188 L 259.46875 -17.894531 L 334.953125 -45 L 335.164062 -44.417969 L 259.757812 -17.339844 Z M 227.671875 20.277344 " fill-opacity="1" fill-rule="nonzero"/></g><path fill="#ffffff" d="M 227.367188 21.257812 L 313.082031 1.296875 L 313.222656 1.898438 L 227.507812 21.859375 Z M 227.367188 21.257812 " fill-opacity="1" fill-rule="nonzero"/><g clip-path="url(#80ac9d3dd4)"><path fill="#ffffff" d="M 360.34375 63.804688 L 366.097656 -14.460938 L 366.714844 -14.414062 L 360.960938 63.847656 Z M 360.34375 63.804688 " fill-opacity="1" fill-rule="nonzero"/></g><g clip-path="url(#abd6efb9ad)"><path fill="#ffffff" d="M 427.230469 4.765625 L 484.023438 -14.445312 " fill-opacity="1" fill-rule="nonzero"/></g><path fill="#ffffff" d="M 482.753906 118.324219 L 483.367188 118.226562 L 491.917969 171.503906 L 491.308594 171.601562 Z M 482.753906 118.324219 " fill-opacity="1" fill-rule="nonzero"/><g clip-path="url(#a66af60fe7)"><path fill="#ffffff" d="M 41.644531 21.792969 L 41.214844 21.347656 C 41.5625 21.011719 76.125 -12.144531 77.167969 -13.382812 L 77.640625 -12.980469 C 76.578125 -11.71875 43.070312 20.425781 41.644531 21.792969 Z M 41.644531 21.792969 " fill-opacity="1" fill-rule="nonzero"/></g><path fill="#ffffff" d="M 3.976562 24.414062 L 42.152344 20.546875 L 42.214844 21.164062 L 4.039062 25.03125 Z M 3.976562 24.414062 " fill-opacity="1" fill-rule="nonzero"/><path fill="#ffffff" d="M 58.863281 153.996094 L 58.683594 153.402344 L 118.636719 135.101562 L 151.03125 98.546875 L 156.382812 49.132812 L 82.664062 49.132812 L 44.734375 78.167969 L 44.691406 78.183594 L 4.109375 92.886719 L 3.898438 92.304688 L 44.433594 77.617188 L 82.457031 48.515625 L 157.074219 48.515625 L 151.742188 97.746094 L 152.03125 97.421875 L 152.339844 98.089844 L 219.625 80.390625 L 176.25 151.199219 L 151.992188 98.820312 L 151.503906 98.949219 L 118.984375 135.640625 L 118.902344 135.667969 Z M 152.601562 98.660156 L 176.328125 149.886719 L 218.289062 81.378906 Z M 152.601562 98.660156 " fill-opacity="1" fill-rule="nonzero"/><path fill="#ffffff" d="M 16.3125 141.71875 L 15.746094 141.464844 L 44.488281 77.351562 L 75.921875 109.480469 L 75.480469 109.914062 L 44.683594 78.433594 Z M 16.3125 141.71875 " fill-opacity="1" fill-rule="nonzero"/><path fill="#ffffff" d="M 105.441406 175.683594 L 118.519531 136.328125 L 119.109375 136.523438 L 106.03125 175.878906 Z M 105.441406 175.683594 " fill-opacity="1" fill-rule="nonzero"/><path fill="#ffffff" d="M 174.710938 150.242188 L 175.300781 150.046875 L 186.808594 185.140625 L 186.21875 185.335938 Z M 174.710938 150.242188 " fill-opacity="1" fill-rule="nonzero"/><path fill="#ffffff" d="M 243.050781 217.84375 L 242.855469 217.257812 L 286.652344 202.65625 L 301.042969 161.539062 L 301.375 161.75 L 357.65625 197.765625 L 357.324219 198.285156 L 301.371094 162.480469 L 287.136719 203.148438 L 286.992188 203.195312 Z M 243.050781 217.84375 " fill-opacity="1" fill-rule="nonzero"/><path fill="#ffffff" d="M 415.996094 177.882812 L 416.578125 177.660156 L 432.914062 220.605469 L 432.335938 220.824219 Z M 415.996094 177.882812 " fill-opacity="1" fill-rule="nonzero"/><path fill="#ffffff" d="M 481.660156 117.554688 L 481.847656 116.960938 L 528.917969 131.738281 L 528.734375 132.328125 Z M 481.660156 117.554688 " fill-opacity="1" fill-rule="nonzero"/><path fill="#ffffff" d="M 543.453125 86.789062 L 450.15625 60.886719 L 450.324219 60.289062 L 542.144531 85.78125 L 507.855469 27.421875 L 564.246094 45.371094 L 564.058594 45.964844 L 509.207031 28.503906 Z M 543.453125 86.789062 " fill-opacity="1" fill-rule="nonzero"/><path fill="#ffffff" d="M 508.53125 29.878906 L 537.332031 4.765625 " fill-opacity="1" fill-rule="nonzero"/><g clip-path="url(#95c6783878)"><path fill="#ffffff" d="M 411.265625 -37.707031 L 411.851562 -37.910156 L 427.523438 6.902344 L 426.9375 7.105469 Z M 411.265625 -37.707031 " fill-opacity="1" fill-rule="nonzero"/></g><path fill="#ffffff" d="M 416.671875 179.433594 L 360.207031 148.015625 L 360.386719 147.734375 L 403.269531 82.097656 L 437.496094 38.792969 L 360.167969 63.25 L 360.050781 63.179688 L 313.070312 35.925781 L 278.101562 35.925781 L 278.101562 67.582031 L 210.464844 49.164062 L 175.808594 75.273438 L 219.28125 80.613281 L 217.527344 117.996094 L 249.324219 124.042969 L 240.101562 170.382812 L 239.492188 170.261719 L 248.59375 124.535156 L 216.882812 118.503906 L 218.632812 81.160156 L 174.210938 75.699219 L 210.335938 48.484375 L 277.480469 66.769531 L 277.480469 35.304688 L 313.234375 35.304688 L 313.308594 35.347656 L 360.242188 62.574219 L 439.230469 37.589844 L 403.769531 82.460938 L 361.089844 147.796875 L 416.972656 178.890625 Z M 416.671875 179.433594 " fill-opacity="1" fill-rule="nonzero"/><path fill="#ffffff" d="M 361.574219 148.070312 L 340.28125 113.898438 L 318.355469 89.6875 L 277.804688 67.535156 L 248.417969 86.453125 L 248.132812 121.410156 L 247.511719 121.40625 L 247.800781 86.113281 L 247.941406 86.023438 L 277.777344 66.816406 L 277.941406 66.902344 L 318.746094 89.195312 L 318.78125 89.230469 L 340.777344 113.523438 L 362.101562 147.742188 Z M 361.574219 148.070312 " fill-opacity="1" fill-rule="nonzero"/><path fill="#ffffff" d="M 152.160156 98.207031 L 151.734375 97.757812 L 174.605469 76.292969 L 156.46875 48.996094 L 156.984375 48.652344 L 175.414062 76.386719 L 175.222656 76.566406 Z M 152.160156 98.207031 " fill-opacity="1" fill-rule="nonzero"/></g></g></g></svg>