<svg xmlns="http://www.w3.org/2000/svg" xmlns:xlink="http://www.w3.org/1999/xlink" width="756" zoomAndPan="magnify" viewBox="0 0 567 567.000005" height="756" preserveAspectRatio="xMidYMid meet" version="1.0"><path fill="#ffffff" d="M 491.277344 336.242188 L 477.378906 276.253906 C 473.597656 259.921875 458.554688 248.003906 441.867188 249.613281 C 421.671875 251.558594 408.335938 270.835938 412.761719 289.949219 L 409.050781 273.929688 C 405.269531 257.601562 390.226562 245.6875 373.542969 247.296875 C 353.34375 249.242188 340.007812 268.515625 344.433594 287.628906 L 340.726562 271.613281 C 336.941406 255.285156 321.898438 243.367188 305.214844 244.976562 C 285.015625 246.921875 271.679688 266.199219 276.109375 285.3125 L 244.230469 147.726562 C 240.132812 130.03125 222.304688 118.910156 204.609375 123.011719 C 186.917969 127.109375 175.792969 144.9375 179.894531 162.632812 L 237.363281 410.691406 C 238.21875 414.378906 233.628906 416.808594 231.042969 414.046875 C 214.582031 396.511719 193.5625 371.367188 193.375 371.136719 C 182.023438 357.261719 161.578125 355.199219 147.6875 366.566406 C 133.808594 377.914062 131.753906 398.363281 143.101562 412.242188 C 144.441406 413.878906 185.445312 463.417969 220.308594 494.519531 C 264.660156 534.097656 298.921875 549.957031 315.664062 556.566406 C 332.40625 563.179688 348.53125 565.710938 357.957031 563.527344 C 367.382812 561.34375 439.433594 544.648438 439.433594 544.648438 C 453.617188 541.363281 465.28125 531.207031 470.710938 517.414062 L 480.730469 491.960938 C 499.761719 443.621094 503.46875 388.867188 491.277344 336.242188 Z M 491.277344 336.242188 " fill-opacity="1" fill-rule="nonzero"/><path fill="#ffffff" d="M 179.011719 70.339844 C 180.640625 77.363281 187.648438 81.734375 194.671875 80.109375 C 201.695312 78.480469 206.066406 71.46875 204.441406 64.449219 L 192.199219 11.617188 C 190.574219 4.59375 183.5625 0.222656 176.539062 1.847656 C 169.519531 3.476562 165.144531 10.484375 166.773438 17.507812 Z M 179.011719 70.339844 " fill-opacity="1" fill-rule="nonzero"/><path fill="#ffffff" d="M 82.683594 89.863281 L 128.699219 118.5625 C 131.757812 120.472656 135.296875 120.957031 138.550781 120.203125 C 141.804688 119.449219 144.769531 117.457031 146.675781 114.398438 C 150.492188 108.28125 148.628906 100.230469 142.511719 96.421875 L 96.496094 67.71875 C 90.378906 63.90625 82.332031 65.769531 78.519531 71.882812 C 74.703125 78 76.566406 86.054688 82.683594 89.863281 Z M 82.683594 89.863281 " fill-opacity="1" fill-rule="nonzero"/><path fill="#ffffff" d="M 136.984375 172.582031 C 135.359375 165.558594 128.347656 161.1875 121.328125 162.8125 L 68.496094 175.054688 C 61.472656 176.679688 57.101562 183.691406 58.726562 190.714844 C 60.355469 197.738281 67.363281 202.109375 74.386719 200.484375 L 127.21875 188.242188 C 134.238281 186.617188 138.613281 179.605469 136.984375 172.582031 Z M 136.984375 172.582031 " fill-opacity="1" fill-rule="nonzero"/><path fill="#ffffff" d="M 287.148438 137.792969 C 288.773438 144.816406 295.785156 149.1875 302.804688 147.5625 L 355.636719 135.324219 C 362.660156 133.695312 367.03125 126.683594 365.40625 119.664062 C 363.777344 112.640625 356.769531 108.265625 349.746094 109.894531 L 296.914062 122.132812 C 289.894531 123.761719 285.519531 130.769531 287.148438 137.792969 Z M 287.148438 137.792969 " fill-opacity="1" fill-rule="nonzero"/><path fill="#ffffff" d="M 252.855469 89.796875 C 255.914062 91.707031 259.453125 92.191406 262.707031 91.441406 C 265.960938 90.6875 268.925781 88.691406 270.832031 85.632812 L 299.535156 39.621094 C 303.351562 33.507812 301.488281 25.460938 295.371094 21.644531 C 289.253906 17.828125 281.207031 19.691406 277.394531 25.808594 L 248.691406 71.820312 C 244.875 77.9375 246.738281 85.980469 252.855469 89.796875 Z M 252.855469 89.796875 " fill-opacity="1" fill-rule="nonzero"/></svg>