<svg xmlns="http://www.w3.org/2000/svg" xmlns:xlink="http://www.w3.org/1999/xlink" width="756" zoomAndPan="magnify" viewBox="0 0 567 567.000005" height="756" preserveAspectRatio="xMidYMid meet" version="1.0"><path fill="#ffffff" d="M 109.789062 317.113281 C 109.789062 319.953125 109.859375 322.796875 109.996094 325.632812 C 110.136719 328.472656 110.34375 331.304688 110.625 334.132812 C 110.902344 336.960938 111.25 339.78125 111.667969 342.59375 C 112.085938 345.402344 112.570312 348.203125 113.125 350.988281 C 113.679688 353.777344 114.300781 356.550781 114.992188 359.304688 C 115.683594 362.0625 116.441406 364.800781 117.265625 367.519531 C 118.089844 370.238281 118.980469 372.9375 119.9375 375.613281 C 120.894531 378.289062 121.917969 380.9375 123.007812 383.566406 C 124.09375 386.191406 125.246094 388.789062 126.460938 391.355469 C 127.675781 393.925781 128.953125 396.464844 130.292969 398.96875 C 131.632812 401.476562 133.03125 403.949219 134.492188 406.386719 C 135.953125 408.824219 137.472656 411.222656 139.050781 413.585938 C 140.632812 415.949219 142.265625 418.269531 143.960938 420.554688 C 145.652344 422.835938 147.402344 425.078125 149.203125 427.273438 C 151.007812 429.46875 152.863281 431.621094 154.769531 433.726562 C 156.679688 435.832031 158.636719 437.890625 160.648438 439.898438 C 162.65625 441.910156 164.714844 443.867188 166.820312 445.777344 C 168.925781 447.683594 171.078125 449.539062 173.273438 451.34375 C 175.472656 453.144531 177.710938 454.894531 179.992188 456.585938 C 182.277344 458.28125 184.597656 459.914062 186.960938 461.496094 C 189.324219 463.074219 191.726562 464.59375 194.164062 466.054688 C 196.601562 467.515625 199.070312 468.914062 201.578125 470.253906 C 204.085938 471.59375 206.621094 472.871094 209.191406 474.085938 C 211.761719 475.300781 214.355469 476.453125 216.984375 477.542969 C 219.609375 478.628906 222.257812 479.652344 224.933594 480.609375 C 227.609375 481.566406 230.308594 482.457031 233.027344 483.28125 C 235.746094 484.105469 238.484375 484.863281 241.242188 485.554688 C 244 486.246094 246.769531 486.867188 249.558594 487.421875 C 252.34375 487.976562 255.144531 488.460938 257.953125 488.878906 C 260.765625 489.296875 263.585938 489.644531 266.414062 489.921875 C 269.242188 490.203125 272.074219 490.410156 274.914062 490.550781 C 277.753906 490.691406 280.59375 490.757812 283.433594 490.757812 C 286.277344 490.757812 289.117188 490.691406 291.953125 490.550781 C 294.792969 490.410156 297.625 490.203125 300.453125 489.921875 C 303.28125 489.644531 306.101562 489.296875 308.914062 488.878906 C 311.722656 488.460938 314.523438 487.976562 317.3125 487.421875 C 320.097656 486.867188 322.871094 486.246094 325.625 485.554688 C 328.382812 484.863281 331.121094 484.105469 333.839844 483.28125 C 336.558594 482.457031 339.257812 481.566406 341.933594 480.609375 C 344.609375 479.652344 347.261719 478.628906 349.886719 477.542969 C 352.511719 476.453125 355.109375 475.300781 357.675781 474.085938 C 360.246094 472.871094 362.785156 471.59375 365.289062 470.253906 C 367.796875 468.914062 370.269531 467.515625 372.707031 466.054688 C 375.144531 464.59375 377.542969 463.074219 379.90625 461.496094 C 382.269531 459.914062 384.59375 458.28125 386.875 456.585938 C 389.15625 454.894531 391.398438 453.144531 393.59375 451.34375 C 395.789062 449.539062 397.941406 447.683594 400.046875 445.777344 C 402.152344 443.867188 404.210938 441.910156 406.21875 439.898438 C 408.230469 437.890625 410.1875 435.832031 412.097656 433.726562 C 414.007812 431.621094 415.863281 429.46875 417.664062 427.273438 C 419.46875 425.078125 421.214844 422.835938 422.90625 420.554688 C 424.601562 418.269531 426.238281 415.949219 427.816406 413.585938 C 429.394531 411.222656 430.914062 408.824219 432.375 406.386719 C 433.835938 403.949219 435.238281 401.476562 436.578125 398.96875 C 437.917969 396.464844 439.195312 393.925781 440.410156 391.355469 C 441.625 388.789062 442.773438 386.191406 443.863281 383.566406 C 444.949219 380.9375 445.972656 378.289062 446.929688 375.613281 C 447.886719 372.9375 448.777344 370.238281 449.601562 367.519531 C 450.429688 364.800781 451.1875 362.0625 451.875 359.304688 C 452.566406 356.550781 453.1875 353.777344 453.742188 350.988281 C 454.296875 348.203125 454.785156 345.402344 455.199219 342.59375 C 455.617188 339.78125 455.964844 336.960938 456.246094 334.132812 C 456.523438 331.304688 456.730469 328.472656 456.871094 325.632812 C 457.011719 322.796875 457.082031 319.953125 457.082031 317.113281 C 457.082031 314.269531 457.011719 311.429688 456.871094 308.59375 C 456.730469 305.753906 456.523438 302.921875 456.246094 300.09375 C 455.964844 297.265625 455.617188 294.445312 455.199219 291.632812 C 454.785156 288.824219 454.296875 286.023438 453.742188 283.234375 C 453.1875 280.449219 452.566406 277.675781 451.875 274.921875 C 451.1875 272.164062 450.429688 269.425781 449.601562 266.707031 C 448.777344 263.988281 447.886719 261.289062 446.929688 258.613281 C 445.972656 255.9375 444.949219 253.285156 443.863281 250.660156 C 442.773438 248.035156 441.625 245.4375 440.410156 242.871094 C 439.195312 240.300781 437.917969 237.761719 436.578125 235.257812 C 435.238281 232.75 433.835938 230.277344 432.375 227.839844 C 430.914062 225.402344 429.394531 223.003906 427.816406 220.640625 C 426.238281 218.277344 424.601562 215.953125 422.90625 213.671875 C 421.214844 211.390625 419.46875 209.148438 417.664062 206.953125 C 415.863281 204.757812 414.007812 202.605469 412.097656 200.5 C 410.1875 198.394531 408.230469 196.335938 406.21875 194.328125 C 404.210938 192.316406 402.152344 190.359375 400.046875 188.449219 C 397.941406 186.542969 395.789062 184.683594 393.59375 182.882812 C 391.398438 181.078125 389.15625 179.332031 386.875 177.640625 C 384.59375 175.945312 382.269531 174.308594 379.90625 172.730469 C 377.542969 171.152344 375.144531 169.632812 372.707031 168.171875 C 370.269531 166.710938 367.796875 165.308594 365.289062 163.96875 C 362.785156 162.632812 360.246094 161.355469 357.675781 160.136719 C 355.109375 158.921875 352.511719 157.773438 349.886719 156.683594 C 347.261719 155.597656 344.609375 154.574219 341.933594 153.617188 C 339.257812 152.660156 336.558594 151.769531 333.839844 150.945312 C 331.121094 150.117188 328.382812 149.359375 325.625 148.671875 C 322.871094 147.980469 320.097656 147.359375 317.3125 146.804688 C 314.523438 146.25 311.722656 145.761719 308.914062 145.347656 C 306.101562 144.929688 303.28125 144.582031 300.453125 144.304688 C 297.625 144.023438 294.792969 143.816406 291.953125 143.675781 C 289.117188 143.535156 286.277344 143.464844 283.433594 143.464844 C 280.59375 143.46875 277.753906 143.542969 274.917969 143.683594 C 272.078125 143.828125 269.246094 144.039062 266.417969 144.320312 C 263.59375 144.601562 260.773438 144.949219 257.964844 145.371094 C 255.152344 145.789062 252.355469 146.277344 249.570312 146.832031 C 246.785156 147.390625 244.011719 148.015625 241.257812 148.707031 C 238.503906 149.398438 235.765625 150.15625 233.046875 150.984375 C 230.328125 151.8125 227.632812 152.703125 224.957031 153.660156 C 222.285156 154.621094 219.636719 155.644531 217.011719 156.734375 C 214.386719 157.820312 211.789062 158.972656 209.222656 160.191406 C 206.65625 161.40625 204.117188 162.683594 201.613281 164.023438 C 199.109375 165.363281 196.636719 166.765625 194.203125 168.226562 C 191.765625 169.6875 189.367188 171.207031 187.003906 172.785156 C 184.640625 174.367188 182.320312 176 180.039062 177.695312 C 177.757812 179.386719 175.519531 181.136719 173.324219 182.9375 C 171.125 184.742188 168.976562 186.59375 166.871094 188.503906 C 164.765625 190.410156 162.710938 192.371094 160.699219 194.378906 C 158.691406 196.386719 156.734375 198.445312 154.824219 200.550781 C 152.917969 202.65625 151.0625 204.804688 149.257812 207 C 147.457031 209.199219 145.707031 211.4375 144.015625 213.71875 C 142.324219 216 140.6875 218.320312 139.109375 220.683594 C 137.527344 223.042969 136.007812 225.445312 134.546875 227.878906 C 133.085938 230.316406 131.683594 232.789062 130.34375 235.292969 C 129.003906 237.796875 127.726562 240.332031 126.511719 242.902344 C 125.292969 245.46875 124.144531 248.066406 123.054688 250.6875 C 121.964844 253.3125 120.941406 255.964844 119.984375 258.636719 C 119.023438 261.3125 118.132812 264.007812 117.304688 266.726562 C 116.480469 269.445312 115.71875 272.179688 115.027344 274.9375 C 114.335938 277.691406 113.710938 280.460938 113.152344 283.25 C 112.597656 286.035156 112.109375 288.832031 111.691406 291.644531 C 111.273438 294.453125 110.921875 297.269531 110.640625 300.097656 C 110.359375 302.925781 110.148438 305.757812 110.003906 308.59375 C 109.863281 311.433594 109.789062 314.273438 109.789062 317.113281 Z M 433.042969 317.113281 C 433.042969 319.5625 432.980469 322.007812 432.859375 324.457031 C 432.742188 326.902344 432.5625 329.34375 432.320312 331.78125 C 432.082031 334.21875 431.78125 336.648438 431.421875 339.070312 C 431.0625 341.492188 430.644531 343.90625 430.164062 346.308594 C 429.6875 348.707031 429.152344 351.097656 428.554688 353.472656 C 427.960938 355.847656 427.308594 358.207031 426.597656 360.550781 C 425.886719 362.894531 425.117188 365.21875 424.292969 367.527344 C 423.46875 369.832031 422.585938 372.117188 421.648438 374.378906 C 420.710938 376.640625 419.71875 378.878906 418.671875 381.09375 C 417.625 383.308594 416.523438 385.496094 415.371094 387.652344 C 414.214844 389.8125 413.007812 391.945312 411.75 394.042969 C 410.492188 396.144531 409.179688 398.214844 407.820312 400.25 C 406.460938 402.285156 405.050781 404.289062 403.589844 406.253906 C 402.132812 408.222656 400.625 410.152344 399.074219 412.046875 C 397.519531 413.9375 395.917969 415.792969 394.273438 417.605469 C 392.628906 419.421875 390.941406 421.195312 389.210938 422.925781 C 387.476562 424.65625 385.703125 426.34375 383.890625 427.992188 C 382.074219 429.636719 380.222656 431.234375 378.328125 432.789062 C 376.433594 434.339844 374.503906 435.847656 372.539062 437.304688 C 370.570312 438.765625 368.570312 440.175781 366.53125 441.535156 C 364.496094 442.894531 362.429688 444.207031 360.328125 445.464844 C 358.226562 446.722656 356.097656 447.929688 353.9375 449.085938 C 351.777344 450.238281 349.589844 451.339844 347.375 452.386719 C 345.160156 453.433594 342.921875 454.425781 340.660156 455.363281 C 338.398438 456.300781 336.113281 457.179688 333.808594 458.003906 C 331.503906 458.832031 329.175781 459.597656 326.832031 460.308594 C 324.488281 461.019531 322.128906 461.671875 319.753906 462.265625 C 317.378906 462.863281 314.992188 463.398438 312.589844 463.875 C 310.1875 464.355469 307.773438 464.773438 305.351562 465.132812 C 302.929688 465.492188 300.5 465.789062 298.0625 466.03125 C 295.625 466.269531 293.183594 466.449219 290.738281 466.570312 C 288.289062 466.691406 285.84375 466.75 283.394531 466.75 C 280.945312 466.75 278.496094 466.691406 276.050781 466.570312 C 273.605469 466.449219 271.164062 466.269531 268.726562 466.027344 C 266.289062 465.789062 263.859375 465.488281 261.4375 465.128906 C 259.015625 464.769531 256.601562 464.351562 254.199219 463.871094 C 251.796875 463.394531 249.410156 462.859375 247.035156 462.261719 C 244.660156 461.667969 242.300781 461.015625 239.957031 460.304688 C 237.613281 459.59375 235.289062 458.824219 232.980469 458 C 230.675781 457.171875 228.390625 456.292969 226.128906 455.355469 C 223.867188 454.417969 221.628906 453.425781 219.414062 452.378906 C 217.199219 451.332031 215.015625 450.230469 212.855469 449.074219 C 210.695312 447.921875 208.5625 446.714844 206.464844 445.453125 C 204.363281 444.195312 202.296875 442.886719 200.257812 441.523438 C 198.222656 440.164062 196.222656 438.753906 194.253906 437.292969 C 192.289062 435.835938 190.355469 434.328125 188.464844 432.773438 C 186.570312 431.222656 184.71875 429.621094 182.902344 427.976562 C 181.089844 426.332031 179.316406 424.644531 177.585938 422.910156 C 175.851562 421.179688 174.164062 419.40625 172.519531 417.589844 C 170.875 415.777344 169.277344 413.921875 167.722656 412.03125 C 166.167969 410.136719 164.664062 408.207031 163.203125 406.238281 C 161.746094 404.273438 160.335938 402.269531 158.976562 400.234375 C 157.617188 398.195312 156.304688 396.128906 155.046875 394.027344 C 153.789062 391.925781 152.582031 389.796875 151.429688 387.636719 C 150.273438 385.476562 149.171875 383.289062 148.125 381.074219 C 147.078125 378.863281 146.085938 376.625 145.152344 374.359375 C 144.214844 372.097656 143.332031 369.8125 142.507812 367.507812 C 141.683594 365.203125 140.914062 362.875 140.207031 360.53125 C 139.496094 358.1875 138.84375 355.828125 138.246094 353.453125 C 137.652344 351.078125 137.117188 348.6875 136.636719 346.289062 C 136.160156 343.886719 135.742188 341.472656 135.382812 339.050781 C 135.023438 336.628906 134.726562 334.199219 134.484375 331.761719 C 134.246094 329.324219 134.066406 326.882812 133.945312 324.4375 C 133.828125 321.988281 133.765625 319.542969 133.765625 317.09375 C 133.765625 314.644531 133.828125 312.195312 133.949219 309.75 C 134.070312 307.304688 134.25 304.863281 134.488281 302.425781 C 134.730469 299.988281 135.03125 297.558594 135.390625 295.136719 C 135.75 292.714844 136.167969 290.300781 136.644531 287.898438 C 137.125 285.496094 137.660156 283.109375 138.257812 280.734375 C 138.851562 278.359375 139.503906 276 140.214844 273.65625 C 140.929688 271.3125 141.695312 268.988281 142.523438 266.679688 C 143.347656 264.375 144.230469 262.089844 145.167969 259.828125 C 146.105469 257.566406 147.097656 255.328125 148.144531 253.113281 C 149.191406 250.902344 150.292969 248.714844 151.445312 246.554688 C 152.601562 244.394531 153.808594 242.265625 155.066406 240.164062 C 156.328125 238.0625 157.636719 235.996094 159 233.960938 C 160.359375 231.921875 161.769531 229.921875 163.230469 227.953125 C 164.6875 225.988281 166.195312 224.058594 167.75 222.164062 C 169.300781 220.273438 170.902344 218.417969 172.546875 216.605469 C 174.191406 214.789062 175.878906 213.015625 177.613281 211.285156 C 179.34375 209.554688 181.117188 207.867188 182.933594 206.222656 C 184.746094 204.578125 186.601562 202.980469 188.496094 201.425781 C 190.386719 199.871094 192.320312 198.367188 194.285156 196.90625 C 196.253906 195.449219 198.253906 194.039062 200.292969 192.679688 C 202.328125 191.320312 204.398438 190.011719 206.5 188.75 C 208.597656 187.492188 210.730469 186.285156 212.890625 185.132812 C 215.050781 183.976562 217.238281 182.878906 219.449219 181.832031 C 221.664062 180.785156 223.902344 179.792969 226.164062 178.855469 C 228.429688 177.917969 230.714844 177.039062 233.019531 176.214844 C 235.324219 175.390625 237.648438 174.621094 239.992188 173.910156 C 242.335938 173.199219 244.695312 172.546875 247.074219 171.953125 C 249.449219 171.359375 251.835938 170.824219 254.238281 170.34375 C 256.640625 169.867188 259.054688 169.449219 261.476562 169.089844 C 263.898438 168.730469 266.328125 168.433594 268.765625 168.195312 C 271.203125 167.953125 273.644531 167.773438 276.089844 167.65625 C 278.539062 167.535156 280.984375 167.476562 283.433594 167.476562 C 285.882812 167.476562 288.328125 167.539062 290.773438 167.664062 C 293.21875 167.785156 295.660156 167.96875 298.09375 168.210938 C 300.53125 168.453125 302.960938 168.753906 305.382812 169.113281 C 307.800781 169.476562 310.214844 169.898438 312.613281 170.375 C 315.015625 170.855469 317.402344 171.394531 319.777344 171.988281 C 322.152344 172.585938 324.507812 173.242188 326.851562 173.953125 C 329.195312 174.664062 331.515625 175.433594 333.820312 176.261719 C 336.125 177.085938 338.410156 177.96875 340.671875 178.90625 C 342.929688 179.84375 345.167969 180.839844 347.378906 181.886719 C 349.59375 182.933594 351.777344 184.035156 353.9375 185.191406 C 356.09375 186.34375 358.222656 187.550781 360.324219 188.8125 C 362.421875 190.070312 364.492188 191.378906 366.523438 192.742188 C 368.558594 194.101562 370.5625 195.511719 372.527344 196.972656 C 374.492188 198.429688 376.421875 199.9375 378.3125 201.488281 C 380.207031 203.042969 382.058594 204.640625 383.871094 206.285156 C 385.6875 207.929688 387.457031 209.617188 389.1875 211.347656 C 390.921875 213.082031 392.605469 214.851562 394.25 216.667969 C 395.894531 218.480469 397.492188 220.335938 399.046875 222.226562 C 400.601562 224.117188 402.105469 226.046875 403.5625 228.015625 C 405.023438 229.980469 406.433594 231.980469 407.792969 234.015625 C 409.152344 236.050781 410.460938 238.121094 411.722656 240.21875 C 412.980469 242.320312 414.1875 244.449219 415.339844 246.605469 C 416.496094 248.765625 417.597656 250.949219 418.644531 253.164062 C 419.691406 255.375 420.683594 257.613281 421.621094 259.875 C 422.558594 262.136719 423.441406 264.417969 424.265625 266.722656 C 425.09375 269.027344 425.859375 271.351562 426.574219 273.695312 C 427.285156 276.035156 427.9375 278.394531 428.535156 280.769531 C 429.128906 283.144531 429.667969 285.53125 430.148438 287.933594 C 430.625 290.332031 431.046875 292.742188 431.40625 295.164062 C 431.765625 297.585938 432.066406 300.015625 432.308594 302.453125 C 432.550781 304.886719 432.734375 307.328125 432.855469 309.773438 C 432.976562 312.21875 433.039062 314.664062 433.042969 317.113281 Z M 433.042969 317.113281 " fill-opacity="1" fill-rule="nonzero"/><path fill="#ffffff" d="M 271.398438 212.28125 L 271.398438 329.117188 L 357.53125 329.117188 L 357.53125 305.109375 L 295.410156 305.109375 L 295.410156 212.28125 Z M 271.398438 212.28125 " fill-opacity="1" fill-rule="nonzero"/><path fill="#ffffff" d="M 265.488281 63.125 L 271.488281 63.125 L 271.488281 101.480469 C 268.753906 101.636719 266.027344 101.84375 263.300781 102.105469 C 260.574219 102.363281 257.855469 102.675781 255.140625 103.039062 C 252.425781 103.402344 249.71875 103.816406 247.023438 104.28125 C 244.324219 104.75 241.636719 105.265625 238.957031 105.832031 C 236.277344 106.402344 233.609375 107.019531 230.957031 107.691406 C 228.300781 108.359375 225.660156 109.078125 223.03125 109.847656 C 220.402344 110.621094 217.792969 111.4375 215.195312 112.308594 C 212.597656 113.175781 210.019531 114.097656 207.457031 115.0625 C 204.894531 116.03125 202.355469 117.046875 199.832031 118.109375 C 197.308594 119.175781 194.804688 120.285156 192.324219 121.445312 C 189.84375 122.605469 187.386719 123.808594 184.953125 125.0625 C 182.515625 126.316406 180.105469 127.613281 177.71875 128.957031 C 175.335938 130.300781 172.976562 131.691406 170.644531 133.125 C 168.308594 134.558594 166.003906 136.035156 163.730469 137.558594 C 161.453125 139.078125 159.207031 140.644531 156.988281 142.25 C 154.769531 143.855469 152.585938 145.503906 150.429688 147.195312 C 148.277344 148.886719 146.15625 150.617188 144.066406 152.386719 C 141.976562 154.15625 139.921875 155.96875 137.902344 157.816406 C 135.882812 159.664062 133.898438 161.550781 131.949219 163.476562 C 130.003906 165.398438 128.09375 167.359375 126.21875 169.355469 C 124.34375 171.351562 122.507812 173.386719 120.714844 175.453125 C 118.917969 177.519531 117.160156 179.617188 115.445312 181.75 C 113.726562 183.886719 112.050781 186.050781 110.417969 188.246094 C 108.785156 190.445312 107.191406 192.671875 105.640625 194.929688 C 104.09375 197.1875 102.585938 199.472656 101.125 201.789062 C 99.660156 204.101562 98.242188 206.445312 96.867188 208.8125 C 95.496094 211.183594 94.167969 213.574219 92.882812 215.996094 C 91.601562 218.414062 90.367188 220.855469 89.175781 223.324219 C 87.984375 225.789062 86.84375 228.277344 85.75 230.789062 C 84.652344 233.296875 83.605469 235.828125 82.605469 238.375 C 81.609375 240.925781 80.65625 243.492188 79.757812 246.078125 C 78.855469 248.664062 78.003906 251.265625 77.199219 253.882812 C 76.398438 256.5 75.644531 259.132812 74.941406 261.78125 C 74.242188 264.425781 73.589844 267.085938 72.988281 269.757812 C 72.386719 272.429688 71.835938 275.109375 71.335938 277.804688 C 70.835938 280.496094 70.390625 283.195312 69.992188 285.90625 C 69.59375 288.613281 69.25 291.332031 68.957031 294.054688 C 68.664062 296.777344 68.421875 299.503906 68.230469 302.234375 C 68.042969 304.964844 67.902344 307.699219 67.816406 310.4375 C 67.734375 313.175781 67.699219 315.910156 67.71875 318.648438 C 67.734375 321.386719 67.804688 324.125 67.925781 326.859375 C 68.050781 329.597656 68.222656 332.328125 68.449219 335.058594 C 68.675781 337.785156 68.953125 340.507812 69.285156 343.226562 C 69.613281 345.945312 69.996094 348.65625 70.425781 351.359375 C 70.859375 354.066406 71.34375 356.757812 71.878906 359.445312 C 72.414062 362.128906 73 364.804688 73.636719 367.46875 C 74.273438 370.128906 74.960938 372.78125 75.699219 375.417969 C 76.4375 378.054688 77.222656 380.675781 78.0625 383.285156 C 78.898438 385.890625 79.785156 388.480469 80.71875 391.054688 C 81.65625 393.628906 82.640625 396.183594 83.671875 398.71875 C 84.707031 401.253906 85.785156 403.769531 86.914062 406.265625 C 88.042969 408.757812 89.21875 411.230469 90.441406 413.683594 C 91.664062 416.132812 92.933594 418.558594 94.246094 420.960938 C 95.5625 423.363281 96.921875 425.738281 98.328125 428.089844 C 99.734375 430.4375 101.179688 432.761719 102.675781 435.058594 C 104.167969 437.351562 105.703125 439.617188 107.285156 441.855469 C 108.863281 444.089844 110.484375 446.296875 112.148438 448.472656 C 113.8125 450.648438 115.515625 452.789062 117.261719 454.902344 C 119.003906 457.011719 120.789062 459.085938 122.613281 461.128906 C 124.4375 463.171875 126.300781 465.179688 128.199219 467.152344 C 130.097656 469.125 132.035156 471.058594 134.007812 472.957031 C 135.984375 474.855469 137.992188 476.714844 140.035156 478.535156 C 142.082031 480.359375 144.160156 482.140625 146.269531 483.882812 C 148.382812 485.625 150.527344 487.328125 152.703125 488.988281 L 132.417969 524.160156 C 132.121094 524.675781 131.839844 525.199219 131.578125 525.734375 C 131.316406 526.265625 131.070312 526.808594 130.84375 527.355469 C 130.617188 527.90625 130.40625 528.460938 130.214844 529.023438 C 130.023438 529.585938 129.851562 530.15625 129.699219 530.726562 C 129.546875 531.300781 129.410156 531.878906 129.292969 532.464844 C 129.179688 533.046875 129.082031 533.632812 129.003906 534.222656 C 128.925781 534.808594 128.867188 535.402344 128.828125 535.992188 C 128.789062 536.585938 128.769531 537.179688 128.769531 537.773438 C 128.769531 538.367188 128.789062 538.960938 128.828125 539.554688 C 128.867188 540.148438 128.921875 540.738281 129 541.328125 C 129.078125 541.917969 129.175781 542.503906 129.289062 543.085938 C 129.40625 543.667969 129.539062 544.246094 129.691406 544.820312 C 129.84375 545.394531 130.015625 545.960938 130.207031 546.527344 C 130.398438 547.089844 130.605469 547.644531 130.832031 548.195312 C 131.058594 548.742188 131.304688 549.285156 131.566406 549.816406 C 131.828125 550.351562 132.105469 550.875 132.402344 551.390625 C 132.699219 551.90625 133.011719 552.410156 133.339844 552.902344 C 133.671875 553.398438 134.015625 553.882812 134.375 554.355469 C 134.738281 554.824219 135.113281 555.285156 135.503906 555.734375 C 135.894531 556.179688 136.300781 556.613281 136.71875 557.035156 C 137.136719 557.457031 137.570312 557.863281 138.015625 558.257812 C 138.460938 558.648438 138.917969 559.027344 139.390625 559.390625 C 139.859375 559.753906 140.34375 560.097656 140.835938 560.429688 C 141.328125 560.761719 141.832031 561.078125 142.347656 561.375 C 142.859375 561.675781 143.382812 561.957031 143.914062 562.21875 C 144.445312 562.484375 144.988281 562.730469 145.535156 562.960938 C 146.082031 563.1875 146.636719 563.398438 147.199219 563.59375 C 147.761719 563.785156 148.328125 563.960938 148.902344 564.113281 C 149.476562 564.269531 150.054688 564.40625 150.636719 564.523438 C 151.21875 564.644531 151.804688 564.742188 152.394531 564.820312 C 152.980469 564.902344 153.574219 564.960938 154.164062 565.003906 C 154.757812 565.042969 155.351562 565.066406 155.945312 565.066406 C 157.140625 565.070312 158.328125 564.992188 159.515625 564.839844 C 160.699219 564.683594 161.867188 564.453125 163.023438 564.144531 C 164.175781 563.835938 165.304688 563.457031 166.410156 563 C 167.515625 562.542969 168.582031 562.015625 169.617188 561.417969 C 170.652344 560.824219 171.644531 560.160156 172.59375 559.433594 C 173.539062 558.707031 174.4375 557.921875 175.28125 557.074219 C 176.125 556.230469 176.914062 555.335938 177.640625 554.386719 C 178.367188 553.4375 179.027344 552.445312 179.625 551.414062 L 200.03125 516.269531 C 206.628906 519.035156 213.34375 521.464844 220.183594 523.5625 C 227.019531 525.660156 233.945312 527.414062 240.957031 528.824219 C 247.96875 530.234375 255.035156 531.292969 262.152344 532 C 269.265625 532.710938 276.402344 533.0625 283.554688 533.0625 C 290.707031 533.0625 297.839844 532.710938 304.957031 532 C 312.074219 531.292969 319.140625 530.234375 326.152344 528.824219 C 333.164062 527.414062 340.085938 525.660156 346.925781 523.5625 C 353.761719 521.464844 360.480469 519.035156 367.074219 516.269531 L 387.394531 551.414062 C 388.28125 552.964844 389.316406 554.414062 390.492188 555.761719 C 391.671875 557.109375 392.96875 558.328125 394.386719 559.417969 C 395.808594 560.507812 397.320312 561.449219 398.925781 562.238281 C 400.53125 563.027344 402.199219 563.648438 403.929688 564.105469 C 406.261719 564.730469 408.632812 565.039062 411.042969 565.039062 C 411.636719 565.035156 412.230469 565.015625 412.824219 564.976562 C 413.417969 564.9375 414.007812 564.878906 414.597656 564.800781 C 415.1875 564.722656 415.773438 564.625 416.355469 564.507812 C 416.9375 564.390625 417.515625 564.253906 418.089844 564.101562 C 418.664062 563.945312 419.230469 563.773438 419.792969 563.582031 C 420.355469 563.386719 420.914062 563.179688 421.460938 562.949219 C 422.011719 562.722656 422.550781 562.476562 423.082031 562.214844 C 423.617188 561.949219 424.140625 561.667969 424.652344 561.371094 C 425.167969 561.074219 425.671875 560.757812 426.167969 560.429688 C 426.660156 560.097656 427.140625 559.75 427.613281 559.390625 C 428.085938 559.027344 428.542969 558.648438 428.988281 558.257812 C 429.4375 557.867188 429.871094 557.457031 430.289062 557.039062 C 430.707031 556.617188 431.113281 556.183594 431.507812 555.738281 C 431.898438 555.289062 432.273438 554.828125 432.636719 554.359375 C 432.996094 553.886719 433.34375 553.402344 433.671875 552.910156 C 434 552.414062 434.316406 551.910156 434.613281 551.394531 C 434.910156 550.878906 435.1875 550.355469 435.449219 549.824219 C 435.714844 549.289062 435.957031 548.75 436.183594 548.199219 C 436.414062 547.648438 436.621094 547.09375 436.8125 546.53125 C 437.003906 545.96875 437.175781 545.398438 437.328125 544.824219 C 437.480469 544.25 437.617188 543.671875 437.730469 543.089844 C 437.847656 542.507812 437.945312 541.921875 438.019531 541.332031 C 438.097656 540.742188 438.15625 540.152344 438.195312 539.558594 C 438.234375 538.964844 438.253906 538.371094 438.253906 537.777344 C 438.253906 537.183594 438.234375 536.589844 438.195312 535.996094 C 438.15625 535.402344 438.097656 534.8125 438.019531 534.222656 C 437.941406 533.632812 437.84375 533.046875 437.726562 532.464844 C 437.613281 531.882812 437.476562 531.304688 437.324219 530.730469 C 437.167969 530.15625 436.996094 529.585938 436.804688 529.023438 C 436.613281 528.460938 436.40625 527.90625 436.175781 527.355469 C 435.949219 526.808594 435.703125 526.265625 435.441406 525.734375 C 435.179688 525.199219 434.898438 524.675781 434.601562 524.160156 L 414.285156 488.957031 C 416.460938 487.296875 418.605469 485.59375 420.714844 483.851562 C 422.828125 482.109375 424.90625 480.324219 426.949219 478.503906 C 428.992188 476.679688 431 474.820312 432.972656 472.921875 C 434.945312 471.023438 436.882812 469.089844 438.78125 467.117188 C 440.683594 465.144531 442.542969 463.136719 444.367188 461.09375 C 446.191406 459.050781 447.972656 456.976562 449.71875 454.863281 C 451.460938 452.753906 453.164062 450.609375 454.828125 448.4375 C 456.492188 446.261719 458.113281 444.054688 459.691406 441.816406 C 461.269531 439.582031 462.804688 437.3125 464.296875 435.019531 C 465.789062 432.722656 467.238281 430.402344 468.644531 428.050781 C 470.046875 425.699219 471.40625 423.324219 472.722656 420.921875 C 474.035156 418.519531 475.304688 416.09375 476.527344 413.644531 C 477.746094 411.191406 478.921875 408.71875 480.050781 406.226562 C 481.179688 403.730469 482.257812 401.214844 483.289062 398.679688 C 484.324219 396.144531 485.308594 393.589844 486.242188 391.015625 C 487.175781 388.441406 488.0625 385.851562 488.898438 383.242188 C 489.738281 380.636719 490.523438 378.015625 491.261719 375.378906 C 491.996094 372.742188 492.683594 370.089844 493.320312 367.425781 C 493.957031 364.765625 494.542969 362.089844 495.078125 359.40625 C 495.609375 356.71875 496.09375 354.023438 496.527344 351.320312 C 496.960938 348.617188 497.339844 345.90625 497.667969 343.1875 C 497.996094 340.46875 498.273438 337.746094 498.5 335.019531 C 498.726562 332.289062 498.898438 329.558594 499.023438 326.820312 C 499.144531 324.085938 499.214844 321.351562 499.230469 318.613281 C 499.25 315.875 499.214844 313.136719 499.128906 310.398438 C 499.042969 307.664062 498.902344 304.929688 498.714844 302.199219 C 498.523438 299.464844 498.28125 296.738281 497.988281 294.015625 C 497.691406 291.292969 497.347656 288.578125 496.949219 285.871094 C 496.554688 283.160156 496.105469 280.460938 495.605469 277.769531 C 495.105469 275.074219 494.554688 272.394531 493.953125 269.722656 C 493.351562 267.050781 492.699219 264.394531 491.996094 261.746094 C 491.292969 259.101562 490.539062 256.46875 489.738281 253.851562 C 488.933594 251.234375 488.082031 248.632812 487.179688 246.046875 C 486.277344 243.460938 485.328125 240.894531 484.328125 238.34375 C 483.328125 235.796875 482.28125 233.265625 481.1875 230.757812 C 480.089844 228.246094 478.949219 225.761719 477.757812 223.292969 C 476.566406 220.828125 475.332031 218.386719 474.046875 215.96875 C 472.765625 213.546875 471.4375 211.15625 470.0625 208.785156 C 468.6875 206.417969 467.269531 204.078125 465.808594 201.761719 C 464.34375 199.449219 462.839844 197.160156 461.289062 194.90625 C 459.738281 192.648438 458.144531 190.421875 456.511719 188.222656 C 454.878906 186.027344 453.203125 183.863281 451.484375 181.730469 C 449.769531 179.597656 448.011719 177.496094 446.214844 175.429688 C 444.417969 173.363281 442.582031 171.332031 440.710938 169.335938 C 438.835938 167.339844 436.925781 165.378906 434.976562 163.457031 C 433.027344 161.53125 431.042969 159.644531 429.023438 157.796875 C 427.003906 155.949219 424.949219 154.140625 422.859375 152.371094 C 420.773438 150.597656 418.648438 148.871094 416.496094 147.179688 C 414.339844 145.488281 412.15625 143.84375 409.9375 142.234375 C 407.71875 140.628906 405.472656 139.066406 403.195312 137.542969 C 400.921875 136.023438 398.617188 134.546875 396.28125 133.113281 C 393.949219 131.679688 391.589844 130.289062 389.207031 128.945312 C 386.820312 127.601562 384.410156 126.304688 381.972656 125.050781 C 379.539062 123.800781 377.082031 122.59375 374.601562 121.4375 C 372.121094 120.277344 369.617188 119.164062 367.09375 118.101562 C 364.570312 117.039062 362.03125 116.023438 359.46875 115.054688 C 356.90625 114.089844 354.328125 113.171875 351.730469 112.300781 C 349.132812 111.433594 346.523438 110.613281 343.894531 109.84375 C 341.265625 109.074219 338.625 108.355469 335.96875 107.6875 C 333.316406 107.015625 330.648438 106.398438 327.96875 105.828125 C 325.292969 105.261719 322.605469 104.746094 319.90625 104.28125 C 317.207031 103.8125 314.5 103.398438 311.789062 103.035156 C 309.074219 102.675781 306.351562 102.363281 303.628906 102.101562 C 300.902344 101.84375 298.171875 101.636719 295.4375 101.480469 L 295.4375 63.125 L 301.441406 63.125 C 302.441406 63.09375 303.4375 63.011719 304.429688 62.886719 C 305.421875 62.757812 306.402344 62.582031 307.378906 62.359375 C 308.351562 62.136719 309.316406 61.867188 310.265625 61.550781 C 311.214844 61.234375 312.144531 60.875 313.058594 60.46875 C 313.972656 60.0625 314.867188 59.613281 315.738281 59.121094 C 316.609375 58.632812 317.453125 58.097656 318.273438 57.527344 C 319.09375 56.953125 319.882812 56.34375 320.644531 55.695312 C 321.40625 55.046875 322.132812 54.359375 322.828125 53.640625 C 323.523438 52.921875 324.183594 52.171875 324.804688 51.390625 C 325.429688 50.605469 326.011719 49.796875 326.554688 48.957031 C 327.101562 48.117188 327.605469 47.257812 328.066406 46.367188 C 328.527344 45.480469 328.945312 44.574219 329.320312 43.648438 C 329.695312 42.71875 330.023438 41.777344 330.304688 40.816406 C 330.589844 39.859375 330.824219 38.886719 331.015625 37.90625 C 331.207031 36.921875 331.347656 35.933594 331.441406 34.9375 C 331.535156 33.945312 331.582031 32.945312 331.582031 31.945312 C 331.582031 30.945312 331.53125 29.949219 331.433594 28.953125 C 331.335938 27.957031 331.191406 26.96875 331 25.988281 C 330.804688 25.007812 330.566406 24.035156 330.28125 23.078125 C 329.992188 22.121094 329.664062 21.175781 329.285156 20.25 C 328.910156 19.324219 328.488281 18.417969 328.023438 17.53125 C 327.558594 16.648438 327.054688 15.785156 326.507812 14.949219 C 325.960938 14.109375 325.375 13.300781 324.75 12.519531 C 324.125 11.742188 323.460938 10.992188 322.765625 10.273438 C 322.070312 9.558594 321.339844 8.875 320.574219 8.230469 C 319.8125 7.582031 319.019531 6.972656 318.199219 6.402344 C 317.378906 5.832031 316.53125 5.304688 315.660156 4.8125 C 314.785156 4.324219 313.890625 3.878906 312.976562 3.476562 C 312.0625 3.074219 311.128906 2.714844 310.179688 2.402344 C 309.230469 2.089844 308.265625 1.824219 307.289062 1.601562 C 306.316406 1.382812 305.332031 1.210938 304.339844 1.085938 C 303.347656 0.960938 302.351562 0.882812 301.351562 0.851562 L 265.335938 0.851562 C 264.335938 0.882812 263.34375 0.960938 262.351562 1.089844 C 261.359375 1.214844 260.375 1.390625 259.398438 1.613281 C 258.425781 1.832031 257.460938 2.101562 256.511719 2.417969 C 255.5625 2.730469 254.628906 3.089844 253.714844 3.492188 C 252.800781 3.898438 251.90625 4.34375 251.035156 4.835938 C 250.164062 5.324219 249.320312 5.855469 248.496094 6.429688 C 247.675781 7 246.886719 7.609375 246.125 8.257812 C 245.363281 8.90625 244.632812 9.589844 243.9375 10.304688 C 243.242188 11.023438 242.582031 11.773438 241.957031 12.554688 C 241.332031 13.335938 240.75 14.148438 240.203125 14.984375 C 239.65625 15.824219 239.152344 16.683594 238.6875 17.570312 C 238.226562 18.457031 237.808594 19.363281 237.433594 20.292969 C 237.054688 21.21875 236.726562 22.160156 236.441406 23.121094 C 236.15625 24.078125 235.917969 25.050781 235.726562 26.03125 C 235.535156 27.011719 235.390625 28 235.296875 28.996094 C 235.199219 29.992188 235.152344 30.988281 235.152344 31.988281 C 235.152344 32.988281 235.199219 33.988281 235.296875 34.984375 C 235.390625 35.976562 235.535156 36.964844 235.726562 37.949219 C 235.917969 38.929688 236.15625 39.898438 236.441406 40.859375 C 236.726562 41.816406 237.054688 42.761719 237.433594 43.6875 C 237.808594 44.613281 238.226562 45.519531 238.6875 46.40625 C 239.152344 47.292969 239.65625 48.15625 240.203125 48.992188 C 240.75 49.832031 241.332031 50.640625 241.957031 51.421875 C 242.582031 52.203125 243.242188 52.953125 243.9375 53.671875 C 244.632812 54.390625 245.363281 55.074219 246.125 55.722656 C 246.886719 56.367188 247.675781 56.980469 248.496094 57.550781 C 249.320312 58.121094 250.164062 58.652344 251.035156 59.144531 C 251.90625 59.632812 252.800781 60.082031 253.714844 60.484375 C 254.628906 60.890625 255.5625 61.246094 256.511719 61.5625 C 257.460938 61.875 258.425781 62.144531 259.398438 62.367188 C 260.375 62.589844 261.359375 62.761719 262.351562 62.890625 C 263.34375 63.015625 264.335938 63.09375 265.335938 63.125 Z M 158.855469 539.40625 C 158.632812 539.78125 158.351562 540.101562 158.003906 540.363281 C 157.65625 540.625 157.269531 540.8125 156.851562 540.925781 C 156.429688 541.039062 156.003906 541.066406 155.570312 541.011719 C 155.140625 540.957031 154.734375 540.820312 154.355469 540.609375 C 153.574219 540.160156 153.074219 539.5 152.855469 538.628906 C 152.601562 537.769531 152.710938 536.957031 153.183594 536.195312 L 172.632812 502.492188 L 178.242188 505.765625 Z M 413.953125 538.628906 C 413.726562 539.515625 413.21875 540.183594 412.421875 540.636719 C 412.046875 540.847656 411.648438 540.976562 411.21875 541.027344 C 410.792969 541.082031 410.375 541.050781 409.957031 540.9375 C 409.542969 540.828125 409.164062 540.640625 408.824219 540.382812 C 408.480469 540.121094 408.199219 539.808594 407.980469 539.4375 L 388.535156 505.734375 C 390.425781 504.65625 392.316406 503.574219 394.175781 502.464844 L 413.652344 536.195312 C 414.097656 536.960938 414.207031 537.773438 413.984375 538.628906 Z M 475.355469 317.113281 C 475.359375 320.257812 475.289062 323.398438 475.136719 326.542969 C 474.988281 329.683594 474.757812 332.816406 474.453125 335.945312 C 474.148438 339.078125 473.769531 342.195312 473.308594 345.308594 C 472.851562 348.417969 472.316406 351.515625 471.707031 354.601562 C 471.097656 357.6875 470.410156 360.753906 469.648438 363.804688 C 468.886719 366.855469 468.050781 369.886719 467.140625 372.894531 C 466.230469 375.90625 465.246094 378.890625 464.1875 381.851562 C 463.132812 384.8125 462.003906 387.746094 460.800781 390.652344 C 459.597656 393.558594 458.328125 396.433594 456.984375 399.277344 C 455.640625 402.121094 454.230469 404.929688 452.75 407.703125 C 451.265625 410.476562 449.71875 413.214844 448.105469 415.910156 C 446.488281 418.609375 444.808594 421.265625 443.0625 423.878906 C 441.316406 426.496094 439.503906 429.066406 437.632812 431.59375 C 435.761719 434.117188 433.828125 436.597656 431.832031 439.027344 C 429.839844 441.457031 427.785156 443.839844 425.671875 446.167969 C 423.5625 448.5 421.394531 450.777344 419.171875 453 C 416.949219 455.222656 414.671875 457.390625 412.339844 459.503906 C 410.011719 461.613281 407.628906 463.667969 405.199219 465.660156 C 402.769531 467.65625 400.289062 469.589844 397.761719 471.460938 C 395.238281 473.335938 392.667969 475.144531 390.050781 476.890625 C 387.4375 478.636719 384.78125 480.316406 382.082031 481.933594 C 379.382812 483.546875 376.648438 485.097656 373.875 486.578125 C 371.101562 488.058594 368.292969 489.46875 365.449219 490.8125 C 362.605469 492.15625 359.730469 493.429688 356.824219 494.628906 C 353.917969 495.832031 350.984375 496.960938 348.023438 498.019531 C 345.0625 499.074219 342.078125 500.058594 339.066406 500.96875 C 336.058594 501.878906 333.027344 502.714844 329.976562 503.476562 C 326.925781 504.238281 323.855469 504.925781 320.773438 505.535156 C 317.6875 506.144531 314.589844 506.679688 311.480469 507.136719 C 308.367188 507.597656 305.246094 507.976562 302.117188 508.28125 C 298.988281 508.585938 295.851562 508.816406 292.710938 508.964844 C 289.570312 509.117188 286.429688 509.191406 283.285156 509.1875 C 276.097656 509.195312 268.929688 508.796875 261.789062 507.988281 C 254.644531 507.183594 247.570312 505.972656 240.566406 504.363281 C 233.558594 502.75 226.667969 500.75 219.890625 498.351562 C 213.113281 495.957031 206.496094 493.1875 200.03125 490.039062 C 191.394531 485.878906 183.121094 481.085938 175.214844 475.664062 C 171.808594 473.347656 168.480469 470.921875 165.230469 468.390625 C 161.980469 465.859375 158.8125 463.226562 155.734375 460.492188 C 152.652344 457.757812 149.664062 454.925781 146.765625 452 C 143.867188 449.070312 141.066406 446.054688 138.363281 442.945312 C 135.65625 439.839844 133.054688 436.648438 130.558594 433.375 C 128.058594 430.097656 125.667969 426.746094 123.382812 423.316406 C 121.101562 419.890625 118.929688 416.390625 116.871094 412.824219 C 114.816406 409.253906 112.875 405.625 111.046875 401.929688 C 109.222656 398.238281 107.519531 394.488281 105.9375 390.6875 C 104.351562 386.882812 102.894531 383.035156 101.558594 379.136719 C 100.222656 375.242188 99.011719 371.304688 97.929688 367.332031 C 96.847656 363.355469 95.894531 359.351562 95.070312 355.316406 C 94.246094 351.277344 93.550781 347.21875 92.988281 343.140625 C 92.425781 339.058594 91.992188 334.964844 91.691406 330.855469 C 91.390625 326.75 91.222656 322.632812 91.1875 318.515625 C 91.152344 314.394531 91.25 310.28125 91.480469 306.167969 C 91.707031 302.054688 92.070312 297.953125 92.5625 293.863281 C 93.054688 289.773438 93.679688 285.703125 94.433594 281.65625 C 95.191406 277.605469 96.074219 273.582031 97.085938 269.589844 C 98.101562 265.597656 99.242188 261.644531 100.511719 257.722656 C 101.777344 253.804688 103.171875 249.929688 104.6875 246.101562 C 106.207031 242.269531 107.84375 238.492188 109.605469 234.769531 C 111.367188 231.046875 113.246094 227.382812 115.242188 223.777344 C 117.238281 220.175781 119.347656 216.640625 121.570312 213.171875 C 123.792969 209.703125 126.128906 206.3125 128.570312 202.996094 C 131.011719 199.675781 133.558594 196.441406 136.207031 193.289062 C 138.859375 190.132812 141.605469 187.070312 144.453125 184.09375 C 147.300781 181.117188 150.242188 178.234375 153.273438 175.445312 C 156.308594 172.660156 159.425781 169.972656 162.632812 167.382812 C 165.835938 164.796875 169.125 162.316406 172.488281 159.941406 C 175.855469 157.566406 179.292969 155.300781 182.804688 153.144531 C 186.3125 150.992188 189.890625 148.953125 193.53125 147.027344 C 197.175781 145.105469 200.875 143.296875 204.632812 141.613281 C 208.390625 139.925781 212.199219 138.363281 216.058594 136.921875 C 219.917969 135.480469 223.820312 134.164062 227.765625 132.976562 C 231.707031 131.785156 235.6875 130.722656 239.699219 129.789062 C 243.710938 128.855469 247.746094 128.050781 251.8125 127.375 C 255.875 126.703125 259.957031 126.160156 264.054688 125.746094 C 268.152344 125.335938 272.261719 125.054688 276.378906 124.90625 C 280.496094 124.761719 284.613281 124.746094 288.730469 124.863281 C 292.847656 124.980469 296.957031 125.230469 301.058594 125.613281 C 305.160156 125.992188 309.246094 126.507812 313.3125 127.152344 C 317.382812 127.796875 321.425781 128.570312 325.445312 129.476562 C 329.460938 130.378906 333.449219 131.414062 337.402344 132.574219 C 341.351562 133.734375 345.261719 135.023438 349.132812 136.4375 C 353.003906 137.847656 356.824219 139.382812 360.59375 141.042969 C 364.363281 142.703125 368.078125 144.480469 371.734375 146.378906 C 375.390625 148.273438 378.980469 150.289062 382.507812 152.417969 C 386.035156 154.546875 389.488281 156.785156 392.871094 159.136719 C 396.253906 161.488281 399.558594 163.945312 402.78125 166.507812 C 406.007812 169.070312 409.144531 171.734375 412.199219 174.5 C 415.25 177.265625 418.210938 180.125 421.082031 183.082031 C 423.949219 186.039062 426.722656 189.082031 429.394531 192.21875 C 432.066406 195.351562 434.636719 198.570312 437.101562 201.867188 C 439.570312 205.167969 441.925781 208.542969 444.175781 211.996094 C 446.425781 215.445312 448.5625 218.964844 450.582031 222.554688 C 452.605469 226.144531 454.511719 229.792969 456.296875 233.503906 C 458.085938 237.214844 459.753906 240.980469 461.296875 244.796875 C 462.84375 248.617188 464.265625 252.480469 465.5625 256.390625 C 466.859375 260.300781 468.027344 264.25 469.070312 268.234375 C 470.113281 272.21875 471.027344 276.234375 471.8125 280.277344 C 472.597656 284.320312 473.25 288.386719 473.773438 292.472656 C 474.296875 296.558594 474.6875 300.65625 474.945312 304.765625 C 475.207031 308.878906 475.332031 312.992188 475.328125 317.113281 Z M 265.488281 24.863281 L 301.5 24.863281 C 301.949219 24.890625 302.390625 24.960938 302.828125 25.074219 C 303.261719 25.1875 303.683594 25.339844 304.089844 25.53125 C 304.496094 25.722656 304.878906 25.953125 305.242188 26.214844 C 305.605469 26.480469 305.941406 26.777344 306.25 27.105469 C 306.558594 27.433594 306.832031 27.785156 307.070312 28.167969 C 307.3125 28.546875 307.515625 28.945312 307.679688 29.363281 C 307.847656 29.78125 307.972656 30.210938 308.054688 30.652344 C 308.140625 31.09375 308.179688 31.539062 308.179688 31.988281 C 308.179688 32.4375 308.140625 32.882812 308.054688 33.324219 C 307.972656 33.765625 307.847656 34.199219 307.679688 34.617188 C 307.515625 35.035156 307.3125 35.433594 307.070312 35.8125 C 306.832031 36.191406 306.558594 36.546875 306.25 36.875 C 305.941406 37.203125 305.605469 37.496094 305.242188 37.761719 C 304.878906 38.027344 304.496094 38.253906 304.089844 38.449219 C 303.683594 38.640625 303.261719 38.792969 302.828125 38.90625 C 302.390625 39.015625 301.949219 39.085938 301.5 39.117188 L 265.488281 39.117188 C 265.039062 39.085938 264.597656 39.015625 264.160156 38.90625 C 263.726562 38.792969 263.304688 38.640625 262.898438 38.449219 C 262.492188 38.253906 262.109375 38.027344 261.746094 37.761719 C 261.382812 37.496094 261.046875 37.203125 260.738281 36.875 C 260.429688 36.546875 260.15625 36.191406 259.917969 35.8125 C 259.675781 35.433594 259.472656 35.035156 259.308594 34.617188 C 259.140625 34.199219 259.019531 33.765625 258.933594 33.324219 C 258.847656 32.882812 258.808594 32.4375 258.808594 31.988281 C 258.808594 31.539062 258.847656 31.09375 258.933594 30.652344 C 259.019531 30.210938 259.140625 29.78125 259.308594 29.363281 C 259.472656 28.945312 259.675781 28.546875 259.917969 28.167969 C 260.15625 27.785156 260.429688 27.433594 260.738281 27.105469 C 261.046875 26.777344 261.382812 26.480469 261.746094 26.214844 C 262.109375 25.953125 262.492188 25.722656 262.898438 25.53125 C 263.304688 25.339844 263.726562 25.1875 264.160156 25.074219 C 264.597656 24.960938 265.039062 24.890625 265.488281 24.863281 Z M 265.488281 24.863281 " fill-opacity="1" fill-rule="nonzero"/><path fill="#ffffff" d="M 510.199219 193.375 C 511.054688 192.519531 511.890625 191.640625 512.699219 190.742188 C 513.511719 189.84375 514.300781 188.925781 515.070312 187.988281 C 515.835938 187.050781 516.582031 186.097656 517.300781 185.125 C 518.019531 184.148438 518.714844 183.160156 519.386719 182.152344 C 520.058594 181.144531 520.707031 180.121094 521.328125 179.082031 C 521.949219 178.042969 522.546875 176.988281 523.113281 175.921875 C 523.683594 174.851562 524.226562 173.769531 524.746094 172.675781 C 525.261719 171.578125 525.75 170.472656 526.214844 169.351562 C 526.675781 168.234375 527.113281 167.105469 527.519531 165.964844 C 527.925781 164.824219 528.304688 163.675781 528.65625 162.515625 C 529.007812 161.355469 529.328125 160.191406 529.621094 159.015625 C 529.917969 157.839844 530.179688 156.660156 530.417969 155.472656 C 530.652344 154.285156 530.859375 153.089844 531.035156 151.894531 C 531.214844 150.695312 531.363281 149.492188 531.480469 148.289062 C 531.597656 147.082031 531.6875 145.875 531.746094 144.667969 C 531.804688 143.457031 531.835938 142.246094 531.835938 141.035156 C 531.835938 139.824219 531.804688 138.613281 531.746094 137.40625 C 531.6875 136.195312 531.597656 134.988281 531.480469 133.785156 C 531.363281 132.578125 531.214844 131.375 531.035156 130.179688 C 530.859375 128.980469 530.652344 127.789062 530.417969 126.601562 C 530.179688 125.414062 529.917969 124.230469 529.621094 123.058594 C 529.328125 121.882812 529.007812 120.714844 528.65625 119.554688 C 528.304688 118.398438 527.925781 117.246094 527.519531 116.105469 C 527.113281 114.96875 526.675781 113.835938 526.214844 112.71875 C 525.75 111.597656 525.261719 110.492188 524.746094 109.398438 C 524.226562 108.300781 523.683594 107.21875 523.113281 106.152344 C 522.542969 105.082031 521.949219 104.03125 521.328125 102.988281 C 520.707031 101.949219 520.058594 100.925781 519.386719 99.921875 C 518.714844 98.914062 518.019531 97.921875 517.300781 96.949219 C 516.582031 95.976562 515.835938 95.019531 515.070312 94.082031 C 514.300781 93.144531 513.511719 92.226562 512.699219 91.328125 C 511.890625 90.429688 511.054688 89.554688 510.199219 88.695312 L 488.863281 67.359375 C 488.003906 66.503906 487.128906 65.667969 486.230469 64.855469 C 485.332031 64.042969 484.414062 63.253906 483.476562 62.484375 C 482.539062 61.71875 481.585938 60.976562 480.613281 60.253906 C 479.636719 59.535156 478.648438 58.835938 477.640625 58.164062 C 476.632812 57.492188 475.609375 56.847656 474.570312 56.226562 C 473.53125 55.601562 472.476562 55.007812 471.410156 54.4375 C 470.339844 53.867188 469.257812 53.324219 468.164062 52.804688 C 467.070312 52.289062 465.960938 51.796875 464.84375 51.335938 C 463.722656 50.871094 462.59375 50.4375 461.453125 50.03125 C 460.3125 49.621094 459.164062 49.242188 458.003906 48.890625 C 456.84375 48.542969 455.679688 48.21875 454.503906 47.925781 C 453.328125 47.632812 452.148438 47.367188 450.960938 47.128906 C 449.769531 46.894531 448.578125 46.6875 447.378906 46.511719 C 446.183594 46.332031 444.980469 46.183594 443.777344 46.066406 C 442.570312 45.949219 441.363281 45.859375 440.152344 45.800781 C 438.945312 45.738281 437.734375 45.710938 436.523438 45.710938 C 435.3125 45.710938 434.101562 45.738281 432.890625 45.800781 C 431.683594 45.859375 430.476562 45.949219 429.269531 46.066406 C 428.0625 46.183594 426.863281 46.332031 425.664062 46.511719 C 424.464844 46.6875 423.273438 46.894531 422.085938 47.128906 C 420.898438 47.367188 419.714844 47.632812 418.542969 47.925781 C 417.367188 48.21875 416.199219 48.542969 415.042969 48.890625 C 413.882812 49.242188 412.730469 49.621094 411.59375 50.03125 C 410.453125 50.4375 409.320312 50.871094 408.203125 51.335938 C 407.082031 51.796875 405.976562 52.289062 404.882812 52.804688 C 403.785156 53.324219 402.703125 53.867188 401.636719 54.4375 C 400.566406 55.007812 399.515625 55.601562 398.476562 56.226562 C 397.433594 56.847656 396.414062 57.492188 395.40625 58.164062 C 394.398438 58.835938 393.40625 59.535156 392.433594 60.253906 C 391.460938 60.976562 390.503906 61.71875 389.566406 62.484375 C 388.632812 63.253906 387.714844 64.042969 386.816406 64.855469 C 385.917969 65.667969 385.039062 66.503906 384.183594 67.359375 L 375.6875 75.882812 L 501.738281 201.929688 Z M 410.683594 76.871094 C 411.867188 76.15625 413.082031 75.496094 414.324219 74.882812 C 415.566406 74.269531 416.828125 73.710938 418.117188 73.203125 C 419.40625 72.695312 420.710938 72.238281 422.039062 71.839844 C 423.363281 71.441406 424.703125 71.097656 426.054688 70.808594 C 427.410156 70.519531 428.773438 70.289062 430.144531 70.113281 C 431.519531 69.9375 432.898438 69.820312 434.28125 69.757812 C 435.664062 69.695312 437.046875 69.691406 438.429688 69.746094 C 439.8125 69.800781 441.191406 69.910156 442.566406 70.078125 C 443.9375 70.246094 445.304688 70.472656 446.660156 70.75 C 448.015625 71.03125 449.355469 71.371094 450.683594 71.761719 C 452.011719 72.152344 453.320312 72.601562 454.609375 73.101562 C 455.902344 73.601562 457.167969 74.15625 458.414062 74.761719 C 459.65625 75.367188 460.875 76.023438 462.066406 76.730469 C 463.257812 77.4375 464.414062 78.191406 465.542969 78.992188 C 466.671875 79.796875 467.761719 80.644531 468.820312 81.539062 C 469.878906 82.429688 470.894531 83.367188 471.875 84.34375 L 493.214844 105.652344 C 494.191406 106.632812 495.128906 107.652344 496.019531 108.710938 C 496.914062 109.769531 497.761719 110.863281 498.5625 111.992188 C 499.367188 113.121094 500.121094 114.277344 500.828125 115.46875 C 501.535156 116.660156 502.191406 117.878906 502.796875 119.125 C 503.402344 120.371094 503.953125 121.636719 504.453125 122.929688 C 504.953125 124.21875 505.402344 125.53125 505.792969 126.859375 C 506.183594 128.1875 506.523438 129.527344 506.800781 130.882812 C 507.082031 132.238281 507.308594 133.605469 507.476562 134.980469 C 507.644531 136.355469 507.753906 137.734375 507.808594 139.117188 C 507.859375 140.5 507.855469 141.882812 507.796875 143.265625 C 507.734375 144.652344 507.617188 146.027344 507.441406 147.402344 C 507.265625 148.777344 507.035156 150.140625 506.746094 151.496094 C 506.457031 152.847656 506.113281 154.1875 505.714844 155.515625 C 505.316406 156.839844 504.863281 158.148438 504.355469 159.4375 C 503.847656 160.726562 503.289062 161.988281 502.675781 163.230469 C 502.0625 164.472656 501.398438 165.6875 500.6875 166.875 Z M 410.683594 76.871094 " fill-opacity="1" fill-rule="nonzero"/><path fill="#ffffff" d="M 65.132812 201.929688 L 191.027344 75.882812 L 182.535156 67.386719 C 181.679688 66.53125 180.800781 65.699219 179.902344 64.886719 C 179.003906 64.074219 178.085938 63.285156 177.148438 62.515625 C 176.214844 61.75 175.257812 61.003906 174.285156 60.285156 C 173.3125 59.5625 172.320312 58.867188 171.3125 58.195312 C 170.304688 57.523438 169.28125 56.875 168.242188 56.253906 C 167.203125 55.632812 166.152344 55.035156 165.082031 54.464844 C 164.015625 53.894531 162.933594 53.351562 161.835938 52.835938 C 160.742188 52.320312 159.636719 51.828125 158.515625 51.367188 C 157.398438 50.902344 156.265625 50.46875 155.125 50.058594 C 153.984375 49.652344 152.835938 49.273438 151.675781 48.921875 C 150.519531 48.570312 149.351562 48.25 148.175781 47.953125 C 147 47.660156 145.820312 47.394531 144.632812 47.160156 C 143.445312 46.925781 142.25 46.71875 141.054688 46.539062 C 139.855469 46.363281 138.652344 46.214844 137.449219 46.097656 C 136.242188 45.976562 135.035156 45.886719 133.828125 45.828125 C 132.617188 45.769531 131.40625 45.742188 130.195312 45.742188 C 128.984375 45.742188 127.773438 45.769531 126.566406 45.828125 C 125.355469 45.886719 124.148438 45.976562 122.941406 46.097656 C 121.738281 46.214844 120.535156 46.363281 119.335938 46.539062 C 118.140625 46.71875 116.945312 46.925781 115.757812 47.160156 C 114.570312 47.394531 113.390625 47.660156 112.214844 47.953125 C 111.039062 48.25 109.875 48.570312 108.714844 48.921875 C 107.554688 49.273438 106.40625 49.652344 105.265625 50.058594 C 104.125 50.46875 102.996094 50.902344 101.875 51.367188 C 100.757812 51.828125 99.648438 52.320312 98.554688 52.835938 C 97.460938 53.351562 96.378906 53.894531 95.308594 54.464844 C 94.242188 55.035156 93.1875 55.632812 92.148438 56.253906 C 91.109375 56.875 90.085938 57.523438 89.078125 58.195312 C 88.070312 58.867188 87.078125 59.5625 86.105469 60.285156 C 85.132812 61.003906 84.179688 61.75 83.242188 62.515625 C 82.304688 63.285156 81.386719 64.074219 80.488281 64.886719 C 79.589844 65.699219 78.714844 66.53125 77.855469 67.386719 L 56.636719 88.695312 C 55.78125 89.554688 54.949219 90.429688 54.136719 91.328125 C 53.324219 92.226562 52.535156 93.144531 51.769531 94.082031 C 51 95.019531 50.257812 95.976562 49.539062 96.949219 C 48.816406 97.921875 48.121094 98.914062 47.449219 99.921875 C 46.777344 100.925781 46.132812 101.949219 45.511719 102.988281 C 44.890625 104.03125 44.292969 105.082031 43.722656 106.152344 C 43.152344 107.21875 42.609375 108.300781 42.09375 109.398438 C 41.578125 110.492188 41.085938 111.597656 40.625 112.71875 C 40.160156 113.835938 39.726562 114.96875 39.320312 116.105469 C 38.914062 117.246094 38.535156 118.398438 38.183594 119.554688 C 37.832031 120.714844 37.507812 121.882812 37.214844 123.058594 C 36.921875 124.230469 36.65625 125.414062 36.421875 126.601562 C 36.1875 127.789062 35.980469 128.980469 35.800781 130.179688 C 35.625 131.375 35.476562 132.578125 35.359375 133.785156 C 35.238281 134.988281 35.152344 136.195312 35.089844 137.40625 C 35.03125 138.613281 35.003906 139.824219 35.003906 141.035156 C 35.003906 142.246094 35.03125 143.457031 35.089844 144.667969 C 35.152344 145.875 35.238281 147.082031 35.359375 148.289062 C 35.476562 149.492188 35.625 150.695312 35.800781 151.894531 C 35.980469 153.089844 36.1875 154.285156 36.421875 155.472656 C 36.65625 156.660156 36.921875 157.839844 37.214844 159.015625 C 37.507812 160.191406 37.832031 161.355469 38.183594 162.515625 C 38.535156 163.675781 38.914062 164.824219 39.320312 165.964844 C 39.726562 167.105469 40.160156 168.234375 40.625 169.351562 C 41.085938 170.472656 41.578125 171.578125 42.09375 172.675781 C 42.609375 173.769531 43.152344 174.851562 43.722656 175.921875 C 44.292969 176.988281 44.890625 178.042969 45.511719 179.082031 C 46.132812 180.121094 46.777344 181.144531 47.449219 182.152344 C 48.121094 183.160156 48.816406 184.148438 49.539062 185.125 C 50.257812 186.097656 51 187.050781 51.769531 187.988281 C 52.535156 188.925781 53.324219 189.84375 54.136719 190.742188 C 54.949219 191.640625 55.78125 192.519531 56.636719 193.375 Z M 73.625 105.710938 L 94.992188 84.34375 C 95.972656 83.367188 96.988281 82.429688 98.046875 81.535156 C 99.105469 80.640625 100.195312 79.792969 101.324219 78.988281 C 102.453125 78.1875 103.609375 77.429688 104.800781 76.722656 C 105.992188 76.015625 107.207031 75.359375 108.453125 74.753906 C 109.699219 74.148438 110.964844 73.59375 112.253906 73.09375 C 113.546875 72.59375 114.855469 72.144531 116.183594 71.753906 C 117.511719 71.363281 118.851562 71.023438 120.207031 70.742188 C 121.5625 70.460938 122.929688 70.238281 124.300781 70.070312 C 125.675781 69.902344 127.054688 69.792969 128.4375 69.738281 C 129.820312 69.683594 131.203125 69.6875 132.589844 69.75 C 133.972656 69.8125 135.347656 69.929688 136.722656 70.105469 C 138.09375 70.28125 139.460938 70.515625 140.8125 70.804688 C 142.167969 71.089844 143.507812 71.4375 144.832031 71.835938 C 146.15625 72.234375 147.464844 72.691406 148.75 73.199219 C 150.039062 73.707031 151.304688 74.265625 152.542969 74.878906 C 153.785156 75.492188 155 76.15625 156.1875 76.871094 L 66.152344 166.90625 C 65.4375 165.71875 64.773438 164.503906 64.160156 163.261719 C 63.546875 162.019531 62.984375 160.753906 62.476562 159.464844 C 61.964844 158.175781 61.511719 156.867188 61.113281 155.542969 C 60.710938 154.214844 60.367188 152.875 60.078125 151.519531 C 59.789062 150.164062 59.554688 148.796875 59.378906 147.425781 C 59.203125 146.050781 59.085938 144.671875 59.023438 143.285156 C 58.960938 141.902344 58.957031 140.515625 59.011719 139.132812 C 59.066406 137.75 59.175781 136.367188 59.34375 134.992188 C 59.511719 133.617188 59.734375 132.25 60.015625 130.894531 C 60.296875 129.539062 60.632812 128.195312 61.027344 126.867188 C 61.417969 125.535156 61.867188 124.226562 62.367188 122.933594 C 62.867188 121.640625 63.421875 120.375 64.027344 119.128906 C 64.636719 117.882812 65.292969 116.664062 66 115.472656 C 66.707031 114.28125 67.464844 113.121094 68.265625 111.992188 C 69.070312 110.863281 69.917969 109.769531 70.8125 108.710938 C 71.707031 107.652344 72.644531 106.632812 73.625 105.652344 Z M 73.625 105.710938 " fill-opacity="1" fill-rule="nonzero"/></svg>