<svg xmlns="http://www.w3.org/2000/svg" xmlns:xlink="http://www.w3.org/1999/xlink" width="756" zoomAndPan="magnify" viewBox="0 0 567 567.000005" height="756" preserveAspectRatio="xMidYMid meet" version="1.0"><path fill="#ffffff" d="M 321.507812 156.539062 L 313.84375 143.265625 C 312.148438 140.328125 314.492188 136.578125 318.007812 137.054688 L 368.261719 143.84375 C 370.96875 144.210938 372.59375 147.027344 371.558594 149.550781 L 352.308594 196.46875 C 350.964844 199.75 346.542969 199.90625 344.851562 196.96875 L 337.1875 183.695312 L 158.179688 287.046875 C 155.578125 288.550781 152.226562 287.652344 150.726562 285.050781 L 140.5 267.34375 C 139 264.738281 139.898438 261.390625 142.5 259.886719 Z M 283.460938 51.523438 C 375.292969 51.523438 456.324219 105.335938 493.589844 185.832031 C 486.742188 187.667969 479.894531 189.5 473.050781 191.335938 C 468.519531 192.546875 467.148438 198.503906 471.046875 201.476562 L 526.816406 243.96875 C 529.820312 246.257812 534.164062 245.09375 535.617188 241.609375 L 562.671875 176.925781 C 564.5625 172.402344 560.390625 167.929688 555.863281 169.144531 C 547.757812 171.316406 539.652344 173.488281 531.546875 175.660156 C 484.578125 67.222656 371.40625 0.0195312 250.492188 14.722656 C 263.753906 21.285156 267.992188 38.621094 258.878906 50.582031 L 257.019531 53.015625 C 265.699219 52.03125 274.519531 51.523438 283.460938 51.523438 Z M 53.515625 309.398438 C 42.039062 208.453125 97.023438 114.175781 186.332031 72.828125 C 188.164062 79.675781 190 86.523438 191.835938 93.371094 C 193.046875 97.898438 199.003906 99.273438 201.976562 95.371094 L 244.46875 39.601562 C 246.753906 36.601562 245.589844 32.257812 242.109375 30.800781 L 177.429688 3.75 C 172.902344 1.859375 168.429688 6.03125 169.644531 10.554688 C 171.816406 18.664062 173.988281 26.769531 176.160156 34.875 C 67.722656 81.839844 0.519531 195.011719 15.222656 315.925781 C 21.78125 302.664062 39.121094 298.429688 51.082031 307.542969 Z M 119.808594 446.613281 C 100.660156 427.460938 84.847656 404.972656 73.328125 380.089844 C 80.175781 378.253906 87.023438 376.417969 93.871094 374.582031 C 98.398438 373.371094 99.773438 367.414062 95.871094 364.441406 L 40.101562 321.953125 C 37.101562 319.664062 32.757812 320.828125 31.300781 324.308594 L 4.25 388.992188 C 2.359375 393.515625 6.527344 397.988281 11.054688 396.773438 C 19.164062 394.601562 27.269531 392.429688 35.375 390.257812 C 82.339844 498.695312 195.511719 565.898438 316.425781 551.195312 C 303.164062 544.636719 298.925781 527.296875 308.042969 515.335938 L 309.898438 512.902344 C 237.683594 521.113281 168.578125 495.378906 119.808594 446.613281 Z M 447.109375 446.613281 C 427.960938 465.761719 405.46875 481.570312 380.585938 493.089844 C 378.753906 486.242188 376.917969 479.398438 375.082031 472.546875 C 373.871094 468.019531 367.914062 466.648438 364.941406 470.546875 L 322.449219 526.316406 C 320.164062 529.320312 321.328125 533.664062 324.808594 535.117188 L 389.492188 562.167969 C 394.015625 564.0625 398.488281 559.890625 397.273438 555.363281 C 395.101562 547.257812 392.929688 539.152344 390.757812 531.046875 C 499.195312 484.078125 566.402344 370.910156 551.695312 249.996094 C 545.136719 263.253906 527.796875 267.492188 515.839844 258.378906 L 513.402344 256.523438 C 521.613281 328.734375 495.878906 397.84375 447.109375 446.613281 Z M 431.867188 224.519531 L 446.75 224.519531 C 449.40625 224.519531 450.78125 221.355469 448.96875 219.414062 L 412.1875 180.003906 C 410.234375 177.914062 406.925781 177.914062 404.976562 180.003906 L 368.195312 219.414062 C 366.382812 221.355469 367.757812 224.519531 370.414062 224.519531 L 385.292969 224.519531 L 385.292969 402.335938 C 385.292969 404.496094 387.054688 406.261719 389.214844 406.261719 L 427.949219 406.261719 C 430.109375 406.261719 431.871094 404.5 431.871094 402.335938 L 431.871094 224.519531 Z M 145.207031 341.554688 L 183.9375 341.554688 C 186.097656 341.554688 187.859375 343.316406 187.859375 345.476562 L 187.859375 402.335938 C 187.859375 404.496094 186.097656 406.261719 183.9375 406.261719 L 145.207031 406.261719 C 143.046875 406.261719 141.285156 404.5 141.285156 402.335938 L 141.285156 345.476562 C 141.28125 343.316406 143.042969 341.554688 145.207031 341.554688 Z M 226.542969 298.917969 L 265.273438 298.917969 C 267.433594 298.917969 269.195312 300.679688 269.195312 302.839844 L 269.195312 402.335938 C 269.195312 404.496094 267.433594 406.261719 265.273438 406.261719 L 226.542969 406.261719 C 224.382812 406.261719 222.617188 404.5 222.617188 402.335938 L 222.617188 302.839844 C 222.617188 300.679688 224.382812 298.917969 226.542969 298.917969 Z M 307.878906 256.277344 C 305.71875 256.277344 303.953125 258.039062 303.953125 260.199219 L 303.953125 402.335938 C 303.953125 404.496094 305.71875 406.261719 307.878906 406.261719 L 346.609375 406.261719 C 348.769531 406.261719 350.53125 404.5 350.53125 402.335938 L 350.53125 260.203125 C 350.53125 258.042969 348.769531 256.28125 346.609375 256.28125 L 307.878906 256.28125 Z M 307.878906 256.277344 " fill-opacity="1" fill-rule="evenodd"/></svg>