<svg xmlns="http://www.w3.org/2000/svg" xmlns:xlink="http://www.w3.org/1999/xlink" width="756" zoomAndPan="magnify" viewBox="0 0 567 567.000005" height="756" preserveAspectRatio="xMidYMid meet" version="1.0"><defs><clipPath id="9327cd8b5b"><path d="M 0.5 0 L 566.5 0 L 566.5 566 L 0.5 566 Z M 0.5 0 " clip-rule="nonzero"/></clipPath></defs><g clip-path="url(#9327cd8b5b)"><path fill="#0d6282" d="M 292.589844 556.792969 L 292.589844 465.515625 C 292.589844 460.476562 288.5 456.386719 283.460938 456.386719 C 278.425781 456.386719 274.335938 460.476562 274.335938 465.515625 L 274.335938 556.792969 C 274.335938 561.832031 278.425781 565.921875 283.460938 565.921875 C 288.5 565.921875 292.589844 561.832031 292.589844 556.792969 Z M 184.28125 436.492188 L 138.640625 515.542969 C 136.121094 519.902344 137.621094 525.492188 141.980469 528.011719 C 146.34375 530.527344 151.929688 529.03125 154.449219 524.671875 L 200.089844 445.621094 C 202.609375 441.257812 201.113281 435.671875 196.75 433.152344 C 192.386719 430.632812 186.800781 432.128906 184.28125 436.492188 Z M 428.285156 515.542969 L 382.644531 436.492188 C 380.125 432.128906 374.539062 430.632812 370.175781 433.152344 C 365.8125 435.671875 364.316406 441.257812 366.835938 445.621094 L 412.472656 524.671875 C 414.992188 529.03125 420.578125 530.527344 424.941406 528.011719 C 429.304688 525.492188 430.804688 519.902344 428.285156 515.542969 Z M 525.175781 411.972656 L 446.125 366.332031 C 441.761719 363.8125 436.175781 365.308594 433.65625 369.671875 C 431.136719 374.035156 432.632812 379.621094 436.996094 382.140625 L 516.046875 427.78125 C 520.40625 430.300781 525.996094 428.804688 528.515625 424.441406 C 531.03125 420.078125 529.535156 414.492188 525.175781 411.972656 Z M 120.800781 366.332031 L 41.75 411.972656 C 37.390625 414.492188 35.894531 420.078125 38.410156 424.441406 C 40.929688 428.804688 46.519531 430.300781 50.878906 427.78125 L 129.929688 382.140625 C 134.292969 379.621094 135.789062 374.035156 133.269531 369.671875 C 130.75 365.308594 125.164062 363.8125 120.800781 366.332031 Z M 283.460938 136.914062 C 202.859375 136.914062 137.417969 202.355469 137.417969 282.960938 C 137.417969 363.5625 202.859375 429.003906 283.460938 429.003906 C 364.066406 429.003906 429.507812 363.5625 429.507812 282.960938 C 429.507812 202.355469 364.066406 136.914062 283.460938 136.914062 Z M 283.460938 155.171875 C 353.992188 155.171875 411.25 212.429688 411.25 282.960938 C 411.25 353.488281 353.992188 410.75 283.460938 410.75 C 212.933594 410.75 155.675781 353.488281 155.675781 282.960938 C 155.675781 212.429688 212.933594 155.171875 283.460938 155.171875 Z M 100.90625 273.832031 L 9.628906 273.832031 C 4.589844 273.832031 0.503906 277.921875 0.503906 282.960938 C 0.503906 288 4.589844 292.085938 9.628906 292.085938 L 100.90625 292.085938 C 105.945312 292.085938 110.035156 288 110.035156 282.960938 C 110.035156 277.921875 105.945312 273.832031 100.90625 273.832031 Z M 557.296875 273.832031 L 466.019531 273.832031 C 460.980469 273.832031 456.890625 277.921875 456.890625 282.960938 C 456.890625 288 460.980469 292.085938 466.019531 292.085938 L 557.296875 292.085938 C 562.332031 292.085938 566.421875 288 566.421875 282.960938 C 566.421875 277.921875 562.332031 273.832031 557.296875 273.832031 Z M 129.929688 183.777344 L 50.878906 138.140625 C 46.519531 135.621094 40.929688 137.117188 38.410156 141.480469 C 35.894531 145.84375 37.390625 151.429688 41.75 153.949219 L 120.800781 199.585938 C 125.164062 202.105469 130.75 200.609375 133.269531 196.246094 C 135.789062 191.882812 134.292969 186.296875 129.929688 183.777344 Z M 516.046875 138.140625 L 436.996094 183.777344 C 432.632812 186.296875 431.136719 191.882812 433.65625 196.246094 C 436.175781 200.609375 441.761719 202.105469 446.125 199.585938 L 525.175781 153.949219 C 529.535156 151.429688 531.03125 145.84375 528.515625 141.480469 C 525.996094 137.117188 520.40625 135.621094 516.046875 138.140625 Z M 412.472656 41.246094 L 366.835938 120.296875 C 364.316406 124.660156 365.8125 130.246094 370.175781 132.765625 C 374.539062 135.285156 380.125 133.789062 382.644531 129.425781 L 428.285156 50.375 C 430.804688 46.015625 429.304688 40.425781 424.941406 37.90625 C 420.578125 35.390625 414.992188 36.890625 412.472656 41.246094 Z M 200.089844 120.296875 L 154.449219 41.246094 C 151.929688 36.890625 146.34375 35.390625 141.980469 37.90625 C 137.621094 40.425781 136.121094 46.015625 138.640625 50.375 L 184.28125 129.425781 C 186.800781 133.789062 192.386719 135.285156 196.75 132.765625 C 201.113281 130.246094 202.609375 124.660156 200.089844 120.296875 Z M 292.589844 100.40625 L 292.589844 9.128906 C 292.589844 4.089844 288.5 0 283.460938 0 C 278.425781 0 274.335938 4.089844 274.335938 9.128906 L 274.335938 100.40625 C 274.335938 105.441406 278.425781 109.53125 283.460938 109.53125 C 288.5 109.53125 292.589844 105.441406 292.589844 100.40625 Z M 292.589844 100.40625 " fill-opacity="1" fill-rule="evenodd"/></g></svg>