<svg xmlns="http://www.w3.org/2000/svg" xmlns:xlink="http://www.w3.org/1999/xlink" width="756" zoomAndPan="magnify" viewBox="0 0 567 567.000005" height="756" preserveAspectRatio="xMidYMid meet" version="1.0"><path fill="#ffffff" d="M 299.613281 557.023438 C 299.082031 557.550781 298.53125 558.054688 297.949219 558.527344 C 297.371094 559.003906 296.773438 559.449219 296.148438 559.863281 C 295.527344 560.277344 294.886719 560.664062 294.226562 561.015625 C 293.566406 561.367188 292.890625 561.6875 292.199219 561.972656 C 291.507812 562.261719 290.804688 562.511719 290.089844 562.730469 C 289.375 562.945312 288.648438 563.128906 287.914062 563.273438 C 287.183594 563.421875 286.441406 563.53125 285.699219 563.601562 C 284.953125 563.675781 284.207031 563.714844 283.460938 563.714844 C 282.710938 563.714844 281.964844 563.675781 281.21875 563.601562 C 280.476562 563.53125 279.734375 563.421875 279.003906 563.273438 C 278.269531 563.128906 277.542969 562.945312 276.828125 562.730469 C 276.113281 562.511719 275.410156 562.261719 274.71875 561.972656 C 274.027344 561.6875 273.351562 561.367188 272.691406 561.015625 C 272.03125 560.664062 271.390625 560.277344 270.769531 559.863281 C 270.144531 559.449219 269.546875 559.003906 268.96875 558.527344 C 268.390625 558.054688 267.835938 557.550781 267.304688 557.023438 L 9.421875 299.113281 C 8.894531 298.582031 8.390625 298.03125 7.917969 297.449219 C 7.445312 296.871094 7 296.273438 6.585938 295.648438 C 6.167969 295.027344 5.785156 294.386719 5.433594 293.726562 C 5.082031 293.066406 4.761719 292.390625 4.476562 291.699219 C 4.191406 291.007812 3.941406 290.304688 3.722656 289.589844 C 3.507812 288.875 3.324219 288.148438 3.179688 287.414062 C 3.035156 286.683594 2.925781 285.941406 2.851562 285.199219 C 2.777344 284.453125 2.742188 283.707031 2.742188 282.960938 C 2.742188 282.210938 2.777344 281.464844 2.851562 280.722656 C 2.925781 279.976562 3.035156 279.238281 3.179688 278.503906 C 3.324219 277.769531 3.507812 277.046875 3.722656 276.332031 C 3.941406 275.613281 4.191406 274.910156 4.476562 274.21875 C 4.761719 273.527344 5.082031 272.851562 5.433594 272.195312 C 5.785156 271.535156 6.167969 270.894531 6.585938 270.269531 C 7 269.648438 7.445312 269.046875 7.917969 268.46875 C 8.390625 267.890625 8.894531 267.335938 9.421875 266.808594 L 267.304688 8.898438 C 267.835938 8.367188 268.390625 7.867188 268.96875 7.390625 C 269.546875 6.917969 270.144531 6.472656 270.769531 6.054688 C 271.390625 5.640625 272.03125 5.257812 272.691406 4.902344 C 273.351562 4.550781 274.027344 4.230469 274.71875 3.945312 C 275.410156 3.660156 276.113281 3.40625 276.828125 3.191406 C 277.542969 2.972656 278.269531 2.792969 279.003906 2.644531 C 279.734375 2.5 280.476562 2.390625 281.21875 2.316406 C 281.964844 2.242188 282.710938 2.207031 283.460938 2.207031 C 284.207031 2.207031 284.953125 2.242188 285.699219 2.316406 C 286.441406 2.390625 287.183594 2.5 287.914062 2.644531 C 288.648438 2.792969 289.375 2.972656 290.089844 3.191406 C 290.804688 3.40625 291.507812 3.660156 292.199219 3.945312 C 292.890625 4.230469 293.566406 4.550781 294.226562 4.902344 C 294.886719 5.257812 295.527344 5.640625 296.148438 6.054688 C 296.773438 6.472656 297.371094 6.917969 297.949219 7.390625 C 298.53125 7.867188 299.082031 8.367188 299.613281 8.898438 L 557.496094 266.808594 C 558.023438 267.335938 558.527344 267.890625 559 268.46875 C 559.472656 269.046875 559.917969 269.648438 560.332031 270.269531 C 560.75 270.894531 561.132812 271.535156 561.484375 272.195312 C 561.835938 272.851562 562.15625 273.527344 562.441406 274.21875 C 562.726562 274.910156 562.976562 275.613281 563.195312 276.332031 C 563.410156 277.046875 563.59375 277.769531 563.738281 278.503906 C 563.882812 279.238281 563.992188 279.976562 564.066406 280.722656 C 564.140625 281.464844 564.175781 282.210938 564.175781 282.960938 C 564.175781 283.707031 564.140625 284.453125 564.066406 285.199219 C 563.992188 285.941406 563.882812 286.683594 563.738281 287.414062 C 563.59375 288.148438 563.410156 288.875 563.195312 289.589844 C 562.976562 290.304688 562.726562 291.007812 562.441406 291.699219 C 562.15625 292.390625 561.835938 293.066406 561.484375 293.726562 C 561.132812 294.386719 560.75 295.027344 560.332031 295.648438 C 559.917969 296.273438 559.472656 296.871094 559 297.449219 C 558.527344 298.03125 558.023438 298.582031 557.496094 299.113281 Z M 299.613281 557.023438 " fill-opacity="1" fill-rule="nonzero"/><path fill="#000000" d="M 283.460938 540.882812 C 281.71875 540.886719 279.996094 540.722656 278.289062 540.382812 C 276.582031 540.046875 274.921875 539.546875 273.316406 538.878906 C 271.707031 538.214844 270.179688 537.398438 268.734375 536.429688 C 267.289062 535.460938 265.953125 534.359375 264.722656 533.125 L 33.332031 301.667969 C 32.71875 301.054688 32.136719 300.414062 31.589844 299.742188 C 31.039062 299.074219 30.523438 298.378906 30.042969 297.65625 C 29.5625 296.9375 29.117188 296.191406 28.710938 295.429688 C 28.300781 294.664062 27.933594 293.882812 27.601562 293.082031 C 27.269531 292.28125 26.976562 291.464844 26.726562 290.636719 C 26.476562 289.804688 26.265625 288.964844 26.097656 288.117188 C 25.929688 287.265625 25.800781 286.410156 25.714844 285.546875 C 25.632812 284.683594 25.589844 283.820312 25.589844 282.953125 C 25.589844 282.085938 25.632812 281.222656 25.714844 280.359375 C 25.800781 279.496094 25.929688 278.640625 26.097656 277.792969 C 26.265625 276.941406 26.476562 276.101562 26.726562 275.273438 C 26.976562 274.441406 27.269531 273.628906 27.601562 272.828125 C 27.933594 272.027344 28.300781 271.242188 28.710938 270.480469 C 29.117188 269.714844 29.5625 268.972656 30.042969 268.25 C 30.523438 267.53125 31.039062 266.832031 31.589844 266.164062 C 32.136719 265.492188 32.71875 264.851562 33.332031 264.238281 L 264.738281 32.792969 C 265.351562 32.179688 265.992188 31.597656 266.660156 31.050781 C 267.332031 30.5 268.027344 29.980469 268.75 29.5 C 269.46875 29.019531 270.210938 28.574219 270.976562 28.164062 C 271.742188 27.753906 272.523438 27.382812 273.324219 27.050781 C 274.128906 26.71875 274.941406 26.429688 275.773438 26.175781 C 276.601562 25.925781 277.441406 25.714844 278.292969 25.542969 C 279.144531 25.375 280 25.25 280.863281 25.164062 C 281.726562 25.078125 282.589844 25.035156 283.460938 25.035156 C 284.328125 25.035156 285.191406 25.078125 286.054688 25.164062 C 286.917969 25.25 287.773438 25.375 288.625 25.542969 C 289.476562 25.714844 290.316406 25.925781 291.144531 26.175781 C 291.976562 26.429688 292.789062 26.71875 293.59375 27.050781 C 294.394531 27.382812 295.175781 27.753906 295.941406 28.164062 C 296.707031 28.574219 297.449219 29.019531 298.167969 29.5 C 298.890625 29.980469 299.585938 30.5 300.257812 31.050781 C 300.925781 31.597656 301.566406 32.179688 302.179688 32.792969 L 533.585938 264.238281 C 534.199219 264.851562 534.78125 265.492188 535.328125 266.164062 C 535.878906 266.832031 536.394531 267.53125 536.875 268.25 C 537.355469 268.972656 537.800781 269.714844 538.207031 270.480469 C 538.617188 271.242188 538.984375 272.027344 539.316406 272.828125 C 539.648438 273.628906 539.941406 274.441406 540.191406 275.273438 C 540.441406 276.101562 540.652344 276.941406 540.820312 277.792969 C 540.988281 278.640625 541.117188 279.496094 541.203125 280.359375 C 541.285156 281.222656 541.328125 282.085938 541.328125 282.953125 C 541.328125 283.820312 541.285156 284.683594 541.203125 285.546875 C 541.117188 286.410156 540.988281 287.265625 540.820312 288.117188 C 540.652344 288.964844 540.441406 289.804688 540.191406 290.636719 C 539.941406 291.464844 539.648438 292.28125 539.316406 293.082031 C 538.984375 293.882812 538.617188 294.664062 538.207031 295.429688 C 537.800781 296.191406 537.355469 296.9375 536.875 297.65625 C 536.394531 298.378906 535.878906 299.074219 535.328125 299.742188 C 534.78125 300.414062 534.199219 301.054688 533.585938 301.667969 L 302.257812 533.125 C 301.023438 534.363281 299.683594 535.46875 298.234375 536.4375 C 296.78125 537.410156 295.25 538.226562 293.636719 538.890625 C 292.023438 539.558594 290.359375 540.058594 288.648438 540.394531 C 286.933594 540.726562 285.203125 540.890625 283.460938 540.882812 Z M 283.460938 36.992188 C 281.53125 36.988281 279.675781 37.355469 277.894531 38.09375 C 276.113281 38.832031 274.542969 39.886719 273.183594 41.253906 L 41.789062 272.695312 C 41.117188 273.371094 40.515625 274.105469 39.984375 274.898438 C 39.457031 275.691406 39.011719 276.527344 38.644531 277.410156 C 38.28125 278.289062 38.007812 279.199219 37.820312 280.132812 C 37.636719 281.070312 37.542969 282.011719 37.542969 282.964844 C 37.542969 283.917969 37.636719 284.863281 37.820312 285.800781 C 38.007812 286.734375 38.28125 287.640625 38.644531 288.523438 C 39.011719 289.402344 39.457031 290.242188 39.984375 291.035156 C 40.515625 291.828125 41.117188 292.5625 41.789062 293.234375 L 273.195312 524.667969 C 273.867188 525.34375 274.601562 525.945312 275.394531 526.476562 C 276.183594 527.007812 277.023438 527.457031 277.902344 527.820312 C 278.78125 528.1875 279.691406 528.464844 280.625 528.648438 C 281.5625 528.835938 282.503906 528.929688 283.460938 528.929688 C 284.414062 528.929688 285.355469 528.835938 286.292969 528.648438 C 287.226562 528.464844 288.136719 528.1875 289.015625 527.820312 C 289.894531 527.457031 290.734375 527.007812 291.523438 526.476562 C 292.316406 525.945312 293.050781 525.34375 293.722656 524.667969 L 525.128906 293.234375 C 525.804688 292.5625 526.40625 291.828125 526.9375 291.035156 C 527.464844 290.242188 527.914062 289.40625 528.28125 288.523438 C 528.644531 287.644531 528.921875 286.734375 529.105469 285.800781 C 529.292969 284.863281 529.386719 283.921875 529.386719 282.964844 C 529.386719 282.011719 529.292969 281.066406 529.105469 280.132812 C 528.921875 279.195312 528.644531 278.289062 528.28125 277.40625 C 527.914062 276.527344 527.464844 275.6875 526.9375 274.898438 C 526.40625 274.105469 525.804688 273.371094 525.128906 272.695312 L 293.722656 41.253906 C 292.367188 39.886719 290.796875 38.832031 289.019531 38.09375 C 287.238281 37.355469 285.386719 36.988281 283.460938 36.992188 Z M 283.460938 36.992188 " fill-opacity="1" fill-rule="nonzero"/><path fill="#000000" d="M 431.867188 217.507812 C 389.5 201.792969 336.929688 174.976562 304.347656 146.554688 L 321.378906 193.636719 L 306.53125 193.636719 C 304.96875 193.636719 303.40625 193.675781 301.84375 193.753906 C 300.285156 193.832031 298.726562 193.949219 297.171875 194.105469 C 295.617188 194.257812 294.066406 194.453125 292.519531 194.683594 C 290.976562 194.914062 289.4375 195.179688 287.90625 195.488281 C 286.371094 195.792969 284.847656 196.136719 283.332031 196.519531 C 281.816406 196.898438 280.3125 197.316406 278.816406 197.769531 C 277.324219 198.226562 275.839844 198.714844 274.371094 199.242188 C 272.898438 199.769531 271.441406 200.332031 269.996094 200.933594 C 268.554688 201.53125 267.128906 202.164062 265.714844 202.832031 C 264.300781 203.503906 262.90625 204.203125 261.53125 204.941406 C 260.152344 205.679688 258.792969 206.449219 257.453125 207.253906 C 256.113281 208.058594 254.792969 208.894531 253.496094 209.761719 C 252.195312 210.628906 250.917969 211.53125 249.664062 212.460938 C 248.410156 213.390625 247.179688 214.351562 245.96875 215.34375 C 244.761719 216.335938 243.578125 217.355469 242.421875 218.40625 C 241.265625 219.457031 240.132812 220.53125 239.027344 221.636719 C 237.921875 222.742188 236.847656 223.875 235.796875 225.03125 C 234.746094 226.1875 233.726562 227.371094 232.734375 228.578125 C 231.746094 229.785156 230.785156 231.019531 229.851562 232.273438 C 228.921875 233.527344 228.023438 234.804688 227.152344 236.105469 C 226.285156 237.402344 225.449219 238.722656 224.644531 240.0625 C 223.839844 241.402344 223.070312 242.761719 222.332031 244.136719 C 221.597656 245.515625 220.894531 246.910156 220.226562 248.324219 C 219.554688 249.734375 218.921875 251.164062 218.324219 252.605469 C 217.726562 254.050781 217.160156 255.507812 216.636719 256.976562 C 216.109375 258.449219 215.617188 259.929688 215.160156 261.425781 C 214.707031 262.921875 214.289062 264.425781 213.910156 265.941406 C 213.527344 267.457031 213.183594 268.980469 212.878906 270.511719 C 212.574219 272.046875 212.304688 273.585938 212.074219 275.128906 C 211.84375 276.675781 211.652344 278.226562 211.496094 279.78125 C 211.339844 281.335938 211.226562 282.894531 211.148438 284.453125 C 211.070312 286.015625 211.027344 287.574219 211.027344 289.136719 L 211.027344 438.351562 L 258.773438 438.351562 L 258.773438 289.136719 C 258.773438 287.574219 258.851562 286.015625 259.007812 284.460938 C 259.164062 282.902344 259.394531 281.359375 259.703125 279.828125 C 260.007812 278.292969 260.390625 276.78125 260.84375 275.285156 C 261.300781 273.789062 261.828125 272.320312 262.425781 270.875 C 263.027344 269.433594 263.695312 268.019531 264.433594 266.640625 C 265.171875 265.265625 265.976562 263.925781 266.84375 262.625 C 267.714844 261.328125 268.644531 260.074219 269.636719 258.863281 C 270.628906 257.65625 271.675781 256.5 272.78125 255.394531 C 273.886719 254.289062 275.046875 253.242188 276.253906 252.25 C 277.460938 251.257812 278.714844 250.328125 280.015625 249.457031 C 281.316406 248.589844 282.652344 247.785156 284.03125 247.046875 C 285.410156 246.3125 286.820312 245.644531 288.265625 245.042969 C 289.710938 244.445312 291.179688 243.917969 292.675781 243.460938 C 294.171875 243.007812 295.683594 242.628906 297.21875 242.320312 C 298.75 242.015625 300.296875 241.785156 301.851562 241.628906 C 303.40625 241.472656 304.964844 241.394531 306.53125 241.394531 L 321.378906 241.394531 L 304.347656 288.472656 C 336.929688 260.066406 389.5 233.222656 431.867188 217.507812 Z M 431.867188 217.507812 " fill-opacity="1" fill-rule="nonzero"/></svg>